<?xml version="1.0" encoding="utf-8"?>
<!-- Generator: Adobe Illustrator 23.0.2, SVG Export Plug-In . SVG Version: 6.00 Build 0)  -->
<svg version="1.1" id="Layer_1" xmlns="http://www.w3.org/2000/svg" xmlns:xlink="http://www.w3.org/1999/xlink" x="0px" y="0px"
	 viewBox="0 0 1242 2208" style="enable-background:new 0 0 1242 2208;" xml:space="preserve">
<style type="text/css">
	.st0{fill:#231F20;}
	.st1{fill:none;stroke:#231F20;stroke-width:2;stroke-miterlimit:10;}
	.st2{fill:none;stroke:#FFFFFF;stroke-miterlimit:10;}
</style>
<g>
	<g>
		<path class="st0" d="M683.89,982.38c-0.8,3.6-4.2,7.4-7.6,6.6c-2.8-0.6-2.4-3.6-2-6.2c0.4-2.2-0.4-4-2.8-4.2
			c-4.2-0.6-10.4,3.2-22,13.4c-7.6,6.8-16.2,15.8-24.2,23c4.8,6.8,10.6,16.4,8,28.6c-3.2,14.6-17.8,25.2-32.8,25.2
			c-7.2,0-11-3.6-12-5.6c-0.8-1.6-1-3-0.4-3.4c0.6,0,0.4,1,1.6,2.6c1.6,2,4.8,4,10.8,4c10.6,0,19.8-7.4,23-18
			c2.8-9.8,0.6-20.2-3.6-28.6c-9.2,7.6-20.8,15.2-31,15.2c-4.4,0-8.4-2.8-7.2-8.8c1.4-6.6,8.4-12,17-17.2c4.4-2.6,8.6-4.6,12.8-7
			c-1-3.6-1.6-8.2-0.8-12c1.4-6.8,7.2-14.6,15-14.6c4,0,7,3.8,4.8,9.8c-2.2,6.2-7.4,11-13.8,15.4c1.6,4.4,4.6,8.2,7.4,12.6
			c8.2-7.6,16.4-16.4,24-23.4c10-9,19.2-15.6,27.8-15.6C681.69,974.17,684.89,977.58,683.89,982.38z M618.69,1017.77
			c-2.6-4.6-5-9.4-6.6-14.2c-4.6,3.2-8.4,5.6-11.8,8.4c-5.4,4.4-8.6,8.2-9.2,12.4c-0.6,3.8,1.6,5.2,4.6,5.2
			C600.69,1029.57,610.09,1024.57,618.69,1017.77z M615.69,989.77c-0.6,3.2-0.4,6.2,0.6,9.2c5.2-3.8,10-8.4,12-14
			c1.2-3.6,0-6.4-3-6.4C621.09,978.58,616.89,983.98,615.69,989.77z"/>
	</g>
	<line class="st1" x1="549.59" y1="1010.74" x2="227.26" y2="1010.74"/>
	<line class="st1" x1="1018.15" y1="1010.74" x2="695.82" y2="1010.74"/>
</g>
<rect y="0.5" class="st2" width="1242" height="2207.5"/>
</svg>
