<?xml version="1.0" encoding="utf-8"?>
<!-- Generator: Adobe Illustrator 23.0.2, SVG Export Plug-In . SVG Version: 6.00 Build 0)  -->
<svg version="1.1" id="Layer_1" xmlns="http://www.w3.org/2000/svg" xmlns:xlink="http://www.w3.org/1999/xlink" x="0px" y="0px"
	 viewBox="0 0 1242 2208" style="enable-background:new 0 0 1242 2208;" xml:space="preserve">
<style type="text/css">
	.st0{fill:#231F20;}
	.st1{fill:none;stroke:#000000;stroke-width:2;stroke-miterlimit:10;}
	.st2{fill:none;stroke:#FFFFFF;stroke-miterlimit:10;}
</style>
<g>
	<g>
		<path class="st0" d="M417.11,1548.04v-0.5c0.9-0.1,2.2-0.3,2.9-0.6c1-0.5,1.7-1.1,2.2-2.9c0.4-1.5,0.5-3.9,0.5-6v-46.4
			c0-1.4,0-3.8-0.3-5.5c-0.2-1.1-0.7-1.5-1.4-1.9c-1.1-0.6-3-0.7-4-0.8v-0.5c1.4-0.1,4.3-0.4,7.3-0.8c1.7-0.2,3.8-0.6,4.7-0.6
			c0.5,0,0.7,0.2,0.7,0.7c0,1.5-0.2,3.7-0.2,6.3v49.5c0,2.1-0.1,4.5,0.3,6c0.4,1.5,0.9,2.2,1.9,2.7c1.1,0.6,2.2,0.7,3.4,0.8v0.5
			H417.11z"/>
		<path class="st0" d="M480.81,1496.13c-2,0-3.8-1.3-3.8-3.8c0-1.3,0.2-1.9,0.6-3.3c0.3-1.2,0.6-2.2,0.6-2.8c0-1.9-2.7-3.8-7.8-3.8
			c-12.9,0-19.8,14.9-20.4,35.2h0.3c2.6-6.4,7.3-11.4,15.4-11.4c12,0,18.5,9.3,18.5,20.8c0,13.6-8,22.4-20.4,22.4
			c-15.7,0-21.6-13.8-21.6-29.2c0-22.5,13.1-39.2,28.2-39.2c11,0,14.2,5.4,14.2,10.2C484.61,1494.54,483.01,1496.13,480.81,1496.13z
			 M450.31,1526.84c0,12.9,4.2,21.2,13.4,21.2c8.7,0,13.1-7.2,13.1-19.4c0-14.3-5.8-20.5-13.5-20.5
			C456.01,1508.14,450.31,1516.44,450.31,1526.84z"/>
	</g>
	<g>
		<path class="st0" d="M581.9,1548.04v-0.5c0.9-0.1,2.2-0.3,2.9-0.6c1-0.5,1.7-1.1,2.2-2.9c0.4-1.5,0.5-3.9,0.5-6v-46.4
			c0-1.4,0-3.8-0.3-5.5c-0.2-1.1-0.7-1.5-1.4-1.9c-1.1-0.6-3-0.7-4-0.8v-0.5c1.4-0.1,4.3-0.4,7.3-0.8c1.7-0.2,3.8-0.6,4.7-0.6
			c0.5,0,0.7,0.2,0.7,0.7c0,1.5-0.2,3.7-0.2,6.3v49.5c0,2.1-0.1,4.5,0.3,6c0.4,1.5,0.9,2.2,1.9,2.7c1.1,0.6,2.2,0.7,3.4,0.8v0.5
			H581.9z"/>
		<path class="st0" d="M631.6,1549.44c-15.3,0-24.6-16-24.6-34.8c0-18.3,9.5-33.6,24.6-33.6c15.1,0,24.6,14.5,24.6,33.6
			C656.2,1532.84,646.9,1549.44,631.6,1549.44z M631.6,1482.43c-10.7,0-16.8,9.7-16.8,32.2c0,22.2,6.3,33.4,16.8,33.4
			c10.4,0,16.8-10.9,16.8-33.4C648.4,1492.24,642.2,1482.43,631.6,1482.43z"/>
	</g>
	<g>
		<path class="st0" d="M778.89,1504.14c-1.8,5.7-5.9,11.4-13.1,11.4c-7.6,0-11.1-5.5-11.1-11.6c0-12.1,9.4-22.9,24.2-22.9
			c12,0,16.8,7.3,16.8,18.5c0,16.1-17.3,29.9-23.2,34.7l-8.4,7v0.2h25.1c3.7,0,4.2,0.5,5.6-1.7c1.4-2.4,2.8-5,3.7-7h0.7l-3.4,15.3
			h-42.2l9.5-8c9.5-8,24.6-22.7,24.6-42.1c0-11.8-3.2-15.3-11.5-15.3c-9.5,0-16.1,8.7-16.1,19.7c0,6.2,2.7,10.2,8.3,10.2
			c4.6,0,7.4-3.1,9.6-8.7L778.89,1504.14z"/>
		<path class="st0" d="M806.19,1548.04v-0.5c0.9-0.1,2.2-0.3,2.9-0.6c1-0.5,1.7-1.1,2.2-2.9c0.4-1.5,0.5-3.9,0.5-6v-46.4
			c0-1.4,0-3.8-0.3-5.5c-0.2-1.1-0.7-1.5-1.4-1.9c-1.1-0.6-3-0.7-4-0.8v-0.5c1.4-0.1,4.3-0.4,7.3-0.8c1.7-0.2,3.8-0.6,4.7-0.6
			c0.5,0,0.7,0.2,0.7,0.7c0,1.5-0.2,3.7-0.2,6.3v49.5c0,2.1-0.1,4.5,0.3,6c0.4,1.5,0.9,2.2,1.9,2.7c1.1,0.6,2.2,0.7,3.4,0.8v0.5
			H806.19z"/>
	</g>
	<line class="st1" x1="704.36" y1="1442.47" x2="704.36" y2="1586.26"/>
	<line class="st1" x1="534.08" y1="1442.47" x2="534.08" y2="1586.26"/>
</g>
<rect y="0.5" class="st2" width="1242" height="2207.5"/>
</svg>
