<?xml version="1.0" encoding="utf-8"?>
<!-- Generator: Adobe Illustrator 23.0.2, SVG Export Plug-In . SVG Version: 6.00 Build 0)  -->
<svg version="1.1" id="Layer_1" xmlns="http://www.w3.org/2000/svg" xmlns:xlink="http://www.w3.org/1999/xlink" x="0px" y="0px"
	 viewBox="0 0 1242 2208" style="enable-background:new 0 0 1242 2208;" xml:space="preserve">
<style type="text/css">
	.st0{fill:#231F20;}
	.st1{fill:none;stroke:#FFFFFF;stroke-miterlimit:10;}
</style>
<g>
	<g>
		<path class="st0" d="M428.93,1103.1l34.16,88.06c1.4,3.55,2.99,5.9,4.76,7.07c1.77,1.17,3.41,1.8,4.9,1.89v2.8
			c-1.87-0.19-4.15-0.3-6.86-0.35c-2.71-0.05-5.41-0.07-8.12-0.07c-3.64,0-7.05,0.02-10.22,0.07c-3.17,0.05-5.74,0.16-7.7,0.35v-2.8
			c4.76-0.19,7.79-1,9.1-2.45c1.31-1.45,1.03-4.55-0.84-9.31l-26.04-69.58l2.24-1.82l-24.36,63.28c-1.96,5.04-2.89,8.98-2.8,11.83
			c0.09,2.85,1.17,4.88,3.22,6.09c2.05,1.21,5.04,1.87,8.96,1.96v2.8c-2.61-0.19-5.34-0.3-8.19-0.35c-2.85-0.05-5.48-0.07-7.91-0.07
			c-2.33,0-4.32,0.02-5.95,0.07c-1.63,0.05-3.15,0.16-4.55,0.35v-2.8c1.87-0.47,3.78-1.56,5.74-3.29c1.96-1.73,3.73-4.69,5.32-8.89
			l32.9-84.84c0.37,0,0.75,0,1.12,0C428.19,1103.1,428.56,1103.1,428.93,1103.1z M446.01,1162.6v2.8h-41.72l1.4-2.8H446.01z"/>
		<path class="st0" d="M505.79,1202.92v-2.8c3.17-0.19,5.58-0.56,7.21-1.12c1.63-0.56,2.73-1.68,3.29-3.36
			c0.56-1.68,0.84-4.2,0.84-7.56v-69.44c0-3.45-0.28-6-0.84-7.63c-0.56-1.63-1.66-2.75-3.29-3.36c-1.63-0.61-4.04-0.96-7.21-1.05
			v-2.8c1.96,0.09,4.53,0.19,7.7,0.28c3.17,0.09,6.58,0.14,10.22,0.14c3.27,0,6.51-0.05,9.73-0.14c3.22-0.09,5.9-0.19,8.05-0.28v2.8
			c-3.17,0.09-5.58,0.44-7.21,1.05c-1.63,0.61-2.73,1.73-3.29,3.36c-0.56,1.63-0.84,4.18-0.84,7.63v69.44
			c0,3.36,0.28,5.88,0.84,7.56c0.56,1.68,1.66,2.8,3.29,3.36c1.63,0.56,4.04,0.93,7.21,1.12v2.8c-2.15-0.19-4.83-0.3-8.05-0.35
			c-3.22-0.05-6.46-0.07-9.73-0.07c-3.64,0-7.05,0.02-10.22,0.07C510.32,1202.62,507.75,1202.73,505.79,1202.92z M525.25,1154.48
			v-2.8h55.3v2.8H525.25z M564.31,1202.92v-2.8c3.17-0.19,5.58-0.56,7.21-1.12c1.63-0.56,2.73-1.68,3.29-3.36
			c0.56-1.68,0.84-4.2,0.84-7.56v-69.44c0-3.45-0.28-6-0.84-7.63c-0.56-1.63-1.66-2.75-3.29-3.36c-1.63-0.61-4.04-0.96-7.21-1.05
			v-2.8c2.15,0.09,4.85,0.19,8.12,0.28c3.27,0.09,6.49,0.14,9.66,0.14c3.64,0,7.05-0.05,10.22-0.14c3.17-0.09,5.74-0.19,7.7-0.28
			v2.8c-3.17,0.09-5.58,0.44-7.21,1.05c-1.63,0.61-2.73,1.73-3.29,3.36c-0.56,1.63-0.84,4.18-0.84,7.63v69.44
			c0,3.36,0.28,5.88,0.84,7.56c0.56,1.68,1.66,2.8,3.29,3.36c1.63,0.56,4.04,0.93,7.21,1.12v2.8c-1.96-0.19-4.53-0.3-7.7-0.35
			c-3.17-0.05-6.58-0.07-10.22-0.07c-3.17,0-6.39,0.02-9.66,0.07C569.17,1202.62,566.46,1202.73,564.31,1202.92z"/>
		<path class="st0" d="M639.77,1202.92v-2.8c3.17-0.19,5.58-0.56,7.21-1.12c1.63-0.56,2.73-1.68,3.29-3.36
			c0.56-1.68,0.84-4.2,0.84-7.56v-69.44c0-3.45-0.28-6-0.84-7.63c-0.56-1.63-1.66-2.75-3.29-3.36c-1.63-0.61-4.04-0.96-7.21-1.05
			v-2.8c1.96,0.09,4.53,0.19,7.7,0.28c3.17,0.09,6.58,0.14,10.22,0.14c3.27,0,6.51-0.05,9.73-0.14c3.22-0.09,5.9-0.19,8.05-0.28v2.8
			c-3.17,0.09-5.58,0.44-7.21,1.05c-1.63,0.61-2.73,1.73-3.29,3.36c-0.56,1.63-0.84,4.18-0.84,7.63v69.44
			c0,3.36,0.28,5.88,0.84,7.56c0.56,1.68,1.66,2.8,3.29,3.36c1.63,0.56,4.04,0.93,7.21,1.12v2.8c-2.15-0.19-4.83-0.3-8.05-0.35
			c-3.22-0.05-6.46-0.07-9.73-0.07c-3.64,0-7.05,0.02-10.22,0.07C644.3,1202.62,641.73,1202.73,639.77,1202.92z M659.23,1154.48
			v-2.8h55.3v2.8H659.23z M698.29,1202.92v-2.8c3.17-0.19,5.58-0.56,7.21-1.12c1.63-0.56,2.73-1.68,3.29-3.36
			c0.56-1.68,0.84-4.2,0.84-7.56v-69.44c0-3.45-0.28-6-0.84-7.63c-0.56-1.63-1.66-2.75-3.29-3.36c-1.63-0.61-4.04-0.96-7.21-1.05
			v-2.8c2.15,0.09,4.85,0.19,8.12,0.28c3.27,0.09,6.49,0.14,9.66,0.14c3.64,0,7.05-0.05,10.22-0.14c3.17-0.09,5.74-0.19,7.7-0.28
			v2.8c-3.17,0.09-5.58,0.44-7.21,1.05c-1.63,0.61-2.73,1.73-3.29,3.36c-0.56,1.63-0.84,4.18-0.84,7.63v69.44
			c0,3.36,0.28,5.88,0.84,7.56c0.56,1.68,1.66,2.8,3.29,3.36c1.63,0.56,4.04,0.93,7.21,1.12v2.8c-1.96-0.19-4.53-0.3-7.7-0.35
			c-3.17-0.05-6.58-0.07-10.22-0.07c-3.17,0-6.39,0.02-9.66,0.07C703.14,1202.62,700.44,1202.73,698.29,1202.92z"/>
		<path class="st0" d="M813.09,1103.1l34.16,88.06c1.4,3.55,2.99,5.9,4.76,7.07c1.77,1.17,3.41,1.8,4.9,1.89v2.8
			c-1.87-0.19-4.15-0.3-6.86-0.35c-2.71-0.05-5.41-0.07-8.12-0.07c-3.64,0-7.05,0.02-10.22,0.07c-3.17,0.05-5.74,0.16-7.7,0.35v-2.8
			c4.76-0.19,7.79-1,9.1-2.45c1.31-1.45,1.03-4.55-0.84-9.31l-26.04-69.58l2.24-1.82l-24.36,63.28c-1.96,5.04-2.89,8.98-2.8,11.83
			c0.09,2.85,1.17,4.88,3.22,6.09c2.05,1.21,5.04,1.87,8.96,1.96v2.8c-2.61-0.19-5.34-0.3-8.19-0.35c-2.85-0.05-5.48-0.07-7.91-0.07
			c-2.33,0-4.32,0.02-5.95,0.07c-1.63,0.05-3.15,0.16-4.55,0.35v-2.8c1.87-0.47,3.78-1.56,5.74-3.29c1.96-1.73,3.73-4.69,5.32-8.89
			l32.9-84.84c0.37,0,0.75,0,1.12,0C812.34,1103.1,812.72,1103.1,813.09,1103.1z M830.17,1162.6v2.8h-41.72l1.4-2.8H830.17z"/>
	</g>
	<g>
		<path class="st0" d="M421.44,1247.69c0.7,0.03,1.62,0.07,2.75,0.1c1.13,0.03,2.25,0.05,3.35,0.05c1.47,0,2.88-0.02,4.22-0.05
			c1.35-0.03,2.29-0.05,2.83-0.05c3.33,0,5.84,0.64,7.52,1.92c1.68,1.28,2.52,2.92,2.52,4.92c0,1.47-0.52,2.86-1.57,4.17
			c-1.05,1.32-2.89,2.33-5.52,3.03v0.1c2.5,0.3,4.46,0.87,5.88,1.7c1.42,0.83,2.41,1.8,2.97,2.9c0.57,1.1,0.85,2.23,0.85,3.4
			c0,2.4-1.02,4.37-3.05,5.9c-2.03,1.53-4.85,2.3-8.45,2.3c-0.7,0-1.74-0.02-3.12-0.08c-1.38-0.05-3.04-0.07-4.98-0.07
			c-1.17,0-2.32,0.01-3.45,0.02c-1.13,0.02-2.05,0.06-2.75,0.12v-1c1.13-0.07,1.99-0.2,2.57-0.4c0.58-0.2,0.98-0.6,1.18-1.2
			c0.2-0.6,0.3-1.5,0.3-2.7v-19.8c0-1.23-0.1-2.15-0.3-2.75c-0.2-0.6-0.59-1-1.18-1.2c-0.58-0.2-1.44-0.32-2.57-0.35V1247.69z
			 M433.34,1248.69c-1.33,0-2.2,0.28-2.6,0.85c-0.4,0.57-0.6,1.72-0.6,3.45v19.8c0,1.73,0.21,2.86,0.62,3.38
			c0.42,0.52,1.29,0.78,2.62,0.78c3.1,0,5.35-0.62,6.75-1.88c1.4-1.25,2.1-3.04,2.1-5.38c0-2.27-0.65-4.01-1.95-5.23
			c-1.3-1.22-3.45-1.83-6.45-1.83h-4.65v-0.85h3.8c1.83,0,3.24-0.29,4.23-0.88c0.98-0.58,1.67-1.38,2.05-2.4
			c0.38-1.02,0.58-2.14,0.58-3.38c0-2.1-0.5-3.7-1.5-4.8C437.34,1249.24,435.68,1248.69,433.34,1248.69z"/>
		<path class="st0" d="M480.14,1247.69c-0.13,1.07-0.22,2.1-0.27,3.1c-0.05,1-0.07,1.77-0.07,2.3c0,1.3,0.05,2.33,0.15,3.1h-1.15
			c-0.23-2.77-0.81-4.68-1.73-5.75c-0.92-1.07-2.41-1.6-4.48-1.6h-3.65c-1.13,0-1.99,0.09-2.58,0.28c-0.58,0.18-0.98,0.57-1.17,1.15
			c-0.2,0.58-0.3,1.49-0.3,2.73v19.8c0,1.2,0.1,2.1,0.3,2.7c0.2,0.6,0.59,0.99,1.17,1.17c0.58,0.18,1.44,0.28,2.58,0.28h3.65
			c2.47,0,4.22-0.61,5.25-1.83c1.03-1.22,1.68-3.39,1.95-6.53h1.15c-0.1,0.9-0.15,2.1-0.15,3.6c0,0.57,0.02,1.4,0.07,2.5
			c0.05,1.1,0.14,2.23,0.27,3.4c-1.63-0.07-3.47-0.11-5.5-0.12c-2.03-0.02-3.85-0.02-5.45-0.02c-0.97,0-2.25,0-3.85,0
			s-3.29,0.01-5.08,0.02c-1.78,0.02-3.47,0.06-5.07,0.12v-1c1.13-0.07,1.99-0.2,2.57-0.4c0.58-0.2,0.98-0.6,1.18-1.2
			c0.2-0.6,0.3-1.5,0.3-2.7v-19.8c0-1.23-0.1-2.14-0.3-2.73c-0.2-0.58-0.59-0.98-1.18-1.2c-0.58-0.22-1.44-0.34-2.57-0.38v-1
			c1.6,0.03,3.29,0.07,5.07,0.1s3.48,0.05,5.08,0.05s2.88,0,3.85,0c1.47,0,3.12-0.01,4.98-0.02
			C477.02,1247.8,478.68,1247.76,480.14,1247.69z M472.89,1262.29v1h-9.5v-1H472.89z M474.34,1257.19
			c-0.13,1.53-0.19,2.68-0.17,3.45c0.02,0.77,0.02,1.48,0.02,2.15c0,0.67,0.02,1.38,0.05,2.15c0.03,0.77,0.12,1.92,0.25,3.45h-1.15
			c-0.1-0.83-0.27-1.63-0.5-2.4c-0.23-0.77-0.63-1.41-1.2-1.92c-0.57-0.52-1.43-0.78-2.6-0.78v-1c1.17,0,2.02-0.3,2.57-0.9
			c0.55-0.6,0.93-1.3,1.12-2.1c0.2-0.8,0.35-1.5,0.45-2.1H474.34z"/>
		<path class="st0" d="M516.79,1247.69v1c-1.13,0.03-1.99,0.16-2.58,0.38c-0.58,0.22-0.98,0.62-1.17,1.2
			c-0.2,0.58-0.3,1.49-0.3,2.73v19.8c0,1.83,0.25,3.01,0.75,3.53s1.6,0.77,3.3,0.77h1.55c-0.13,1.17-0.23,2.3-0.27,3.4
			c-0.05,1.1-0.08,1.93-0.08,2.5c0,1.3,0.05,2.33,0.15,3.1h-1.15c-0.2-1.97-0.48-3.53-0.85-4.7c-0.37-1.17-0.99-2.01-1.88-2.52
			c-0.88-0.52-2.21-0.78-3.97-0.78h-13.25c-1.77,0-3.09,0.26-3.98,0.78c-0.88,0.52-1.5,1.36-1.85,2.52s-0.64,2.73-0.88,4.7h-1.15
			c0.1-0.77,0.15-1.8,0.15-3.1c0-0.57-0.02-1.4-0.08-2.5c-0.05-1.1-0.14-2.23-0.27-3.4h15.05c1.7,0,2.8-0.26,3.3-0.77
			s0.75-1.69,0.75-3.53v-19.8c0-1.87-0.22-3.05-0.65-3.55c-0.43-0.5-1.4-0.75-2.9-0.75h-0.65c-1.03,0-1.78,0.11-2.25,0.32
			c-0.47,0.22-0.77,0.63-0.92,1.25c-0.15,0.62-0.27,1.53-0.38,2.73c-0.2,1.87-0.39,3.92-0.58,6.15c-0.18,2.23-0.45,4.46-0.8,6.68
			s-0.87,4.25-1.55,6.1c-0.68,1.85-1.62,3.33-2.83,4.45c-1.2,1.12-2.77,1.67-4.7,1.67v-0.95c1.53,0,2.82-0.48,3.85-1.45
			c1.03-0.97,1.88-2.27,2.52-3.9c0.65-1.63,1.16-3.49,1.53-5.58c0.37-2.08,0.65-4.26,0.85-6.53c0.2-2.27,0.38-4.48,0.55-6.65
			c0.13-1.77-0.06-2.91-0.58-3.42c-0.52-0.52-1.67-0.81-3.48-0.88v-1c0.7,0.03,1.53,0.07,2.5,0.1s1.85,0.05,2.65,0.05
			c0.6,0,1.17-0.02,1.72-0.08c0.55-0.05,1.11-0.07,1.68-0.07c0.87,0,1.66,0.02,2.38,0.05c0.72,0.03,1.46,0.06,2.23,0.08
			c0.77,0.02,1.62,0.02,2.55,0.02c0.97,0,2.02-0.02,3.17-0.05C515.17,1247.76,516.09,1247.72,516.79,1247.69z"/>
		<path class="st0" d="M550.44,1247.69c-0.13,1.07-0.22,2.1-0.27,3.1c-0.05,1-0.07,1.77-0.07,2.3c0,1.3,0.05,2.33,0.15,3.1h-1.15
			c-0.23-2.77-0.81-4.68-1.73-5.75c-0.92-1.07-2.41-1.6-4.48-1.6h-3.65c-1.13,0-1.99,0.09-2.58,0.28c-0.58,0.18-0.98,0.57-1.17,1.15
			c-0.2,0.58-0.3,1.49-0.3,2.73v19.8c0,1.2,0.1,2.1,0.3,2.7c0.2,0.6,0.59,0.99,1.17,1.17c0.58,0.18,1.44,0.28,2.58,0.28h3.65
			c2.47,0,4.22-0.61,5.25-1.83c1.03-1.22,1.68-3.39,1.95-6.53h1.15c-0.1,0.9-0.15,2.1-0.15,3.6c0,0.57,0.02,1.4,0.07,2.5
			c0.05,1.1,0.14,2.23,0.27,3.4c-1.63-0.07-3.47-0.11-5.5-0.12c-2.03-0.02-3.85-0.02-5.45-0.02c-0.97,0-2.25,0-3.85,0
			s-3.29,0.01-5.08,0.02c-1.78,0.02-3.47,0.06-5.07,0.12v-1c1.13-0.07,1.99-0.2,2.57-0.4c0.58-0.2,0.98-0.6,1.18-1.2
			c0.2-0.6,0.3-1.5,0.3-2.7v-19.8c0-1.23-0.1-2.14-0.3-2.73c-0.2-0.58-0.59-0.98-1.18-1.2c-0.58-0.22-1.44-0.34-2.57-0.38v-1
			c1.6,0.03,3.29,0.07,5.07,0.1s3.48,0.05,5.08,0.05s2.88,0,3.85,0c1.47,0,3.12-0.01,4.98-0.02
			C547.32,1247.8,548.98,1247.76,550.44,1247.69z M543.19,1262.29v1h-9.5v-1H543.19z M544.64,1257.19
			c-0.13,1.53-0.19,2.68-0.17,3.45c0.02,0.77,0.02,1.48,0.02,2.15c0,0.67,0.02,1.38,0.05,2.15c0.03,0.77,0.12,1.92,0.25,3.45h-1.15
			c-0.1-0.83-0.27-1.63-0.5-2.4c-0.23-0.77-0.63-1.41-1.2-1.92c-0.57-0.52-1.43-0.78-2.6-0.78v-1c1.17,0,2.02-0.3,2.57-0.9
			c0.55-0.6,0.93-1.3,1.12-2.1c0.2-0.8,0.35-1.5,0.45-2.1H544.64z"/>
		<path class="st0" d="M561.24,1247.69c0.7,0.03,1.62,0.07,2.75,0.1c1.13,0.03,2.25,0.05,3.35,0.05c1.57,0,3.07-0.02,4.5-0.05
			c1.43-0.03,2.45-0.05,3.05-0.05c3.67,0,6.42,0.77,8.27,2.33c1.85,1.55,2.77,3.56,2.77,6.02c0,1.07-0.2,2.17-0.6,3.3
			c-0.4,1.13-1.07,2.18-2,3.15c-0.93,0.97-2.22,1.75-3.85,2.35c-1.63,0.6-3.7,0.9-6.2,0.9h-4.3v-1h3.8c2.23,0,3.93-0.38,5.1-1.12
			c1.17-0.75,1.97-1.75,2.4-3c0.43-1.25,0.65-2.59,0.65-4.03c0-2.63-0.55-4.62-1.65-5.95s-2.98-2-5.65-2c-1.53,0-2.53,0.28-3,0.85
			c-0.47,0.57-0.7,1.72-0.7,3.45v19.8c0,1.2,0.1,2.1,0.3,2.7c0.2,0.6,0.59,1,1.17,1.2c0.58,0.2,1.44,0.33,2.58,0.4v1
			c-0.77-0.07-1.73-0.11-2.88-0.12c-1.15-0.02-2.31-0.02-3.48-0.02c-1.3,0-2.52,0.01-3.65,0.02c-1.13,0.02-2.05,0.06-2.75,0.12v-1
			c1.13-0.07,1.99-0.2,2.57-0.4c0.58-0.2,0.98-0.6,1.18-1.2c0.2-0.6,0.3-1.5,0.3-2.7v-19.8c0-1.23-0.1-2.14-0.3-2.73
			c-0.2-0.58-0.59-0.98-1.18-1.2c-0.58-0.22-1.44-0.34-2.57-0.38V1247.69z"/>
		<path class="st0" d="M626.99,1247.69v1c-1.13,0.03-1.99,0.16-2.58,0.38c-0.58,0.22-0.97,0.62-1.17,1.2
			c-0.2,0.58-0.3,1.49-0.3,2.73v19.8c0,1.2,0.1,2.1,0.3,2.7c0.2,0.6,0.59,1,1.17,1.2c0.58,0.2,1.44,0.33,2.58,0.4v1
			c-0.7-0.07-1.62-0.11-2.75-0.12c-1.13-0.02-2.35-0.02-3.65-0.02c-1.13,0-2.28,0.01-3.45,0.02c-1.17,0.02-2.13,0.06-2.9,0.12v-1
			c1.13-0.07,1.99-0.2,2.58-0.4c0.58-0.2,0.97-0.6,1.17-1.2c0.2-0.6,0.3-1.5,0.3-2.7v-9.95h-15.25v9.95c0,1.2,0.1,2.1,0.3,2.7
			c0.2,0.6,0.59,1,1.17,1.2c0.58,0.2,1.44,0.33,2.58,0.4v1c-0.77-0.07-1.73-0.11-2.88-0.12c-1.15-0.02-2.31-0.02-3.48-0.02
			c-1.3,0-2.52,0.01-3.65,0.02c-1.13,0.02-2.05,0.06-2.75,0.12v-1c1.13-0.07,1.99-0.2,2.57-0.4c0.58-0.2,0.98-0.6,1.18-1.2
			c0.2-0.6,0.3-1.5,0.3-2.7v-19.8c0-1.23-0.1-2.14-0.3-2.73c-0.2-0.58-0.59-0.98-1.18-1.2c-0.58-0.22-1.44-0.34-2.57-0.38v-1
			c0.7,0.03,1.62,0.07,2.75,0.1c1.13,0.03,2.35,0.05,3.65,0.05c1.17,0,2.33-0.02,3.48-0.05s2.11-0.07,2.88-0.1v1
			c-1.13,0.03-1.99,0.16-2.58,0.38c-0.58,0.22-0.98,0.62-1.17,1.2c-0.2,0.58-0.3,1.49-0.3,2.73v8.85h15.25v-8.85
			c0-1.23-0.1-2.14-0.3-2.73c-0.2-0.58-0.59-0.98-1.17-1.2c-0.58-0.22-1.44-0.34-2.58-0.38v-1c0.77,0.03,1.73,0.07,2.9,0.1
			c1.17,0.03,2.32,0.05,3.45,0.05c1.3,0,2.52-0.02,3.65-0.05C625.38,1247.76,626.29,1247.72,626.99,1247.69z"/>
		<path class="st0" d="M648.94,1247.69v1c-1.13,0.03-1.99,0.16-2.57,0.38c-0.58,0.22-0.98,0.62-1.18,1.2
			c-0.2,0.58-0.3,1.49-0.3,2.73v19.8c0,1.2,0.1,2.1,0.3,2.7c0.2,0.6,0.59,1,1.18,1.2c0.58,0.2,1.44,0.33,2.57,0.4v1
			c-0.77-0.07-1.72-0.11-2.88-0.12c-1.15-0.02-2.31-0.02-3.47-0.02c-1.3,0-2.52,0.01-3.65,0.02c-1.13,0.02-2.05,0.06-2.75,0.12v-1
			c1.13-0.07,1.99-0.2,2.58-0.4c0.58-0.2,0.98-0.6,1.17-1.2c0.2-0.6,0.3-1.5,0.3-2.7v-19.8c0-1.23-0.1-2.14-0.3-2.73
			c-0.2-0.58-0.59-0.98-1.17-1.2s-1.44-0.34-2.58-0.38v-1c0.7,0.03,1.62,0.07,2.75,0.1s2.35,0.05,3.65,0.05
			c1.17,0,2.33-0.02,3.47-0.05C647.22,1247.76,648.18,1247.72,648.94,1247.69z M663.24,1249.84c-0.1,0.73-0.22,1.47-0.35,2.2
			l-19.85,23.95c0.13-0.73,0.25-1.45,0.35-2.15L663.24,1249.84z M669.84,1247.69v1c-1.13,0.03-1.99,0.16-2.58,0.38
			s-0.97,0.62-1.17,1.2c-0.2,0.58-0.3,1.49-0.3,2.73v19.8c0,1.2,0.1,2.1,0.3,2.7c0.2,0.6,0.59,1,1.17,1.2
			c0.58,0.2,1.44,0.33,2.58,0.4v1c-0.7-0.07-1.62-0.11-2.75-0.12c-1.13-0.02-2.35-0.02-3.65-0.02c-1.13,0-2.28,0.01-3.45,0.02
			c-1.17,0.02-2.13,0.06-2.9,0.12v-1c1.13-0.07,1.99-0.2,2.58-0.4c0.58-0.2,0.97-0.6,1.17-1.2c0.2-0.6,0.3-1.5,0.3-2.7v-19.8
			c0-1.23-0.1-2.14-0.3-2.73c-0.2-0.58-0.59-0.98-1.17-1.2c-0.58-0.22-1.44-0.34-2.58-0.38v-1c0.77,0.03,1.73,0.07,2.9,0.1
			c1.17,0.03,2.32,0.05,3.45,0.05c1.3,0,2.52-0.02,3.65-0.05C668.23,1247.76,669.14,1247.72,669.84,1247.69z"/>
		<path class="st0" d="M691.79,1247.69v1c-1.13,0.03-1.99,0.16-2.57,0.38c-0.58,0.22-0.98,0.62-1.18,1.2
			c-0.2,0.58-0.3,1.49-0.3,2.73v19.8c0,1.2,0.1,2.1,0.3,2.7c0.2,0.6,0.59,1,1.18,1.2c0.58,0.2,1.44,0.33,2.57,0.4v1
			c-0.77-0.07-1.72-0.11-2.88-0.12c-1.15-0.02-2.31-0.02-3.47-0.02c-1.3,0-2.52,0.01-3.65,0.02c-1.13,0.02-2.05,0.06-2.75,0.12v-1
			c1.13-0.07,1.99-0.2,2.58-0.4c0.58-0.2,0.98-0.6,1.17-1.2c0.2-0.6,0.3-1.5,0.3-2.7v-19.8c0-1.23-0.1-2.14-0.3-2.73
			c-0.2-0.58-0.59-0.98-1.17-1.2s-1.44-0.34-2.58-0.38v-1c0.7,0.03,1.62,0.07,2.75,0.1s2.35,0.05,3.65,0.05
			c1.17,0,2.33-0.02,3.47-0.05C690.07,1247.76,691.03,1247.72,691.79,1247.69z M685.79,1261.79c1.6-0.03,2.88-0.04,3.83-0.03
			c0.95,0.02,1.73,0.04,2.35,0.08c0.62,0.03,1.22,0.1,1.82,0.2c1.13,0.17,2.13,0.4,3,0.7s1.62,0.67,2.28,1.1
			c0.65,0.43,1.18,0.96,1.6,1.58c0.42,0.62,0.73,1.33,0.93,2.12l1.4,5.3c0.37,1.43,0.7,2.48,1,3.15s0.82,0.98,1.55,0.95
			c0.57-0.03,1.04-0.22,1.43-0.55c0.38-0.33,0.79-0.78,1.22-1.35l0.75,0.55c-0.63,0.93-1.33,1.7-2.1,2.3c-0.77,0.6-1.9,0.9-3.4,0.9
			c-0.7,0-1.37-0.12-2-0.35c-0.63-0.23-1.22-0.74-1.78-1.53c-0.55-0.78-1.02-1.96-1.42-3.53l-1.35-5.2
			c-0.27-1.1-0.61-2.06-1.03-2.88s-1.07-1.45-1.95-1.9s-2.17-0.67-3.88-0.67h-4.25V1261.79z M706.79,1247.69v0.95
			c-1.2,0.23-2.22,0.57-3.05,1c-0.83,0.43-1.85,1.3-3.05,2.6l-9.05,9.8l-4.5,0.6v-0.85c1.13-0.07,2.21-0.28,3.22-0.65
			c1.02-0.37,2.14-1.27,3.38-2.7l5.25-5.85c0.63-0.73,1.02-1.39,1.15-1.97c0.13-0.58-0.02-1.05-0.45-1.4
			c-0.43-0.35-1.22-0.54-2.35-0.58v-0.95c0.9,0.03,1.89,0.07,2.97,0.1c1.08,0.03,2.01,0.05,2.78,0.05c0.77,0,1.46-0.02,2.07-0.05
			S706.33,1247.72,706.79,1247.69z"/>
		<path class="st0" d="M732.24,1246.99c3.07,0,5.75,0.61,8.05,1.83c2.3,1.22,4.09,2.98,5.38,5.3c1.28,2.32,1.93,5.14,1.93,8.47
			c0,3.23-0.66,6.07-1.98,8.5c-1.32,2.43-3.13,4.33-5.45,5.67c-2.32,1.35-4.97,2.03-7.97,2.03c-3.07,0-5.75-0.61-8.05-1.83
			c-2.3-1.22-4.09-2.99-5.38-5.33c-1.28-2.33-1.92-5.15-1.92-8.45c0-3.23,0.66-6.07,1.97-8.5c1.32-2.43,3.13-4.33,5.45-5.68
			C726.58,1247.67,729.24,1246.99,732.24,1246.99z M732.04,1247.89c-2.07,0-3.87,0.64-5.4,1.93c-1.53,1.28-2.72,3.06-3.55,5.32
			c-0.83,2.27-1.25,4.88-1.25,7.85c0,3.03,0.47,5.67,1.42,7.9c0.95,2.23,2.22,3.96,3.83,5.18c1.6,1.22,3.37,1.82,5.3,1.82
			c2.07,0,3.87-0.64,5.4-1.92c1.53-1.28,2.72-3.07,3.55-5.35c0.83-2.28,1.25-4.89,1.25-7.83c0-3.07-0.48-5.71-1.43-7.92
			c-0.95-2.22-2.22-3.93-3.8-5.15C735.78,1248.5,734.01,1247.89,732.04,1247.89z"/>
		<path class="st0" d="M756.89,1247.69c0.7,0.03,1.62,0.07,2.75,0.1s2.25,0.05,3.35,0.05c1.47,0,2.88-0.02,4.22-0.05
			c1.35-0.03,2.29-0.05,2.83-0.05c3.33,0,5.84,0.64,7.53,1.92c1.68,1.28,2.52,2.92,2.52,4.92c0,1.47-0.52,2.86-1.58,4.17
			c-1.05,1.32-2.89,2.33-5.52,3.03v0.1c2.5,0.3,4.46,0.87,5.88,1.7c1.42,0.83,2.41,1.8,2.97,2.9c0.57,1.1,0.85,2.23,0.85,3.4
			c0,2.4-1.02,4.37-3.05,5.9s-4.85,2.3-8.45,2.3c-0.7,0-1.74-0.02-3.12-0.08c-1.38-0.05-3.04-0.07-4.98-0.07
			c-1.17,0-2.32,0.01-3.45,0.02c-1.13,0.02-2.05,0.06-2.75,0.12v-1c1.13-0.07,1.99-0.2,2.58-0.4c0.58-0.2,0.98-0.6,1.17-1.2
			c0.2-0.6,0.3-1.5,0.3-2.7v-19.8c0-1.23-0.1-2.15-0.3-2.75c-0.2-0.6-0.59-1-1.17-1.2s-1.44-0.32-2.58-0.35V1247.69z
			 M768.79,1248.69c-1.33,0-2.2,0.28-2.6,0.85c-0.4,0.57-0.6,1.72-0.6,3.45v19.8c0,1.73,0.21,2.86,0.62,3.38
			c0.42,0.52,1.29,0.78,2.62,0.78c3.1,0,5.35-0.62,6.75-1.88c1.4-1.25,2.1-3.04,2.1-5.38c0-2.27-0.65-4.01-1.95-5.23
			c-1.3-1.22-3.45-1.83-6.45-1.83h-4.65v-0.85h3.8c1.83,0,3.24-0.29,4.22-0.88c0.98-0.58,1.67-1.38,2.05-2.4
			c0.38-1.02,0.58-2.14,0.58-3.38c0-2.1-0.5-3.7-1.5-4.8C772.79,1249.24,771.12,1248.69,768.79,1248.69z"/>
		<path class="st0" d="M805.44,1247.44l11.7,26.45c0.57,1.23,1.15,2.07,1.75,2.5c0.6,0.43,1.17,0.67,1.7,0.7v1
			c-0.67-0.07-1.48-0.11-2.45-0.12c-0.97-0.02-1.93-0.02-2.9-0.02c-1.3,0-2.52,0.01-3.65,0.02c-1.13,0.02-2.05,0.06-2.75,0.12v-1
			c1.7-0.07,2.8-0.37,3.3-0.9s0.37-1.63-0.4-3.3l-8.8-19.85l0.45-0.1l-8.05,18c-0.53,1.2-0.81,2.24-0.83,3.12
			c-0.02,0.88,0.28,1.57,0.9,2.07c0.62,0.5,1.61,0.82,2.97,0.95v1c-0.5-0.07-1.16-0.11-1.97-0.12c-0.82-0.02-1.68-0.02-2.58-0.02
			c-0.57,0-1.33,0.01-2.28,0.02c-0.95,0.02-1.64,0.06-2.08,0.12v-1c0.97-0.27,1.77-0.83,2.4-1.67c0.63-0.85,1.2-1.84,1.7-2.97
			l11.05-25c0.13,0,0.27,0,0.4,0C805.17,1247.44,805.31,1247.44,805.44,1247.44z M810.49,1266.19v1h-13.9l0.5-1H810.49z"/>
	</g>
</g>
<rect y="0.5" class="st1" width="1242" height="2207.5"/>
</svg>
