<svg id="Layer_1" data-name="Layer 1" xmlns="http://www.w3.org/2000/svg" viewBox="0 0 1242 2208"><defs><style>.cls-1{fill:#231f20;}.cls-2{fill:none;stroke:#231f20;stroke-miterlimit:10;}</style></defs><title>igor</title><path class="cls-1" d="M384.76,758.18V761a23.69,23.69,0,0,0-7.21,1,5.26,5.26,0,0,0-3.29,3.36,25.38,25.38,0,0,0-.84,7.63v69.44a25.48,25.48,0,0,0,.84,7.56,5.05,5.05,0,0,0,3.29,3.36,29,29,0,0,0,7.21,1.12v2.8c-2.14-.19-4.83-.3-8.05-.35s-6.46-.07-9.73-.07c-3.64,0-7,0-10.22.07s-5.74.16-7.7.35v-2.8a28.85,28.85,0,0,0,7.21-1.12,5,5,0,0,0,3.29-3.36,25.48,25.48,0,0,0,.84-7.56V773a25.38,25.38,0,0,0-.84-7.63,5.24,5.24,0,0,0-3.29-3.36,23.58,23.58,0,0,0-7.21-1v-2.8c2,.09,4.53.19,7.7.28s6.58.14,10.22.14q4.9,0,9.73-.14C379.93,758.37,382.62,758.27,384.76,758.18Zm39.34,9.24q-.27,2.94-.42,6l-56,79.38.42-6Zm22-9.24V761a23.69,23.69,0,0,0-7.21,1,5.26,5.26,0,0,0-3.29,3.36,25.38,25.38,0,0,0-.84,7.63v69.44a25.48,25.48,0,0,0,.84,7.56,5.05,5.05,0,0,0,3.29,3.36,29,29,0,0,0,7.21,1.12v2.8c-2-.19-4.52-.3-7.7-.35s-6.58-.07-10.22-.07q-4.76,0-9.66.07c-3.26,0-6,.16-8.12.35v-2.8a28.85,28.85,0,0,0,7.21-1.12,5,5,0,0,0,3.29-3.36,25.48,25.48,0,0,0,.84-7.56V773a25.38,25.38,0,0,0-.84-7.63,5.24,5.24,0,0,0-3.29-3.36,23.58,23.58,0,0,0-7.21-1v-2.8c2.15.09,4.86.19,8.12.28s6.49.14,9.66.14q5.46,0,10.22-.14C441.56,758.37,444.12,758.27,446.08,758.18Z"/><path class="cls-1" d="M550.1,758.18q-.55,5.33-.77,10.29c-.14,3.31-.21,5.86-.21,7.63q0,3.36.14,6.3c.1,2,.19,3.69.28,5.18h-3.22a87.17,87.17,0,0,0-2.66-15.47,13.54,13.54,0,0,0-5.88-8.19q-4.2-2.52-13-2.52h-3.22a25.7,25.7,0,0,0-7.21.77,4.85,4.85,0,0,0-3.29,3.22,25.38,25.38,0,0,0-.84,7.63v69.44a20.69,20.69,0,0,0,1.05,7.56,5.8,5.8,0,0,0,4.13,3.36,44.56,44.56,0,0,0,9,1.12v2.8c-2.42-.19-5.5-.3-9.24-.35s-7.51-.07-11.34-.07c-3.64,0-7,0-10.22.07s-5.74.16-7.7.35v-2.8a28.85,28.85,0,0,0,7.21-1.12,5,5,0,0,0,3.29-3.36,25.48,25.48,0,0,0,.84-7.56V773a25.38,25.38,0,0,0-.84-7.63,5.24,5.24,0,0,0-3.29-3.36,23.58,23.58,0,0,0-7.21-1v-2.8l14.7.28q7.84.13,14.77.14h11.13q5.19,0,11.83-.07T550.1,758.18Z"/><path class="cls-1" d="M633.82,756.22q13.3,0,23.31,6a40.38,40.38,0,0,1,15.54,17.29q5.54,11.26,5.53,27.37,0,15.68-5.67,27.44a44.32,44.32,0,0,1-15.75,18.34,41.28,41.28,0,0,1-23.1,6.58q-13.3,0-23.31-6a40.28,40.28,0,0,1-15.54-17.36q-5.52-11.34-5.53-27.3,0-15.68,5.74-27.44a45.05,45.05,0,0,1,15.75-18.34A41,41,0,0,1,633.82,756.22Zm-.56,2.52a22.38,22.38,0,0,0-15.82,6.3q-6.72,6.3-10.43,17.36A80.62,80.62,0,0,0,603.3,808q0,14.84,4.13,25.83t11.2,16.94a23.69,23.69,0,0,0,15.61,6,22.37,22.37,0,0,0,15.82-6.3q6.72-6.3,10.43-17.43a80.83,80.83,0,0,0,3.71-25.55q0-15-4.13-25.9t-11.13-16.87A23.56,23.56,0,0,0,633.26,758.74Z"/><path class="cls-1" d="M718.38,758.18c2,.09,4.53.19,7.7.28s6.3.14,9.38.14q6.59,0,12.6-.14c4-.09,6.86-.14,8.54-.14q16.95,0,25.34,7.7t8.4,19.88a36.37,36.37,0,0,1-1.68,10.57,27.37,27.37,0,0,1-5.81,10.22,29.77,29.77,0,0,1-11.27,7.63q-7.14,2.94-18.06,2.94H740.08v-2.8h12q9.95,0,15.19-3.78a18.69,18.69,0,0,0,7.14-9.94,45.15,45.15,0,0,0,1.89-13.3q0-13.31-5.25-19.88t-18-6.58q-6.44,0-8.4,2.38c-1.3,1.59-2,4.81-2,9.66v69.44a20.69,20.69,0,0,0,1,7.56,5.8,5.8,0,0,0,4.13,3.36,44.56,44.56,0,0,0,9,1.12v2.8c-2.42-.19-5.5-.3-9.24-.35s-7.51-.07-11.34-.07c-3.64,0-7,0-10.22.07s-5.74.16-7.7.35v-2.8a28.85,28.85,0,0,0,7.21-1.12,5,5,0,0,0,3.29-3.36,25.48,25.48,0,0,0,.84-7.56V773a25.38,25.38,0,0,0-.84-7.63,5.24,5.24,0,0,0-3.29-3.36,23.58,23.58,0,0,0-7.21-1Z"/><path class="cls-1" d="M866.78,758.18V761a36.27,36.27,0,0,0-9,1,6,6,0,0,0-4.13,3.36,20.61,20.61,0,0,0-1.05,7.63v69.44q0,7.69,1.68,9.87t8.12,2.17q9.38,0,14.28-3.71a18.62,18.62,0,0,0,6.72-9.73,45.41,45.41,0,0,0,1.82-13.16A41.63,41.63,0,0,0,883,813.06a17.39,17.39,0,0,0-7.35-9q-5-3-13.58-3-4.34,0-9.66.14c-3.55.09-6.11.14-7.7.14l-.28-2.66q6.58,0,12.6-.14t8.54-.14q11.34,0,18.83,3.64a25.48,25.48,0,0,1,11.2,9.94,27.92,27.92,0,0,1,3.71,14.42,35.66,35.66,0,0,1-1.68,10.5,27,27,0,0,1-5.81,10.08,29.55,29.55,0,0,1-11.27,7.49q-7.14,2.87-18.06,2.87c-2.15,0-4.57-.07-7.28-.21s-5.69-.21-9-.21q-5.46,0-10.22.07c-3.17,0-5.74.16-7.7.35v-2.8a28.93,28.93,0,0,0,7.21-1.12,5.05,5.05,0,0,0,3.29-3.36,25.48,25.48,0,0,0,.84-7.56V773a25.38,25.38,0,0,0-.84-7.63,5.26,5.26,0,0,0-3.29-3.36,23.64,23.64,0,0,0-7.21-1v-2.8c2,.09,4.53.19,7.7.28s6.58.14,10.22.14q5.74,0,11.34-.14C861.27,758.37,864.35,758.27,866.78,758.18Z"/><path class="cls-1" d="M481.34,892.09v1a8.56,8.56,0,0,0-2.57.38,1.9,1.9,0,0,0-1.18,1.2,9,9,0,0,0-.3,2.72v19.8a9.1,9.1,0,0,0,.3,2.7,1.82,1.82,0,0,0,1.18,1.2,9.93,9.93,0,0,0,2.57.4v1c-.7-.06-1.61-.1-2.75-.12s-2.35,0-3.65,0l-3.45,0c-1.16,0-2.13.06-2.9.12v-1a10,10,0,0,0,2.58-.4,1.8,1.8,0,0,0,1.17-1.2,9.1,9.1,0,0,0,.3-2.7v-10H457.39v10a9.1,9.1,0,0,0,.3,2.7,1.82,1.82,0,0,0,1.18,1.2,9.93,9.93,0,0,0,2.57.4v1c-.76-.06-1.72-.1-2.87-.12s-2.31,0-3.48,0-2.51,0-3.65,0-2.05.06-2.75.12v-1a9.94,9.94,0,0,0,2.58-.4,1.8,1.8,0,0,0,1.17-1.2,9.1,9.1,0,0,0,.3-2.7v-19.8a9,9,0,0,0-.3-2.72,1.89,1.89,0,0,0-1.17-1.2,8.58,8.58,0,0,0-2.58-.38v-1c.7,0,1.62.07,2.75.1s2.35,0,3.65,0,2.33,0,3.48,0,2.11-.06,2.87-.1v1a8.56,8.56,0,0,0-2.57.38,1.9,1.9,0,0,0-1.18,1.2,9,9,0,0,0-.3,2.72v8.85h15.25v-8.85a9,9,0,0,0-.3-2.72,1.89,1.89,0,0,0-1.17-1.2,8.63,8.63,0,0,0-2.58-.38v-1c.77,0,1.74.07,2.9.1s2.32,0,3.45,0c1.3,0,2.52,0,3.65,0S480.64,892.13,481.34,892.09Z"/><path class="cls-1" d="M503.29,892.09v1a8.56,8.56,0,0,0-2.57.38,1.9,1.9,0,0,0-1.18,1.2,9,9,0,0,0-.3,2.72v19.8a9.1,9.1,0,0,0,.3,2.7,1.82,1.82,0,0,0,1.18,1.2,9.93,9.93,0,0,0,2.57.4v1c-.76-.06-1.72-.1-2.87-.12s-2.31,0-3.48,0-2.51,0-3.65,0-2.05.06-2.75.12v-1a9.94,9.94,0,0,0,2.58-.4,1.8,1.8,0,0,0,1.17-1.2,9.1,9.1,0,0,0,.3-2.7v-19.8a9,9,0,0,0-.3-2.72,1.89,1.89,0,0,0-1.17-1.2,8.58,8.58,0,0,0-2.58-.38v-1c.7,0,1.62.07,2.75.1s2.35,0,3.65,0,2.33,0,3.48,0S502.53,892.13,503.29,892.09Zm14.3,2.15c-.1.74-.21,1.47-.35,2.2l-19.85,23.95c.14-.73.25-1.45.35-2.15Zm6.6-2.15v1a8.56,8.56,0,0,0-2.57.38,1.9,1.9,0,0,0-1.18,1.2,9,9,0,0,0-.3,2.72v19.8a9.1,9.1,0,0,0,.3,2.7,1.82,1.82,0,0,0,1.18,1.2,9.93,9.93,0,0,0,2.57.4v1c-.7-.06-1.61-.1-2.75-.12s-2.35,0-3.65,0l-3.45,0c-1.16,0-2.13.06-2.9.12v-1a9.94,9.94,0,0,0,2.58-.4,1.8,1.8,0,0,0,1.17-1.2,9.1,9.1,0,0,0,.3-2.7v-19.8a9,9,0,0,0-.3-2.72,1.89,1.89,0,0,0-1.17-1.2,8.58,8.58,0,0,0-2.58-.38v-1c.77,0,1.74.07,2.9.1s2.32,0,3.45,0c1.3,0,2.52,0,3.65,0S523.49,892.13,524.19,892.09Z"/><path class="cls-1" d="M546.14,892.09v1a8.56,8.56,0,0,0-2.57.38,1.88,1.88,0,0,0-1.18,1.2,9,9,0,0,0-.3,2.72v19.8a9.1,9.1,0,0,0,.3,2.7,1.8,1.8,0,0,0,1.18,1.2,9.93,9.93,0,0,0,2.57.4v1c-.76-.06-1.72-.1-2.87-.12s-2.31,0-3.48,0-2.51,0-3.65,0-2,.06-2.75.12v-1a10,10,0,0,0,2.58-.4,1.8,1.8,0,0,0,1.17-1.2,9.1,9.1,0,0,0,.3-2.7v-19.8a9,9,0,0,0-.3-2.72,1.89,1.89,0,0,0-1.17-1.2,8.63,8.63,0,0,0-2.58-.38v-1c.7,0,1.62.07,2.75.1s2.35,0,3.65,0,2.33,0,3.48,0S545.38,892.13,546.14,892.09Zm-6,14.1c1.6,0,2.88,0,3.83,0s1.73,0,2.35.07a18.09,18.09,0,0,1,1.82.2,16.61,16.61,0,0,1,3,.7,10.07,10.07,0,0,1,2.28,1.1,5.87,5.87,0,0,1,1.6,1.58,6.56,6.56,0,0,1,.92,2.12l1.4,5.3a20.89,20.89,0,0,0,1,3.15,1.48,1.48,0,0,0,1.55,1,2.25,2.25,0,0,0,1.43-.55,8.87,8.87,0,0,0,1.22-1.35l.75.55a9.77,9.77,0,0,1-2.1,2.3,5.43,5.43,0,0,1-3.4.9,5.62,5.62,0,0,1-2-.35,3.92,3.92,0,0,1-1.77-1.52,11,11,0,0,1-1.43-3.53l-1.35-5.2a13.16,13.16,0,0,0-1-2.87,4.32,4.32,0,0,0-2-1.9,8.82,8.82,0,0,0-3.88-.68h-4.25Zm21-14.1V893a11.74,11.74,0,0,0-3,1,12.68,12.68,0,0,0-3.05,2.6l-9,9.8-4.5.6v-.85a11.11,11.11,0,0,0,3.23-.65,8.76,8.76,0,0,0,3.37-2.7l5.25-5.85a4.75,4.75,0,0,0,1.15-2,1.27,1.27,0,0,0-.45-1.4,4.09,4.09,0,0,0-2.35-.58v-.95l3,.1c1.08,0,2,0,2.77,0s1.46,0,2.08,0S560.68,892.13,561.14,892.09Z"/><path class="cls-1" d="M584.24,892.09v1a8.56,8.56,0,0,0-2.57.38,1.88,1.88,0,0,0-1.18,1.2,9,9,0,0,0-.3,2.72v19.8a9.1,9.1,0,0,0,.3,2.7,1.8,1.8,0,0,0,1.18,1.2,9.93,9.93,0,0,0,2.57.4v1c-.76-.06-1.72-.1-2.87-.12s-2.31,0-3.48,0-2.51,0-3.65,0-2,.06-2.75.12v-1a10,10,0,0,0,2.58-.4,1.8,1.8,0,0,0,1.17-1.2,9.1,9.1,0,0,0,.3-2.7v-19.8a9,9,0,0,0-.3-2.72,1.89,1.89,0,0,0-1.17-1.2,8.63,8.63,0,0,0-2.58-.38v-1c.7,0,1.62.07,2.75.1s2.35,0,3.65,0,2.33,0,3.48,0S583.48,892.13,584.24,892.09Zm14.3,2.15c-.1.74-.21,1.47-.35,2.2l-19.85,23.95c.14-.73.25-1.45.35-2.15Zm6.6-2.15v1a8.56,8.56,0,0,0-2.57.38,1.88,1.88,0,0,0-1.18,1.2,9,9,0,0,0-.3,2.72v19.8a9.1,9.1,0,0,0,.3,2.7,1.8,1.8,0,0,0,1.18,1.2,9.93,9.93,0,0,0,2.57.4v1c-.7-.06-1.61-.1-2.75-.12s-2.35,0-3.65,0l-3.45,0c-1.16,0-2.13.06-2.9.12v-1a10,10,0,0,0,2.58-.4,1.8,1.8,0,0,0,1.17-1.2,9.1,9.1,0,0,0,.3-2.7v-19.8a9,9,0,0,0-.3-2.72,1.89,1.89,0,0,0-1.17-1.2,8.63,8.63,0,0,0-2.58-.38v-1c.77,0,1.74.07,2.9.1s2.32,0,3.45,0c1.3,0,2.52,0,3.65,0S604.44,892.13,605.14,892.09Z"/><path class="cls-1" d="M631.24,894.89a28.66,28.66,0,0,1,9.38,1.4,13.93,13.93,0,0,1,6.25,4.08,10,10,0,0,1,2.22,6.62,10.37,10.37,0,0,1-2.27,6.65,14.84,14.84,0,0,1-6.33,4.45,25.11,25.11,0,0,1-9.3,1.6,27.49,27.49,0,0,1-9.37-1.45,13.48,13.48,0,0,1-6.25-4.27,10.74,10.74,0,0,1-2.23-6.88,9.71,9.71,0,0,1,2.3-6.4,15,15,0,0,1,6.33-4.27A26,26,0,0,1,631.24,894.89Zm-.2.9a14.83,14.83,0,0,0-6.7,1.43,10.82,10.82,0,0,0-4.42,3.92,10.58,10.58,0,0,0-1.58,5.75,11.12,11.12,0,0,0,6.43,10.45,14.85,14.85,0,0,0,6.62,1.45,14.18,14.18,0,0,0,6.7-1.5,11,11,0,0,0,4.43-4.12,11.38,11.38,0,0,0,1.57-6,10.64,10.64,0,0,0-1.72-6.1,11.26,11.26,0,0,0-4.68-3.92A15.48,15.48,0,0,0,631,895.79Zm6.5-7.2v1A8.56,8.56,0,0,0,635,890a1.88,1.88,0,0,0-1.18,1.2,9,9,0,0,0-.3,2.72v26.8a9.1,9.1,0,0,0,.3,2.7,1.8,1.8,0,0,0,1.18,1.2,9.93,9.93,0,0,0,2.57.4v1c-.76-.06-1.72-.1-2.87-.12s-2.31,0-3.48,0-2.51,0-3.65,0-2,.06-2.75.12v-1a10,10,0,0,0,2.58-.4,1.8,1.8,0,0,0,1.17-1.2,9.1,9.1,0,0,0,.3-2.7v-26.8a9,9,0,0,0-.3-2.72,1.89,1.89,0,0,0-1.17-1.2,8.63,8.63,0,0,0-2.58-.38v-1c.7,0,1.62.07,2.75.1s2.35,0,3.65,0,2.33,0,3.48,0S636.78,888.63,637.54,888.59Z"/><path class="cls-1" d="M673.59,891.39a16.92,16.92,0,0,1,8,1.83,13,13,0,0,1,5.38,5.3,17.3,17.3,0,0,1,1.92,8.47,17.64,17.64,0,0,1-2,8.5,14.33,14.33,0,0,1-5.45,5.68,15.57,15.57,0,0,1-8,2,16.92,16.92,0,0,1-8-1.82,12.89,12.89,0,0,1-5.37-5.33,17.22,17.22,0,0,1-1.93-8.45,17.58,17.58,0,0,1,2-8.5,14.24,14.24,0,0,1,5.45-5.67A15.51,15.51,0,0,1,673.59,891.39Zm-.2.9a8.18,8.18,0,0,0-5.4,1.93,12.29,12.29,0,0,0-3.55,5.32,22.81,22.81,0,0,0-1.25,7.85,20,20,0,0,0,1.43,7.9,12.42,12.42,0,0,0,3.82,5.18,8.54,8.54,0,0,0,5.3,1.82,8.15,8.15,0,0,0,5.4-1.92,12.28,12.28,0,0,0,3.55-5.35,22.81,22.81,0,0,0,1.25-7.83,20.05,20.05,0,0,0-1.42-7.92,12.58,12.58,0,0,0-3.8-5.15A8.53,8.53,0,0,0,673.39,892.29Z"/><path class="cls-1" d="M698.24,892.09c.7,0,1.62.07,2.75.1s2.25,0,3.35,0c1.57,0,3.07,0,4.5,0l3-.05q5.5,0,8.28,2.33a7.49,7.49,0,0,1,2.77,6,9.86,9.86,0,0,1-.6,3.3,8.5,8.5,0,0,1-2,3.15,10,10,0,0,1-3.85,2.35,18.18,18.18,0,0,1-6.2.9H706v-1h3.8a9.46,9.46,0,0,0,5.1-1.12,5.69,5.69,0,0,0,2.4-3,12,12,0,0,0,.65-4q0-3.94-1.65-5.95t-5.65-2c-1.53,0-2.53.29-3,.85a5.9,5.9,0,0,0-.7,3.45v19.8a9.1,9.1,0,0,0,.3,2.7,1.8,1.8,0,0,0,1.18,1.2,9.93,9.93,0,0,0,2.57.4v1c-.76-.06-1.72-.1-2.87-.12s-2.31,0-3.48,0-2.52,0-3.65,0-2,.06-2.75.12v-1a10,10,0,0,0,2.58-.4,1.8,1.8,0,0,0,1.17-1.2,9.1,9.1,0,0,0,.3-2.7v-19.8a9,9,0,0,0-.3-2.72,1.89,1.89,0,0,0-1.17-1.2,8.63,8.63,0,0,0-2.58-.38Z"/><path class="cls-1" d="M747.49,891.39a16.92,16.92,0,0,1,8,1.83,13,13,0,0,1,5.38,5.3,17.3,17.3,0,0,1,1.92,8.47,17.64,17.64,0,0,1-2,8.5,14.33,14.33,0,0,1-5.45,5.68,15.57,15.57,0,0,1-8,2,17,17,0,0,1-8.05-1.82A12.89,12.89,0,0,1,734,916a17.22,17.22,0,0,1-1.93-8.45,17.58,17.58,0,0,1,2-8.5,14.24,14.24,0,0,1,5.45-5.67A15.51,15.51,0,0,1,747.49,891.39Zm-.2.9a8.18,8.18,0,0,0-5.4,1.93,12.29,12.29,0,0,0-3.55,5.32,22.81,22.81,0,0,0-1.25,7.85,20,20,0,0,0,1.43,7.9,12.42,12.42,0,0,0,3.82,5.18,8.54,8.54,0,0,0,5.3,1.82,8.15,8.15,0,0,0,5.4-1.92,12.19,12.19,0,0,0,3.55-5.35,22.81,22.81,0,0,0,1.25-7.83,20.05,20.05,0,0,0-1.42-7.92,12.58,12.58,0,0,0-3.8-5.15A8.53,8.53,0,0,0,747.29,892.29Z"/><path class="cls-1" d="M772.14,892.09c.7,0,1.62.07,2.75.1s2.25,0,3.35,0c1.47,0,2.88,0,4.23,0l2.82-.05c3.34,0,5.84.65,7.53,1.93a5.93,5.93,0,0,1,2.52,4.92,6.6,6.6,0,0,1-1.57,4.18c-1,1.32-2.89,2.32-5.53,3v.1a15.41,15.41,0,0,1,5.88,1.7,7.47,7.47,0,0,1,3,2.9,7.32,7.32,0,0,1,.85,3.4,7.06,7.06,0,0,1-3.05,5.9c-2,1.54-4.85,2.3-8.45,2.3-.7,0-1.74,0-3.12-.07s-3-.08-5-.08q-1.74,0-3.45,0c-1.13,0-2,.06-2.75.12v-1a10,10,0,0,0,2.58-.4,1.8,1.8,0,0,0,1.17-1.2,9.1,9.1,0,0,0,.3-2.7v-19.8a9.34,9.34,0,0,0-.3-2.75,1.8,1.8,0,0,0-1.17-1.2,9.54,9.54,0,0,0-2.58-.35Zm11.9,1c-1.33,0-2.2.29-2.6.85a6.65,6.65,0,0,0-.6,3.45v19.8c0,1.74.21,2.86.63,3.38s1.29.77,2.62.77q4.65,0,6.75-1.87a8,8,0,0,0,.15-10.6Q789,907,784.54,907h-4.65v-.85h3.8a8.42,8.42,0,0,0,4.23-.87,4.66,4.66,0,0,0,2.05-2.4,9.59,9.59,0,0,0,.57-3.38,6.9,6.9,0,0,0-1.5-4.8C788,893.64,786.38,893.09,784,893.09Z"/><rect class="cls-2" x="0.5" y="0.5" width="1242" height="2208"/></svg>