<svg id="Layer_1" data-name="Layer 1" xmlns="http://www.w3.org/2000/svg" viewBox="0 0 1242 2208"><defs><style>.cls-1{fill:#231f20;}.cls-2{fill:none;stroke:#231f20;stroke-miterlimit:10;}</style></defs><title>text</title><path class="cls-1" d="M416.31,1695.74a47.67,47.67,0,0,1-10.5,9.69q-4.92,3.09-8.7,3a4.77,4.77,0,0,1-3.21-1.14,4.12,4.12,0,0,1-1.17-3.18,10.61,10.61,0,0,1,1-3.93,46.35,46.35,0,0,1,2.43-4.92q1.47-2.61,3.21-5.31t3.36-5q1.8-2.7,3.42-5.22t2.79-4.71a39,39,0,0,0,1.86-3.93,8.12,8.12,0,0,0,.69-2.82,2.62,2.62,0,0,0-1.14-2.4,5.43,5.43,0,0,0-2.94-.72,11.64,11.64,0,0,0-2.37.27,18.75,18.75,0,0,0-2.73.81,20.11,20.11,0,0,0-2.91,1.38,17.83,17.83,0,0,0-2.85,2,18.78,18.78,0,0,0-4.62,5.64,12.67,12.67,0,0,0-1.44,5.7,4.77,4.77,0,0,0,1,3.15,3.4,3.4,0,0,0,2.76,1.23,7.46,7.46,0,0,0,3.36-1,15.4,15.4,0,0,0,4.32-4l.48.36a22,22,0,0,1-2.52,2.76,12.81,12.81,0,0,1-2.34,1.71,9.12,9.12,0,0,1-2.25.9,9.24,9.24,0,0,1-2.19.27,5.29,5.29,0,0,1-4-1.47,5.8,5.8,0,0,1-1.44-4.23,12,12,0,0,1,1.83-5.94,18.17,18.17,0,0,1,5.55-5.76,32.28,32.28,0,0,1,4-2.28,30.46,30.46,0,0,1,3.9-1.56,24.92,24.92,0,0,1,3.57-.87,19.43,19.43,0,0,1,3.06-.27,7.82,7.82,0,0,1,5.16,1.47,5.16,5.16,0,0,1,1.74,4.17,9,9,0,0,1-.81,3.42,38.13,38.13,0,0,1-2.19,4.29q-1.38,2.37-3.3,5.19t-4.08,6.06q-4.08,6.06-6.24,9.84t-2.16,5.94a2.21,2.21,0,0,0,2.28,2.34,9.32,9.32,0,0,0,4.62-1.47,37.74,37.74,0,0,0,5.82-4.41,51.88,51.88,0,0,0,5.73-6,62.06,62.06,0,0,0,5.55-7.89l12.9-20.94,6.6-.24-16.62,25.86q-1.86,2.88-3.09,5t-1.95,3.72a16.92,16.92,0,0,0-1,2.7,8.11,8.11,0,0,0-.3,2,3.31,3.31,0,0,0,.33,1.5,1.36,1.36,0,0,0,1.35.66,5.67,5.67,0,0,0,1.77-.33,11.7,11.7,0,0,0,2.28-1.11,28.28,28.28,0,0,0,2.91-2.07q1.62-1.29,3.66-3.21,1.8-1.74,3.87-4t4.23-4.77l.54.42q-2.28,2.7-4.38,5t-3.84,4a44,44,0,0,1-4.92,4.29,19.57,19.57,0,0,1-3.36,2,5.86,5.86,0,0,0-1.59,2.82,15.11,15.11,0,0,0-.39,3.54,16,16,0,0,1-.27,3.21,5.29,5.29,0,0,1-1.11,2.31,7.53,7.53,0,0,1-2.19,1.77,23.64,23.64,0,0,1-3.09,1.41l-3.84,1.38-.18-.6,1.68-.6a7.89,7.89,0,0,0,2-1,4.92,4.92,0,0,0,1.44-1.53,6,6,0,0,0,.66-2.25q.12-1.23.12-2.79a6,6,0,0,1,.51-2.58,6.68,6.68,0,0,1,1.32-1.89,11.23,11.23,0,0,1,1.71-1.41q.9-.6,1.74-1.2V1708a10,10,0,0,1-1.44.3,9.78,9.78,0,0,1-1.26.12,5.06,5.06,0,0,1-3.78-1.29,4.89,4.89,0,0,1-1.26-3.57,10.17,10.17,0,0,1,.72-3.36,22.06,22.06,0,0,1,2.28-4.38Z"/><path class="cls-1" d="M455.79,1687.1l6.24-.36a25.27,25.27,0,0,1-1.56,2.61l-2.22,3.3q-1.2,1.77-2.43,3.66t-2.25,3.66a28.14,28.14,0,0,0-1.65,3.3,7.09,7.09,0,0,0-.63,2.61,1.33,1.33,0,0,0,1.5,1.5,7.78,7.78,0,0,0,3.9-1.68,34.93,34.93,0,0,0,5.16-4.44q1.14-1.14,2.31-2.46t2.25-2.61q1.08-1.29,2-2.4t1.44-1.83l.42.24q-1.56,2.1-3.6,4.65a66.81,66.81,0,0,1-4.92,5.43,36.22,36.22,0,0,1-5.67,4.71,10.07,10.07,0,0,1-5.55,1.83,4.16,4.16,0,0,1-3-1,3.21,3.21,0,0,1-1.05-2.43,6.37,6.37,0,0,1,.06-.9,2.21,2.21,0,0,1,.18-.66h-.12a18.63,18.63,0,0,1-4.2,3.54,9.45,9.45,0,0,1-5,1.44,5.2,5.2,0,0,1-2.46-.54,4.5,4.5,0,0,1-1.65-1.47,6.66,6.66,0,0,1-.93-2.1,9.75,9.75,0,0,1-.3-2.43,12.09,12.09,0,0,1,1.62-5.88,22.25,22.25,0,0,1,4.08-5.31,21.22,21.22,0,0,1,5.49-3.84,13.27,13.27,0,0,1,5.79-1.47,5.39,5.39,0,0,1,3.3.9,6.45,6.45,0,0,1,2,2.82Zm-18,15.36a7.45,7.45,0,0,0,.57,3,2.37,2.37,0,0,0,2.43,1.29,5,5,0,0,0,2.64-1,15.37,15.37,0,0,0,2.67-2.49,29.31,29.31,0,0,0,2.46-3.33,32.11,32.11,0,0,0,2-3.69,27.53,27.53,0,0,0,1.38-3.51,9.76,9.76,0,0,0,.51-2.79,4.51,4.51,0,0,0-.6-2.52,2.62,2.62,0,0,0-2.34-.9,5.42,5.42,0,0,0-2.79.84,12.43,12.43,0,0,0-2.7,2.22,26.07,26.07,0,0,0-2.46,3.09,24.74,24.74,0,0,0-2,3.51,24.14,24.14,0,0,0-1.32,3.45A10.44,10.44,0,0,0,437.79,1702.46Z"/><path class="cls-1" d="M484.77,1674.74l-13.86,21.12.12.12q1.26-1.5,2.67-3.3a28.5,28.5,0,0,1,3.06-3.33,17.24,17.24,0,0,1,3.54-2.55,8.52,8.52,0,0,1,4.11-1,4.54,4.54,0,0,1,3.48,1.41,5.18,5.18,0,0,1,1.32,3.69,12.8,12.8,0,0,1-1.26,5.58,17.84,17.84,0,0,1-3.06,4.56l.12.12a17.39,17.39,0,0,0,4-1.35,24.63,24.63,0,0,0,3.75-2.22,28.5,28.5,0,0,0,3.36-2.82,36.2,36.2,0,0,0,2.82-3.09l.42.42a35.08,35.08,0,0,1-2.7,3,31.53,31.53,0,0,1-3.45,3,23.56,23.56,0,0,1-4.14,2.46,18.36,18.36,0,0,1-4.77,1.47q-1.2,1.08-2.7,2.28a30,30,0,0,1-3.18,2.22,20.81,20.81,0,0,1-3.42,1.68,9.6,9.6,0,0,1-3.42.66,4.49,4.49,0,0,1-2.19-.51,1.79,1.79,0,0,1-.93-1.71,2.41,2.41,0,0,1,1.23-2.07,11,11,0,0,1,3-1.32,29.13,29.13,0,0,1,3.63-.81l3.15-.48q.54-.72,1.23-1.83a22.12,22.12,0,0,0,1.32-2.49,18.54,18.54,0,0,0,1-3,12.75,12.75,0,0,0,.42-3.27,9.11,9.11,0,0,0-.09-1.29,3.46,3.46,0,0,0-.36-1.14,2.09,2.09,0,0,0-.75-.81,2.35,2.35,0,0,0-1.26-.3q-1.8,0-4.2,2.34a48.31,48.31,0,0,0-5.1,6q-2.7,3.69-5.49,8.22t-5.37,8.88q-2.58,4.35-4.71,8t-3.51,5.73l-6.36.24q8-13,16.05-26.1t16-26.16Zm-14,31.68q0,1.32,1.68,1.32a3.54,3.54,0,0,0,1.77-.54,13.28,13.28,0,0,0,1.83-1.29,16.07,16.07,0,0,0,1.68-1.62q.78-.87,1.32-1.59l-2.19.36a25.13,25.13,0,0,0-2.76.63,8.39,8.39,0,0,0-2.34,1A2,2,0,0,0,470.73,1706.42Z"/><path class="cls-1" d="M520.35,1686.5q-2.34,3.9-4.35,7t-3.45,5.43a43.56,43.56,0,0,0-2.25,4.11,7.43,7.43,0,0,0-.81,3.06q0,1.32,1.14,1.32a4.05,4.05,0,0,0,1.74-.51,16.55,16.55,0,0,0,2.16-1.32,26.24,26.24,0,0,0,2.34-1.89q1.2-1.08,2.28-2.16,1.32-1.38,2.61-2.79t2.4-2.73q1.11-1.32,2-2.43t1.5-1.89l.48.36q-1.44,1.92-3.66,4.59t-4.74,5.25a37.68,37.68,0,0,1-5.64,4.86,9.1,9.1,0,0,1-5.1,1.74,3.89,3.89,0,0,1-2.88-1.08,3.66,3.66,0,0,1-1.08-2.7,9,9,0,0,1,.21-2,4.66,4.66,0,0,1,.51-1.38l-.12-.12q-1.08,1.14-2.34,2.43a23.37,23.37,0,0,1-2.7,2.37,15.39,15.39,0,0,1-3.09,1.8,8.83,8.83,0,0,1-3.57.72,3.44,3.44,0,0,1-2.82-1.17,4.17,4.17,0,0,1-1-2.73q0-2.28,2.46-6.6t6.66-11.22l6.36-.24q-4.74,7.26-7.71,11.91t-3,6.93a1.84,1.84,0,0,0,.39,1.2,1.28,1.28,0,0,0,1.05.48,5.54,5.54,0,0,0,2.73-1,20.62,20.62,0,0,0,3.33-2.58,37,37,0,0,0,3.45-3.72,38.52,38.52,0,0,0,3.09-4.38l5.16-8.4Z"/><path class="cls-1" d="M534.51,1701.14q-1.62,1.74-2.94,3a21.85,21.85,0,0,1-2.52,2.1,11.79,11.79,0,0,1-3.24,1.74,9.44,9.44,0,0,1-2.88.48,3.7,3.7,0,0,1-2.91-1.11,4.21,4.21,0,0,1-1-2.91,8.68,8.68,0,0,1,.87-3.36,37.27,37.27,0,0,1,2.25-4.26l6-10.08,6.36-.24-6.78,10.44q-3.9,5.94-3.9,8.28a2.18,2.18,0,0,0,.36,1.29,1.23,1.23,0,0,0,1.08.51,5.58,5.58,0,0,0,2.76-1,21,21,0,0,0,3.3-2.55q.84-.78,1.74-1.74t1.68-1.92q.78-1,1.41-1.83t1-1.47L543,1687l6.18-.48q-2.46,4-4.47,7.14t-3.42,5.46a43.74,43.74,0,0,0-2.19,4,7.09,7.09,0,0,0-.78,2.88q0,1.38,1.14,1.38t3.84-1.83a38,38,0,0,0,5.52-5q1.68-1.8,3.6-4t4.08-4.95l.48.36q-2.1,2.76-4,5t-3.66,4.08a43.77,43.77,0,0,1-4.47,4.26,16.86,16.86,0,0,1-3.57,2.28,5.38,5.38,0,0,0-1.8,2.58,11.19,11.19,0,0,0-.6,3.78,17.67,17.67,0,0,1-.24,3.12,5,5,0,0,1-1.26,2.46,8,8,0,0,1-2.37,1.8q-1.41.72-2.79,1.26l-3.84,1.38-.18-.6,1.8-.66a7.8,7.8,0,0,0,2.16-1.23,3.88,3.88,0,0,0,1.32-1.65,6,6,0,0,0,.54-2.31q.06-1.29.06-2.37a5.18,5.18,0,0,1,.45-2.22,7.22,7.22,0,0,1,1.47-2,10.17,10.17,0,0,1,1.74-1.38q.78-.54,1.53-1l1.05-.63V1708a8.9,8.9,0,0,1-1.14.33,5.69,5.69,0,0,1-1.26.15,4,4,0,0,1-2.94-1,3.71,3.71,0,0,1-1.08-2.79,9,9,0,0,1,.15-1.8,6.5,6.5,0,0,1,.57-1.56Z"/><path class="cls-1" d="M593.61,1692q-1.8,2.34-3.39,4.32t-3.09,3.54a42.32,42.32,0,0,1-7.38,6.69,9.94,9.94,0,0,1-5.16,1.89,4.14,4.14,0,0,1-3-1,3.66,3.66,0,0,1-1.11-2.79,8.51,8.51,0,0,1,1-4q.84-1.62,1.86-3.36l-.54.54a7.49,7.49,0,0,1-2.1,1.44,9.46,9.46,0,0,1-1.74.69l-1.8.45a23.28,23.28,0,0,1-1.23,2.46,10.31,10.31,0,0,1-2.61,2.88,11.28,11.28,0,0,1-4.41,2.19,15.18,15.18,0,0,1-4,.51,17.83,17.83,0,0,1-2.16-.24,5.53,5.53,0,0,1-2-.78,4.41,4.41,0,0,1-1.53-1.62,4.84,4.84,0,0,1-.57-2.4,10.17,10.17,0,0,1,.3-2.16,10.69,10.69,0,0,1,1.14-2.82q.48-.9,1.29-2.16l1.53-2.4,4.5-6.9,6.54-.48-6.72,9.84a36.33,36.33,0,0,0-3.06,5.19,8.82,8.82,0,0,0-.9,3.51,3.29,3.29,0,0,0,.57,1.83,2,2,0,0,0,1.77.87,5.57,5.57,0,0,0,2.85-.75,6.74,6.74,0,0,0,2.19-2.07,10.54,10.54,0,0,0,1.53-3.15,18.39,18.39,0,0,0,.51-2.49q-.18-.24-.51-.78a3,3,0,0,1-.33-1.56,2.82,2.82,0,0,1,1-2.37,3.18,3.18,0,0,1,2-.75,2.7,2.7,0,0,1,2,.87,3.73,3.73,0,0,1,.87,2.73,12.43,12.43,0,0,1-.06,1.29,5.88,5.88,0,0,1-.18,1q.48-.12,1.29-.27a6.56,6.56,0,0,0,1.83-.69,9.92,9.92,0,0,0,2.19-1.53,15.36,15.36,0,0,0,1.71-1.89q.48-.6.9-1.2l.78-1.32,2-3.33q.93-1.53,1.53-2.49l6.18-.48-5,8q-.6,1-1.2,1.86l-1,1.59-.81,1.29a27.05,27.05,0,0,0-2.13,3.93,7.87,7.87,0,0,0-.75,2.91q0,.9.39,1.11a1.58,1.58,0,0,0,.75.21q1.32,0,4.11-2a47.23,47.23,0,0,0,6.45-6q1.44-1.56,3.09-3.48t3.39-4.2Z"/><path class="cls-1" d="M623,1692q-2.1,2.7-4,4.89t-3.48,3.93a34.74,34.74,0,0,1-6.72,5.94,9.82,9.82,0,0,1-5,1.68,5.1,5.1,0,0,1-2.82-.81,3.19,3.19,0,0,1-1.26-2.91,7.78,7.78,0,0,1,.33-2.16,14.1,14.1,0,0,1,.87-2.25q.54-1.11,1.14-2.19.42-.66.78-1.26h-9.12l-.06.12q-1.08,1.8-2.13,3.69t-1.89,3.45q-1,1.86-1.8,3.54l-6.42.36,12.66-21.3,6.36-.24-2.82,4.26-2.28,3.48q-.66,1.14-1.2,1.92h9.18q.18-.36.6-1t.9-1.44q.54-.84,1.08-1.74,1.14-1.74,1.8-2.88T609,1687l6.18-.48-4.08,6.48q-1.26,2-2.31,3.66t-1.83,2.94q-.9,1.44-1.41,2.46a16.77,16.77,0,0,0-.78,1.77,7.94,7.94,0,0,0-.36,1.26,5.13,5.13,0,0,0-.09.87,2.22,2.22,0,0,0,.21,1q.21.39,1,.39a7.76,7.76,0,0,0,3.57-1.65,40.44,40.44,0,0,0,6-5.43q1.62-1.74,3.57-4t3.81-4.65Z"/><path class="cls-1" d="M647.31,1692.38q-2.22,2.7-4.8,5.61a46.31,46.31,0,0,1-5.55,5.31,30.13,30.13,0,0,1-6.36,4,17,17,0,0,1-7.17,1.56,7.4,7.4,0,0,1-5.52-2,7.84,7.84,0,0,1-1.92-5.73,10.73,10.73,0,0,1,1.68-5.64,19.32,19.32,0,0,1,4.32-4.92,23.16,23.16,0,0,1,5.82-3.48,16.07,16.07,0,0,1,6.18-1.32,7.64,7.64,0,0,1,4.38,1.11,3.24,3.24,0,0,1,1.62,2.73,4.69,4.69,0,0,1-.45,2.07,4.85,4.85,0,0,1-1.17,1.56,5.11,5.11,0,0,1-1.62,1,5.2,5.2,0,0,1-1.8.33,7.09,7.09,0,0,1-1.38-.12q.42-1.38.9-2.82a9.06,9.06,0,0,0,.48-2.88,2.52,2.52,0,0,0-.48-1.62,1.6,1.6,0,0,0-1.32-.6,6.91,6.91,0,0,0-3.54,1.23,15.77,15.77,0,0,0-3.72,3.3,20.16,20.16,0,0,0-2.94,4.74,13.4,13.4,0,0,0-1.2,5.55,5.7,5.7,0,0,0,1.38,3.87,4.81,4.81,0,0,0,3.84,1.59,11.92,11.92,0,0,0,5.85-1.62,31.28,31.28,0,0,0,5.52-3.93,51.37,51.37,0,0,0,4.77-4.8q2.16-2.49,3.66-4.29Z"/><path class="cls-1" d="M648,1686.74l6.42-.24-1.62,2.37-2,2.94-2.1,3.06-1.89,2.73.12.12,3.3-3.72a45.55,45.55,0,0,1,4.2-4.14,25.53,25.53,0,0,1,4-2.91,8.39,8.39,0,0,1,4.29-1.17,4.2,4.2,0,0,1,2.79.93,3.08,3.08,0,0,1,1.11,2.49,4.18,4.18,0,0,1-.45,2,4.67,4.67,0,0,1-1.23,1.5,6.23,6.23,0,0,1-1.74,1,5.76,5.76,0,0,1-2,.36,6,6,0,0,1-1.38-.12q.18-.42.42-1t.45-1.23q.21-.63.39-1.23a3.66,3.66,0,0,0,.18-1,1.87,1.87,0,0,0-.39-1.17,1.45,1.45,0,0,0-1.23-.51,5.57,5.57,0,0,0-3.21,1.41,37,37,0,0,0-3.57,3.15,71.29,71.29,0,0,0-11.64,15.42l-5.82.18Zm7.62,10q-1.2.36-2.31.66a7.2,7.2,0,0,1-1.77.3q-1,0-1-.9a1,1,0,0,1,.54-.84,3.37,3.37,0,0,1,1.8-.36q.66,0,1.62.06a5.45,5.45,0,0,1,2,.54,4.62,4.62,0,0,1,2,1.5,4,4,0,0,1,.63,2.34,7.4,7.4,0,0,1-.21,1.8q-.21.84-.45,1.56t-.45,1.38a4.33,4.33,0,0,0-.21,1.32,1.3,1.3,0,0,0,.3,1,1.21,1.21,0,0,0,.84.27,4.58,4.58,0,0,0,2.16-.66,18.31,18.31,0,0,0,2.43-1.62,28.2,28.2,0,0,0,2.31-2l1.92-1.89q1.68-1.74,3.57-3.93t4-5l.54.3a95.94,95.94,0,0,1-7.68,9.12,32.37,32.37,0,0,1-6.48,5.43,10.25,10.25,0,0,1-5,1.65,5.16,5.16,0,0,1-3.12-.84,3.42,3.42,0,0,1-1.14-2.94,6.38,6.38,0,0,1,.51-2.31q.51-1.29,1-2.25.36-.78.66-1.5l.6-1.23Z"/><path class="cls-1" d="M697.29,1686.5q-2.34,3.9-4.35,7t-3.45,5.43a43.56,43.56,0,0,0-2.25,4.11,7.43,7.43,0,0,0-.81,3.06q0,1.32,1.14,1.32a4.05,4.05,0,0,0,1.74-.51,16.55,16.55,0,0,0,2.16-1.32,26.24,26.24,0,0,0,2.34-1.89q1.2-1.08,2.28-2.16,1.32-1.38,2.61-2.79t2.4-2.73q1.11-1.32,2-2.43t1.5-1.89l.48.36q-1.44,1.92-3.66,4.59t-4.74,5.25a37.68,37.68,0,0,1-5.64,4.86,9.1,9.1,0,0,1-5.1,1.74,3.89,3.89,0,0,1-2.88-1.08,3.66,3.66,0,0,1-1.08-2.7,9,9,0,0,1,.21-2,4.66,4.66,0,0,1,.51-1.38l-.12-.12q-1.08,1.14-2.34,2.43a23.37,23.37,0,0,1-2.7,2.37,15.39,15.39,0,0,1-3.09,1.8,8.83,8.83,0,0,1-3.57.72,3.44,3.44,0,0,1-2.82-1.17,4.17,4.17,0,0,1-1-2.73q0-2.28,2.46-6.6t6.66-11.22l6.36-.24q-4.74,7.26-7.71,11.91t-3,6.93a1.84,1.84,0,0,0,.39,1.2,1.28,1.28,0,0,0,1.05.48,5.54,5.54,0,0,0,2.73-1,20.62,20.62,0,0,0,3.33-2.58,37,37,0,0,0,3.45-3.72,38.52,38.52,0,0,0,3.09-4.38l5.16-8.4Z"/><path class="cls-1" d="M717.45,1701.14q-1.62,1.74-2.94,3a21.85,21.85,0,0,1-2.52,2.1,11.79,11.79,0,0,1-3.24,1.74,9.44,9.44,0,0,1-2.88.48,3.7,3.7,0,0,1-2.91-1.11,4.21,4.21,0,0,1-1-2.91,8.68,8.68,0,0,1,.87-3.36,37.27,37.27,0,0,1,2.25-4.26l6-10.08,6.36-.24-6.78,10.44q-3.9,5.94-3.9,8.28a2.18,2.18,0,0,0,.36,1.29,1.23,1.23,0,0,0,1.08.51,5.58,5.58,0,0,0,2.76-1,21,21,0,0,0,3.3-2.55q.84-.78,1.74-1.74t1.68-1.92q.78-1,1.41-1.83t1-1.47L726,1687l6.18-.48q-2.46,4-4.47,7.14t-3.42,5.46a43.74,43.74,0,0,0-2.19,4,7.09,7.09,0,0,0-.78,2.88q0,1.38,1.14,1.38t3.84-1.83a38,38,0,0,0,5.52-5q1.68-1.8,3.6-4t4.08-4.95l.48.36q-2.1,2.76-4,5t-3.66,4.08q-2,2-3.57,3.45a21.14,21.14,0,0,1-3,2.25,12.42,12.42,0,0,1-2.58,1.23,7.38,7.38,0,0,1-2.28.39,4,4,0,0,1-2.94-1,3.71,3.71,0,0,1-1.08-2.79,9,9,0,0,1,.15-1.8,6.5,6.5,0,0,1,.57-1.56Zm15.9-26.52a19.15,19.15,0,0,1-2,2.52,13.76,13.76,0,0,1-2.61,2.16,12.41,12.41,0,0,1-2.64,1.23,10.81,10.81,0,0,1-3.48.51q-1,0-2.31-.09a9.57,9.57,0,0,1-2.61-.57,5.26,5.26,0,0,1-1.74-1.14,2.59,2.59,0,0,1-.72-1.92,2.65,2.65,0,0,1,.66-1.86,4.07,4.07,0,0,1,1.68-1.08,8.46,8.46,0,0,1,1.86-.42,16,16,0,0,1,1.86-.12q.42,0,1.32.09t1.5.21l-.12.54a2.58,2.58,0,0,0-.48-.06h-.42a3.77,3.77,0,0,0-2.22.72,2.35,2.35,0,0,0-1,2,2.44,2.44,0,0,0,1.2,2.16,4.78,4.78,0,0,0,2.64.66,8,8,0,0,0,2.55-.39,9.6,9.6,0,0,0,2.19-1,11.15,11.15,0,0,0,2.49-2.07,13.07,13.07,0,0,0,1.77-2.43Z"/><path class="cls-1" d="M771.75,1686.14H773a15,15,0,0,0,5.28-1,15.62,15.62,0,0,0,4.68-2.76,10.59,10.59,0,0,0,3.78-8.34,9.07,9.07,0,0,0-.75-3.84,8.47,8.47,0,0,0-2-2.76,7,7,0,0,0-2.76-1.53,12,12,0,0,0-3.3-.45,13.57,13.57,0,0,0-5.07,1,13.17,13.17,0,0,0-4.47,2.94,14.28,14.28,0,0,0-2.64,3.66,9.11,9.11,0,0,0-1.08,4.2,5.78,5.78,0,0,0,1.44,4.26,4.67,4.67,0,0,0,1.5,1,5.25,5.25,0,0,0,2.1.39,9.26,9.26,0,0,0,3.15-.6,8.36,8.36,0,0,0,3-2,11.35,11.35,0,0,0,1.65-2.13,12,12,0,0,0,1.23-2.85l.72.06a12,12,0,0,1-3.06,5.46,10.31,10.31,0,0,1-3.57,2.43,10.51,10.51,0,0,1-3.93.81,13.73,13.73,0,0,1-2.82-.3,6.12,6.12,0,0,1-2.58-1.2,6.81,6.81,0,0,1-1.83-2.22,6.38,6.38,0,0,1-.69-3,8.84,8.84,0,0,1,1.56-4.92,14.35,14.35,0,0,1,4.32-4.2,21.6,21.6,0,0,1,6.15-2.91,23.86,23.86,0,0,1,6.51-.87,29.46,29.46,0,0,1,4.65.39,11.1,11.1,0,0,1,4.23,1.53,10.62,10.62,0,0,1,2.82,2.61,6.67,6.67,0,0,1,1.26,4.17,9.46,9.46,0,0,1-1.41,5.13,14.72,14.72,0,0,1-3.75,4,21,21,0,0,1-4.26,2.34,24.74,24.74,0,0,1-5,1.44v.12a15.3,15.3,0,0,1,3,.6,8.85,8.85,0,0,1,2.76,1.32,6.6,6.6,0,0,1,2.64,5.4,12,12,0,0,1-1.74,6.09,19.24,19.24,0,0,1-9,7.08,32.47,32.47,0,0,1-3.81,1.17,34.53,34.53,0,0,1-7.92,1c-.81,0-1.63,0-2.49-.06a19.32,19.32,0,0,1-2.61-.3,18.4,18.4,0,0,1-2.58-.66,11.36,11.36,0,0,1-2.34-1.08,8,8,0,0,1-3.15-3.3,8.23,8.23,0,0,1-.81-3.36,5.67,5.67,0,0,1,.57-2.46,5.74,5.74,0,0,1,1.43-1.92,6.65,6.65,0,0,1,2.36-1.23,9.67,9.67,0,0,1,2.72-.39,6.1,6.1,0,0,1,2.64.6,8.84,8.84,0,0,1,2.22,1.5l-.18.48a7,7,0,0,0-1.14-.27,7.17,7.17,0,0,0-1-.09,4.42,4.42,0,0,0-2.85,1.11,4.21,4.21,0,0,0-1.35,3.45,5.73,5.73,0,0,0,.8,3.06,8,8,0,0,0,2.13,2.28,9.49,9.49,0,0,0,2.9,1.38,11.45,11.45,0,0,0,3.2.48,16.25,16.25,0,0,0,6.11-1.23,16,16,0,0,0,5.5-3.75,15.16,15.16,0,0,0,2.85-4.32,12.66,12.66,0,0,0,1.17-5.28,10.21,10.21,0,0,0-.42-3,5,5,0,0,0-1.44-2.22,6,6,0,0,0-4.26-1.44,11.67,11.67,0,0,0-1.32.09,9.71,9.71,0,0,0-1.44.27Z"/><path class="cls-1" d="M853.52,1664.12q-4.56,5.16-8.73,10.53a110,110,0,0,0-7.32,10.59,66.44,66.44,0,0,0-5,10,24.74,24.74,0,0,0-1.89,9,3.54,3.54,0,0,0,.54,2.22,1.77,1.77,0,0,0,1.44.66q1.74,0,4.56-1.92a39.12,39.12,0,0,0,5.82-5q1-1,2-2.19t2-2.34q1-1.17,1.8-2.19l1.35-1.68.48.3q-1.38,1.8-3.15,4a59.62,59.62,0,0,1-4.65,5.13,41.38,41.38,0,0,1-6.09,5.1,10.83,10.83,0,0,1-6.09,2,5.7,5.7,0,0,1-2.49-.48,4,4,0,0,1-1.56-1.29,5.22,5.22,0,0,1-.81-1.83,9.41,9.41,0,0,1-.24-2.16,21,21,0,0,1,1.2-7,48,48,0,0,1,2.82-6.45h-8.4q-2.46,2.88-5.49,6.18a58.53,58.53,0,0,1-6.51,6.09,38.56,38.56,0,0,1-7.32,4.65,18.09,18.09,0,0,1-8,1.86,13.93,13.93,0,0,1-3.45-.42,9.8,9.8,0,0,1-3-1.29,6.86,6.86,0,0,1-2.1-2.19,6.24,6.24,0,0,1-.78-3.18,5.61,5.61,0,0,1,1-3.18,3.23,3.23,0,0,1,2.88-1.44,2.94,2.94,0,0,1,2,.75,2.36,2.36,0,0,1,.84,1.83,2.73,2.73,0,0,1-1,2.34,4.07,4.07,0,0,1-2.52.72,4.41,4.41,0,0,0,.6,2.28,5.53,5.53,0,0,0,1.5,1.68,7.09,7.09,0,0,0,2,1,7.35,7.35,0,0,0,2.22.36,15.71,15.71,0,0,0,5.31-.93,26.89,26.89,0,0,0,5.13-2.49,37.17,37.17,0,0,0,4.86-3.6q2.34-2,4.5-4.2t4.08-4.35q1.92-2.19,3.54-4,3.3-3.72,6.87-7.35a96.37,96.37,0,0,1,7.47-6.84,65.69,65.69,0,0,1,8.19-5.76,40.85,40.85,0,0,1,9-4Zm-23.64,24.36a85.79,85.79,0,0,1,7.62-11.28,91.68,91.68,0,0,1,9.3-10l-.12-.12a60.84,60.84,0,0,0-13,9.24,168,168,0,0,0-11.85,12.18Z"/><path class="cls-1" d="M850.7,1701.8a7.52,7.52,0,0,0,.81,2.85,5.06,5.06,0,0,0,2.07,2.13,6.87,6.87,0,0,0,2.49.78,23.46,23.46,0,0,0,3,.18,12.21,12.21,0,0,0,6-1.56,21.68,21.68,0,0,0,5.52-4.56,31.7,31.7,0,0,0,2.94-3.81q1.32-2,2.67-4.32t2.82-4.89q1.47-2.58,3.27-5.52a35.28,35.28,0,0,1,3.39-4.68,26.61,26.61,0,0,1,3.78-3.6,24.29,24.29,0,0,1,4.38-2.7,30.47,30.47,0,0,1,5.25-1.92l-.06-.12q-3.18-.3-5.52-.39t-4.68-.09a117.81,117.81,0,0,0-12.84.63,54.83,54.83,0,0,0-9.84,1.89,19.72,19.72,0,0,0-4.5,2,21.38,21.38,0,0,0-3.69,2.76,12.32,12.32,0,0,0-2.49,3.21,7.13,7.13,0,0,0-.9,3.33,5.13,5.13,0,0,0,.9,3.06,7.65,7.65,0,0,0,2.28,2.1,10.27,10.27,0,0,0,3.12,1.23,15.35,15.35,0,0,0,3.36.39,16.26,16.26,0,0,0,2.88-.27,21.65,21.65,0,0,0,2.88-.72,20.3,20.3,0,0,0,2.61-1.05,9.71,9.71,0,0,0,2.07-1.32,11.56,11.56,0,0,0,2.85-3.3,8.68,8.68,0,0,0,1-4.62,18.89,18.89,0,0,0-.18-2.4l.66-.06a14.08,14.08,0,0,1,.18,1.47q.06.81.06,1.47a10.85,10.85,0,0,1-1.08,4.92,13.16,13.16,0,0,1-2.82,3.78,18,18,0,0,1-5.25,3.42,16.12,16.12,0,0,1-6.51,1.32,13,13,0,0,1-3.66-.51,7.9,7.9,0,0,1-2.94-1.53,8.21,8.21,0,0,1-3.18-7.08,11.51,11.51,0,0,1,3.12-7.5,23.75,23.75,0,0,1,9.3-6.18,57.63,57.63,0,0,1,12.24-3.33,96.68,96.68,0,0,1,15.9-1.17q1.26,0,2.31,0l2.07.06,2.13.09,2.55.12,2.64.15,2.58.15,2,.09a7,7,0,0,1,1.59.21,2.3,2.3,0,0,1,1.29.69,1.73,1.73,0,0,1,.46,1.17,1.93,1.93,0,0,1-1.3,1.8,8.82,8.82,0,0,1-3.63.6q-1.92,0-3.78-.12t-3.78-.12a9.35,9.35,0,0,0-6.75,3.24,46.24,46.24,0,0,0-6.63,9.42q-1.5,2.64-2.85,5.13t-2.76,4.77q-1.41,2.28-3,4.38a34.52,34.52,0,0,1-3.51,4,24,24,0,0,1-17.34,7.14,21.84,21.84,0,0,1-4.35-.42,14.05,14.05,0,0,1-3.69-1.26,9.17,9.17,0,0,1-3.24-2.58,6,6,0,0,1-1.2-3.78,4.21,4.21,0,0,1,1.08-3,3.46,3.46,0,0,1,2.64-1.17,7.11,7.11,0,0,1,1.11.09,2.26,2.26,0,0,1,1.74,1.32,3.45,3.45,0,0,1,.27,1.47,2.33,2.33,0,0,1-.63,1.68A3.65,3.65,0,0,1,850.7,1701.8Z"/><path class="cls-1" d="M923.78,1673.18a4.44,4.44,0,0,0-.45,1.32,7.66,7.66,0,0,0-.15,1.44,3.92,3.92,0,0,0,1.2,3,4.33,4.33,0,0,0,3.06,1.11,7.64,7.64,0,0,0,3.69-1,11.35,11.35,0,0,0,3.12-2.49,12.12,12.12,0,0,0,2.13-3.42,9.77,9.77,0,0,0,.78-3.75,3.63,3.63,0,0,0-.57-2.13,4,4,0,0,0-1.44-1.26,6.65,6.65,0,0,0-1.8-.63,8.8,8.8,0,0,0-1.65-.18,17.47,17.47,0,0,0-6.54,1.38,32.88,32.88,0,0,0-6.75,3.75,44.13,44.13,0,0,0-11.61,12.39,37.43,37.43,0,0,0-3.63,7.56,23.38,23.38,0,0,0-1.35,7.68,15.06,15.06,0,0,0,.51,4,9.4,9.4,0,0,0,1.53,3.18,7.1,7.1,0,0,0,2.52,2.1,7.69,7.69,0,0,0,3.48.75,11.87,11.87,0,0,0,5-1.14,15.45,15.45,0,0,0,7.53-7.59,12.59,12.59,0,0,0,1.17-5.31,7.84,7.84,0,0,0-1-4.14,3.93,3.93,0,0,0-3.66-1.68,5.25,5.25,0,0,0-2.64.72,13.24,13.24,0,0,0-2.4,1.77,17.65,17.65,0,0,0-2,2.22q-.9,1.17-1.56,2.13l-.6-.3a29.41,29.41,0,0,1,2.22-3,19.63,19.63,0,0,1,2.61-2.55,11.68,11.68,0,0,1,3.09-1.8,10.09,10.09,0,0,1,3.72-.66,7.08,7.08,0,0,1,5.1,1.89,6.53,6.53,0,0,1,2,5,11.64,11.64,0,0,1-1.83,6.48,16.22,16.22,0,0,1-4.74,4.74,23.31,23.31,0,0,1-6.48,2.94,25.58,25.58,0,0,1-7.05,1q-6,0-9.3-3.42t-3.3-9.36a19.62,19.62,0,0,1,1.62-7.68,32.6,32.6,0,0,1,4.35-7.35,41.52,41.52,0,0,1,6.36-6.51,49.74,49.74,0,0,1,7.65-5.22,42.41,42.41,0,0,1,8.16-3.48,27.19,27.19,0,0,1,7.92-1.26,15.44,15.44,0,0,1,3.36.36,8.81,8.81,0,0,1,2.88,1.17,5.9,5.9,0,0,1,2,2.19,7.09,7.09,0,0,1,.75,3.42,7.51,7.51,0,0,1-1.08,4,9.88,9.88,0,0,1-2.79,3,13.77,13.77,0,0,1-3.81,1.86,13.58,13.58,0,0,1-4.08.66,9.75,9.75,0,0,1-2.43-.3,6.3,6.3,0,0,1-2.07-.93,5,5,0,0,1-1.47-1.62,4.67,4.67,0,0,1-.57-2.37,6.09,6.09,0,0,1,.24-1.68,6,6,0,0,1,.48-1.26Z"/><path class="cls-1" d="M404,1772.37a29.26,29.26,0,0,0-3.6.84,13.7,13.7,0,0,0-3.3,1.47,9.19,9.19,0,0,0-2.55,2.34,8.06,8.06,0,0,0-1.41,3.51l.66-.15a3,3,0,0,1,.72-.09,2.3,2.3,0,0,1,1.74.69,2.46,2.46,0,0,1,.66,1.77,3.23,3.23,0,0,1-.75,2.19,2.73,2.73,0,0,1-2.19.87,3.34,3.34,0,0,1-2.7-1.14,4.23,4.23,0,0,1-1-2.82,6.53,6.53,0,0,1,1.41-4.14,12.44,12.44,0,0,1,3.48-3,20.08,20.08,0,0,1,4.44-2,25.77,25.77,0,0,1,4.35-1Zm10,0a29.26,29.26,0,0,0-3.6.84,13.7,13.7,0,0,0-3.3,1.47,9.19,9.19,0,0,0-2.55,2.34,8.06,8.06,0,0,0-1.41,3.51l.66-.15a3,3,0,0,1,.72-.09,2.3,2.3,0,0,1,1.74.69,2.46,2.46,0,0,1,.66,1.77,3.23,3.23,0,0,1-.75,2.19,2.73,2.73,0,0,1-2.19.87,3.34,3.34,0,0,1-2.7-1.14,4.23,4.23,0,0,1-1-2.82,6.53,6.53,0,0,1,1.41-4.14,12.44,12.44,0,0,1,3.48-3,20.08,20.08,0,0,1,4.44-2,25.77,25.77,0,0,1,4.35-1Z"/><path class="cls-1" d="M459.69,1770.33l-2.25-.12-2.85-.12q-1.5-.06-3-.06h-2.79q-3.48.12-7,.36a65.47,65.47,0,0,0-7.23.9,32.83,32.83,0,0,0-4.35,1.14,20,20,0,0,0-4.38,2,12.13,12.13,0,0,0-3.36,3.09,6.94,6.94,0,0,0-1.35,4.23,5.51,5.51,0,0,0,2.64,4.86,6.54,6.54,0,0,0,2.34,1,13,13,0,0,0,2.76.3,10.4,10.4,0,0,0,3.72-.66,8.59,8.59,0,0,0,3.06-2,8,8,0,0,0,1.95-3.24,13.61,13.61,0,0,0,.63-4.26,10.09,10.09,0,0,0-.06-1q-.06-.57-.12-1.11l.66-.06a10.41,10.41,0,0,1,.24,2.46,18.12,18.12,0,0,1-.54,4.47,11.14,11.14,0,0,1-5.73,7,10,10,0,0,1-4.35,1,10.09,10.09,0,0,1-3.15-.48,6.53,6.53,0,0,1-2.49-1.44,7.41,7.41,0,0,1-1.74-2.64,8.53,8.53,0,0,1-.66-3.24,10.53,10.53,0,0,1,1.53-5.73,14.13,14.13,0,0,1,4-4.14,25,25,0,0,1,5.61-2.85,50.32,50.32,0,0,1,6.36-1.86,73.2,73.2,0,0,1,10.53-1.62q5.67-.48,11.49-.48,5,0,9.21.33t7.23.33a3,3,0,0,1,1.92.57,1.73,1.73,0,0,1,.72,1.41q0,2.46-4.68,2.46-.6,0-2.25-.06l-3.57-.12-3.66-.12q-1.74-.06-2.52-.06a10.81,10.81,0,0,0-4,.87,11.77,11.77,0,0,0-3.6,2.19,23.42,23.42,0,0,0-2.76,3,41.57,41.57,0,0,0-2.4,3.51q-1.14,1.86-2.13,3.78t-1.95,3.72l-1.26,2.34a47.7,47.7,0,0,1-4,6.48,40.61,40.61,0,0,1-4.29,5,26.07,26.07,0,0,1-7.86,5.4,23.14,23.14,0,0,1-9.36,1.86,15.77,15.77,0,0,1-4-.45,11.57,11.57,0,0,1-3.09-1.29,6.75,6.75,0,0,1-2.49-2.49,6,6,0,0,1-.81-2.91,5.36,5.36,0,0,1,1.05-3.57,3.24,3.24,0,0,1,2.55-1.23,3.15,3.15,0,0,1,2.13.75,2.66,2.66,0,0,1,.87,2.13,3.26,3.26,0,0,1-.51,1.77,2.19,2.19,0,0,1-1.77.93,5.56,5.56,0,0,0,.36,2.58,4.63,4.63,0,0,0,1.26,1.86,4.49,4.49,0,0,0,2,1,10.58,10.58,0,0,0,2,.18,20.56,20.56,0,0,0,2.07-.12,10.44,10.44,0,0,0,2.49-.6,15.43,15.43,0,0,0,2.82-1.41,16.14,16.14,0,0,0,3.06-2.55q1.62-1.68,3-3.33t2.61-3.48q1.26-1.83,2.49-3.93t2.67-4.68a62.58,62.58,0,0,1,4.71-7.32,29.2,29.2,0,0,1,4.59-4.86,22,22,0,0,1,3.57-2.46q1.77-1,3.27-1.59a20.33,20.33,0,0,1,2.64-.93l1.68-.42ZM473,1792.59q-2.28,3.3-4.14,5.73t-3.78,4.53q-5.82,6.36-11.16,6.36a4.37,4.37,0,0,1-2.31-.6,5.34,5.34,0,0,1-1.65-1.56,7.06,7.06,0,0,1-1-2.19,9.8,9.8,0,0,1-.33-2.55,20,20,0,0,1,.81-5,36.2,36.2,0,0,1,2.37-6.24q.66-1.38,1.5-2.85t1.8-2.91q1-1.44,1.92-2.7a21.4,21.4,0,0,1,1.86-2.16,25.91,25.91,0,0,1,3.93-3.57,29,29,0,0,1,3.39-2.13,12.22,12.22,0,0,1,1.89-.81,5.43,5.43,0,0,1,1.65-.33,3.18,3.18,0,0,1,.93.12.48.48,0,0,1,.39.48.57.57,0,0,1-.42.57,2.66,2.66,0,0,1-.9.15,9.57,9.57,0,0,0-3.06.6,11.6,11.6,0,0,0-2.34,2.07,31.26,31.26,0,0,0-2.4,3.15,37.43,37.43,0,0,0-3.33,5.85,67,67,0,0,0-2.49,6.27,37.52,37.52,0,0,0-1.5,5.43,23.53,23.53,0,0,0-.42,4.17,10.46,10.46,0,0,0,.12,1.53,4.86,4.86,0,0,0,.45,1.47,3,3,0,0,0,.9,1.08,2.31,2.31,0,0,0,1.41.42,6.7,6.7,0,0,0,3.54-1.29,24.62,24.62,0,0,0,4.26-3.69q1.74-1.86,3.57-4.17t4-5.55Z"/><path class="cls-1" d="M489,1775.13l-13.86,21.12.12.12q1.26-1.5,2.67-3.3a28.5,28.5,0,0,1,3.06-3.33,17.24,17.24,0,0,1,3.54-2.55,8.52,8.52,0,0,1,4.11-1,4.54,4.54,0,0,1,3.48,1.41,5.18,5.18,0,0,1,1.32,3.69,12.8,12.8,0,0,1-1.26,5.58,17.84,17.84,0,0,1-3.06,4.56l.12.12a17.39,17.39,0,0,0,4-1.35A24.63,24.63,0,0,0,497,1798a28.5,28.5,0,0,0,3.36-2.82,36.2,36.2,0,0,0,2.82-3.09l.42.42a35.08,35.08,0,0,1-2.7,3,31.53,31.53,0,0,1-3.45,3,23.56,23.56,0,0,1-4.14,2.46,18.36,18.36,0,0,1-4.77,1.47q-1.2,1.08-2.7,2.28a30,30,0,0,1-3.18,2.22,20.81,20.81,0,0,1-3.42,1.68,9.6,9.6,0,0,1-3.42.66,4.49,4.49,0,0,1-2.19-.51,1.79,1.79,0,0,1-.93-1.71,2.41,2.41,0,0,1,1.23-2.07,11,11,0,0,1,3-1.32,29.13,29.13,0,0,1,3.63-.81l3.15-.48q.54-.72,1.23-1.83a22.12,22.12,0,0,0,1.32-2.49,18.54,18.54,0,0,0,1.05-3,12.75,12.75,0,0,0,.42-3.27,9.11,9.11,0,0,0-.09-1.29,3.46,3.46,0,0,0-.36-1.14,2.09,2.09,0,0,0-.75-.81,2.35,2.35,0,0,0-1.26-.3q-1.8,0-4.2,2.34a48.31,48.31,0,0,0-5.1,6q-2.7,3.69-5.49,8.22t-5.37,8.88q-2.58,4.35-4.71,8t-3.51,5.73l-6.36.24q8-13,16.05-26.1t16-26.16Zm-14,31.68q0,1.32,1.68,1.32a3.54,3.54,0,0,0,1.77-.54,13.28,13.28,0,0,0,1.83-1.29,16.07,16.07,0,0,0,1.68-1.62q.78-.87,1.32-1.59l-2.19.36a25.13,25.13,0,0,0-2.76.63,8.39,8.39,0,0,0-2.34,1.05A2,2,0,0,0,475,1806.81Z"/><path class="cls-1" d="M532.23,1792.71a15.24,15.24,0,0,1-2.85,2.82,5.85,5.85,0,0,1-3.63,1.26,4.65,4.65,0,0,1-2.4-.6,6.64,6.64,0,0,1-1.86-1.68,19.29,19.29,0,0,1-2.37,5.67,20,20,0,0,1-4,4.68,18.84,18.84,0,0,1-5.22,3.18,15.79,15.79,0,0,1-6,1.17,7.33,7.33,0,0,1-5.28-1.89,6.83,6.83,0,0,1-2-5.19,12.35,12.35,0,0,1,1.62-6.09,18.36,18.36,0,0,1,4.2-5.1,21.38,21.38,0,0,1,5.7-3.48,16,16,0,0,1,6.12-1.29,7.17,7.17,0,0,1,5.1,1.74,7.3,7.3,0,0,1,2.28,4.2A5.25,5.25,0,0,0,523,1795a3.64,3.64,0,0,0,2.73,1.08,5.42,5.42,0,0,0,3.06-1,15.27,15.27,0,0,0,3.06-2.88Zm-27.9,15.78a5.31,5.31,0,0,0,3-1,14.62,14.62,0,0,0,2.88-2.64,24.16,24.16,0,0,0,2.55-3.66,38.8,38.8,0,0,0,2-4.08,27.5,27.5,0,0,0,1.35-3.9,12.91,12.91,0,0,0,.48-3.12,3.83,3.83,0,0,0-.63-2.34,2.35,2.35,0,0,0-2-.84,5.31,5.31,0,0,0-3,1,14.62,14.62,0,0,0-2.88,2.64,24.16,24.16,0,0,0-2.55,3.66,38.8,38.8,0,0,0-2,4.08,27.5,27.5,0,0,0-1.35,3.9,12.91,12.91,0,0,0-.48,3.12,3.83,3.83,0,0,0,.63,2.34A2.35,2.35,0,0,0,504.33,1808.49Z"/><path class="cls-1" d="M562.83,1792.83a9.3,9.3,0,0,1-3.39,3,8.28,8.28,0,0,1-3.57.87,5.88,5.88,0,0,1-2.61-.6,9.71,9.71,0,0,1-2.07-1.32,20.13,20.13,0,0,1-3.09,6.3,20.86,20.86,0,0,1-4.5,4.5,19.28,19.28,0,0,1-5.34,2.73,18,18,0,0,1-5.61.93,6.62,6.62,0,0,1-4.8-1.68,5.74,5.74,0,0,1-1.74-4.32,9.49,9.49,0,0,1,.27-2.25,12.41,12.41,0,0,1,1-2.55l1.29-2.4q.81-1.5,1.47-2.52l8.22-12.84a32.52,32.52,0,0,1,4.5-5.7,37.58,37.58,0,0,1,5.46-4.5,31.65,31.65,0,0,1,5.34-2.94,11.54,11.54,0,0,1,4.32-1q.84,0,1.77.09a5.91,5.91,0,0,1,1.77.45,2.52,2.52,0,0,1,1.8,2.34,6.37,6.37,0,0,1-1,3.39,16.52,16.52,0,0,1-3.72,3.81,65.94,65.94,0,0,1-5.88,4.14q-2.64,1.62-5,3.3a10.06,10.06,0,0,1-.87.6l-1.29.84-1.53,1q-.81.51-1.59,1l-4,2.58-2.94,4.44q-.72,1.08-1.68,2.7a29.18,29.18,0,0,0-1.5,2.82,18,18,0,0,0-1.32,3.27,8.93,8.93,0,0,0-.36,2.19,3.15,3.15,0,0,0,.72,2.22,2.49,2.49,0,0,0,1.92.78,7.71,7.71,0,0,0,4.17-1.71,19.9,19.9,0,0,0,4.89-5.49,24,24,0,0,0,3.9-9.36,5.54,5.54,0,0,1-.66-2.46,3.54,3.54,0,0,1,.78-2.4,2.38,2.38,0,0,1,1.86-.9,2.84,2.84,0,0,1,2.67,1.41,8.37,8.37,0,0,1,.69,5q-.12.66-.24,1.38a8.8,8.8,0,0,0,2.22,1.44,6.07,6.07,0,0,0,2.52.54,7.64,7.64,0,0,0,3-.72,9,9,0,0,0,3.27-2.76Zm-23.58-4.32.12.06,3.18-2.1,2.64-1.71q1.32-.87,2-1.41a40.44,40.44,0,0,0,4.08-3.21,32.17,32.17,0,0,0,3.54-3.69,16.78,16.78,0,0,0,2.67-3.9,8.25,8.25,0,0,0,.87-3.48q0-1.74-1.32-1.74a4.09,4.09,0,0,0-2.07.57,11,11,0,0,0-2.19,1.77,19.42,19.42,0,0,0-1.5,1.71q-.78,1-1.56,2t-1.41,2q-.63,1-1.05,1.59Z"/><path class="cls-1" d="M579.51,1787.49l6.24-.36a25.27,25.27,0,0,1-1.56,2.61L582,1793q-1.2,1.77-2.43,3.66t-2.25,3.66a28.14,28.14,0,0,0-1.65,3.3,7.09,7.09,0,0,0-.63,2.61,1.33,1.33,0,0,0,1.5,1.5,7.78,7.78,0,0,0,3.9-1.68,34.93,34.93,0,0,0,5.16-4.44q1.14-1.14,2.31-2.46t2.25-2.61q1.08-1.29,2-2.4t1.44-1.83l.42.24q-1.56,2.1-3.6,4.65a66.81,66.81,0,0,1-4.92,5.43,36.22,36.22,0,0,1-5.67,4.71,10.07,10.07,0,0,1-5.55,1.83,4.16,4.16,0,0,1-3-1,3.21,3.21,0,0,1-1-2.43,6.37,6.37,0,0,1,.06-.9,2.21,2.21,0,0,1,.18-.66h-.12a18.63,18.63,0,0,1-4.2,3.54,9.45,9.45,0,0,1-5,1.44,5.2,5.2,0,0,1-2.46-.54,4.5,4.5,0,0,1-1.65-1.47,6.66,6.66,0,0,1-.93-2.1,9.75,9.75,0,0,1-.3-2.43,12.09,12.09,0,0,1,1.62-5.88,22.25,22.25,0,0,1,4.08-5.31,21.22,21.22,0,0,1,5.49-3.84,13.27,13.27,0,0,1,5.79-1.47,5.39,5.39,0,0,1,3.3.9,6.45,6.45,0,0,1,2,2.82Zm-18,15.36a7.45,7.45,0,0,0,.57,3,2.37,2.37,0,0,0,2.43,1.29,5,5,0,0,0,2.64-1.05,15.37,15.37,0,0,0,2.67-2.49,29.31,29.31,0,0,0,2.46-3.33,32.11,32.11,0,0,0,2-3.69,27.53,27.53,0,0,0,1.38-3.51,9.76,9.76,0,0,0,.51-2.79,4.51,4.51,0,0,0-.6-2.52,2.62,2.62,0,0,0-2.34-.9,5.42,5.42,0,0,0-2.79.84,12.43,12.43,0,0,0-2.7,2.22,26.07,26.07,0,0,0-2.46,3.09,24.74,24.74,0,0,0-2,3.51A24.14,24.14,0,0,0,562,1800,10.44,10.44,0,0,0,561.51,1802.85Z"/><path class="cls-1" d="M623.49,1792.41q-2.1,2.7-4,4.89t-3.48,3.93a34.74,34.74,0,0,1-6.72,5.94,9.82,9.82,0,0,1-5,1.68,5.1,5.1,0,0,1-2.82-.81,3.19,3.19,0,0,1-1.26-2.91,7.78,7.78,0,0,1,.33-2.16,14.1,14.1,0,0,1,.87-2.25q.54-1.11,1.14-2.19.42-.66.78-1.26h-9.12l-.06.12q-1.08,1.8-2.13,3.69t-1.89,3.45q-1,1.86-1.8,3.54l-6.42.36,12.66-21.3,6.36-.24-2.82,4.26-2.28,3.48q-.66,1.14-1.2,1.92h9.18q.18-.36.6-1t.9-1.44q.54-.84,1.08-1.74,1.14-1.74,1.8-2.88t1.26-2.1l6.18-.48-4.08,6.48q-1.26,2-2.31,3.66t-1.83,2.94q-.9,1.44-1.41,2.46a16.77,16.77,0,0,0-.78,1.77,7.94,7.94,0,0,0-.36,1.26,5.13,5.13,0,0,0-.09.87,2.22,2.22,0,0,0,.21,1.05q.21.39,1,.39a7.76,7.76,0,0,0,3.57-1.65,40.44,40.44,0,0,0,6-5.43q1.62-1.74,3.57-4t3.81-4.65Z"/><path class="cls-1" d="M647.85,1792.77q-2.22,2.7-4.8,5.61a46.31,46.31,0,0,1-5.55,5.31,30.13,30.13,0,0,1-6.36,4,17,17,0,0,1-7.17,1.56,7.4,7.4,0,0,1-5.52-2,7.84,7.84,0,0,1-1.92-5.73,10.73,10.73,0,0,1,1.68-5.64,19.32,19.32,0,0,1,4.32-4.92,23.16,23.16,0,0,1,5.82-3.48,16.07,16.07,0,0,1,6.18-1.32,7.64,7.64,0,0,1,4.38,1.11,3.24,3.24,0,0,1,1.62,2.73,4.69,4.69,0,0,1-.45,2.07,4.85,4.85,0,0,1-1.17,1.56,5.11,5.11,0,0,1-1.62,1,5.2,5.2,0,0,1-1.8.33,7.09,7.09,0,0,1-1.38-.12q.42-1.38.9-2.82a9.06,9.06,0,0,0,.48-2.88,2.52,2.52,0,0,0-.48-1.62,1.6,1.6,0,0,0-1.32-.6,6.91,6.91,0,0,0-3.54,1.23,15.77,15.77,0,0,0-3.72,3.3,20.16,20.16,0,0,0-2.94,4.74,13.4,13.4,0,0,0-1.2,5.55,5.7,5.7,0,0,0,1.38,3.87,4.81,4.81,0,0,0,3.84,1.59,11.92,11.92,0,0,0,5.85-1.62,31.28,31.28,0,0,0,5.52-3.93,51.37,51.37,0,0,0,4.77-4.8q2.16-2.49,3.66-4.29Z"/><path class="cls-1" d="M647.49,1785.09a29.26,29.26,0,0,0,3.6-.84,13.7,13.7,0,0,0,3.3-1.47,9,9,0,0,0,2.55-2.37,8.25,8.25,0,0,0,1.41-3.48l-.66.15a3,3,0,0,1-.72.09,2.3,2.3,0,0,1-1.74-.69,2.46,2.46,0,0,1-.66-1.77,3.23,3.23,0,0,1,.75-2.19,2.73,2.73,0,0,1,2.19-.87,3.34,3.34,0,0,1,2.7,1.14,4.23,4.23,0,0,1,1,2.82,6.53,6.53,0,0,1-1.41,4.14,12.44,12.44,0,0,1-3.48,3,20.08,20.08,0,0,1-4.44,2,25.77,25.77,0,0,1-4.35,1Zm10,0a29.26,29.26,0,0,0,3.6-.84,13.7,13.7,0,0,0,3.3-1.47,9,9,0,0,0,2.55-2.37,8.25,8.25,0,0,0,1.41-3.48l-.66.15a3,3,0,0,1-.72.09,2.3,2.3,0,0,1-1.74-.69,2.46,2.46,0,0,1-.66-1.77,3.23,3.23,0,0,1,.75-2.19,2.73,2.73,0,0,1,2.19-.87,3.34,3.34,0,0,1,2.7,1.14,4.23,4.23,0,0,1,1,2.82,6.53,6.53,0,0,1-1.41,4.14,12.44,12.44,0,0,1-3.48,3,20.08,20.08,0,0,1-4.44,2,25.77,25.77,0,0,1-4.35,1Z"/><path class="cls-1" d="M718.17,1790a53.37,53.37,0,0,1-5.73,8.85,33.44,33.44,0,0,1-6.15,5.94,22.6,22.6,0,0,1-6.54,3.36,23.2,23.2,0,0,1-7,1,15.42,15.42,0,0,1-4.74-.66,10.6,10.6,0,0,1-3.39-1.74,7,7,0,0,1-2-2.49,6.66,6.66,0,0,1-.66-2.85,4.51,4.51,0,0,1,1-3.12,3.38,3.38,0,0,1,2.64-1.14,3.32,3.32,0,0,1,2.25.75,2.66,2.66,0,0,1,.87,2.13,2.87,2.87,0,0,1-.66,1.92,2.7,2.7,0,0,1-1.5,1,1.56,1.56,0,0,0-.06.48v.6a3.85,3.85,0,0,0,1.86,3.48,9,9,0,0,0,4.38,1,14,14,0,0,0,4.62-.84,13.79,13.79,0,0,0,4.92-3.3,37,37,0,0,0,5.34-6.9q2.46-4,5.34-9.24,4.8-8.76,9.48-12.42a28,28,0,0,1,3.54-2.37,33.7,33.7,0,0,1,3.09-1.53,19.33,19.33,0,0,1,2.4-.87q1-.27,1.47-.45v-.12a28.33,28.33,0,0,0-2.85-.27q-1.71-.09-3.42-.15t-3.18-.06h-2.07q-4.68,0-8.31.33a55.32,55.32,0,0,0-6.45.93,35.49,35.49,0,0,0-4.44,1.35,19.34,19.34,0,0,0-4.29,2.22,12.06,12.06,0,0,0-3.21,3.24,7.66,7.66,0,0,0-1.26,4.35,8.38,8.38,0,0,0,.42,2.61,5.93,5.93,0,0,0,1.32,2.25,6.93,6.93,0,0,0,2.25,1.5,7.81,7.81,0,0,0,3,.54,11.37,11.37,0,0,0,5.82-1.5,11.13,11.13,0,0,0,3.48-3.12,15.21,15.21,0,0,0,1.68-3.09,9.74,9.74,0,0,0,.6-3.57q0-.48-.06-1.11a5.22,5.22,0,0,0-.3-1.29l.6-.12a5.27,5.27,0,0,1,.3,1.35q.06.69.06,1.35a14.9,14.9,0,0,1-2.52,8,15.17,15.17,0,0,1-4.29,4.17,10.1,10.1,0,0,1-5.55,1.59,7.23,7.23,0,0,1-5.88-2.82,9.24,9.24,0,0,1-1.32-2.58,9.42,9.42,0,0,1-.48-3,11.64,11.64,0,0,1,1.11-5.16,14.3,14.3,0,0,1,2.94-4,18.93,18.93,0,0,1,4.23-3.06,34.51,34.51,0,0,1,5-2.19,39.08,39.08,0,0,1,5.25-1.35q3-.57,6.21-.93t6.51-.54q3.27-.18,6.15-.18,4.38,0,7.89.18t7.11.42a3.59,3.59,0,0,1,1.86.63,1.62,1.62,0,0,1,.66,1.35,1.82,1.82,0,0,1-1.08,1.74,8.08,8.08,0,0,1-3.42.54q-1.2,0-3-.12t-3.33-.12a11.65,11.65,0,0,0-5.1,1,15.69,15.69,0,0,0-3.54,2.31,15,15,0,0,0-2.43,2.73q-1.17,1.65-2.25,3.54t-2.13,3.9q-1.05,2-2,3.81h.06a7.65,7.65,0,0,0,.66-.39,12.57,12.57,0,0,1,1.5-.75,12.84,12.84,0,0,1,4.8-.84,10.47,10.47,0,0,1,6,1.74,8.25,8.25,0,0,1,2.52,2.82,8.13,8.13,0,0,1,1,4.08,14.89,14.89,0,0,1-1,5.61,13.5,13.5,0,0,1-4.23,5.19,15.5,15.5,0,0,1-5.28,2.88,18.32,18.32,0,0,1-5.46.9,9.44,9.44,0,0,1-5.76-1.53,4.71,4.71,0,0,1-2-3.93,3.57,3.57,0,0,1,.36-1.62,3.94,3.94,0,0,1,.9-1.2,3.78,3.78,0,0,1,1.17-.72,3.44,3.44,0,0,1,1.23-.24,4.59,4.59,0,0,1,1.8.33,5.88,5.88,0,0,1,1.44.87,4.52,4.52,0,0,0-1.92,2.07,6,6,0,0,0-.42,2.13,3.13,3.13,0,0,0,.81,2.31,3.58,3.58,0,0,0,2.61.81,7.92,7.92,0,0,0,3-.69,9.47,9.47,0,0,0,3.33-2.61,14.09,14.09,0,0,0,2.85-5,17.55,17.55,0,0,0,.87-5.28,12.75,12.75,0,0,0-.33-2.79,8.12,8.12,0,0,0-1.11-2.67,5.35,5.35,0,0,0-1.77-1.77,5,5,0,0,0-2.67-.69,5.65,5.65,0,0,0-1.74.27,8.85,8.85,0,0,0-1.68.75A12.33,12.33,0,0,0,718.17,1790Z"/><path class="cls-1" d="M763.41,1787.49l6.24-.36a25.27,25.27,0,0,1-1.56,2.61l-2.22,3.3q-1.2,1.77-2.43,3.66t-2.25,3.66a28.14,28.14,0,0,0-1.65,3.3,7.09,7.09,0,0,0-.63,2.61,1.33,1.33,0,0,0,1.5,1.5,7.78,7.78,0,0,0,3.9-1.68,34.93,34.93,0,0,0,5.16-4.44q1.14-1.14,2.31-2.46t2.25-2.61q1.08-1.29,2-2.4t1.44-1.83l.42.24q-1.56,2.1-3.6,4.65a66.81,66.81,0,0,1-4.92,5.43,36.22,36.22,0,0,1-5.67,4.71,10.07,10.07,0,0,1-5.55,1.83,4.16,4.16,0,0,1-3-1,3.21,3.21,0,0,1-1-2.43,6.37,6.37,0,0,1,.06-.9,2.21,2.21,0,0,1,.18-.66h-.12a18.63,18.63,0,0,1-4.2,3.54,9.45,9.45,0,0,1-5,1.44,5.2,5.2,0,0,1-2.46-.54,4.5,4.5,0,0,1-1.65-1.47,6.66,6.66,0,0,1-.93-2.1,9.75,9.75,0,0,1-.3-2.43,12.09,12.09,0,0,1,1.62-5.88,22.25,22.25,0,0,1,4.08-5.31,21.22,21.22,0,0,1,5.49-3.84,13.27,13.27,0,0,1,5.79-1.47,5.39,5.39,0,0,1,3.3.9,6.45,6.45,0,0,1,2,2.82Zm-18,15.36a7.45,7.45,0,0,0,.57,3,2.37,2.37,0,0,0,2.43,1.29,5,5,0,0,0,2.64-1.05,15.37,15.37,0,0,0,2.67-2.49,29.31,29.31,0,0,0,2.46-3.33,32.11,32.11,0,0,0,2-3.69,27.53,27.53,0,0,0,1.38-3.51,9.76,9.76,0,0,0,.51-2.79,4.51,4.51,0,0,0-.6-2.52,2.62,2.62,0,0,0-2.34-.9,5.42,5.42,0,0,0-2.79.84,12.43,12.43,0,0,0-2.7,2.22,26.07,26.07,0,0,0-2.46,3.09,24.74,24.74,0,0,0-2,3.51,24.14,24.14,0,0,0-1.32,3.45A10.44,10.44,0,0,0,745.41,1802.85Z"/><path class="cls-1" d="M807.39,1792.41q-2.1,2.7-4,4.89t-3.48,3.93a34.74,34.74,0,0,1-6.72,5.94,9.82,9.82,0,0,1-5,1.68,5.1,5.1,0,0,1-2.82-.81,3.19,3.19,0,0,1-1.26-2.91,7.78,7.78,0,0,1,.33-2.16,14.1,14.1,0,0,1,.87-2.25q.54-1.11,1.14-2.19.42-.66.78-1.26h-9.12l-.06.12q-1.08,1.8-2.13,3.69t-1.89,3.45q-1,1.86-1.8,3.54l-6.42.36,12.66-21.3,6.36-.24-2.82,4.26-2.28,3.48q-.66,1.14-1.2,1.92h9.18q.18-.36.6-1t.9-1.44q.54-.84,1.08-1.74,1.14-1.74,1.8-2.88t1.26-2.1l6.18-.48-4.08,6.48q-1.26,2-2.31,3.66t-1.83,2.94q-.9,1.44-1.41,2.46a16.77,16.77,0,0,0-.78,1.77,7.94,7.94,0,0,0-.36,1.26,5.13,5.13,0,0,0-.09.87,2.22,2.22,0,0,0,.21,1.05q.21.39,1,.39a7.76,7.76,0,0,0,3.57-1.65,40.44,40.44,0,0,0,6-5.43q1.62-1.74,3.57-4t3.81-4.65Z"/><path class="cls-1" d="M808,1787.13l6.42-.24-1.62,2.37-2,2.94-2.1,3.06-1.89,2.73.12.12,3.3-3.72a45.55,45.55,0,0,1,4.2-4.14,25.53,25.53,0,0,1,4-2.91,8.39,8.39,0,0,1,4.29-1.17,4.2,4.2,0,0,1,2.79.93,3.08,3.08,0,0,1,1.11,2.49,4.18,4.18,0,0,1-.45,2,4.67,4.67,0,0,1-1.23,1.5,6.23,6.23,0,0,1-1.74,1,5.76,5.76,0,0,1-2,.36,6,6,0,0,1-1.38-.12q.18-.42.42-1t.45-1.23q.21-.63.39-1.23a3.66,3.66,0,0,0,.18-1,1.87,1.87,0,0,0-.39-1.17,1.45,1.45,0,0,0-1.23-.51,5.57,5.57,0,0,0-3.21,1.41,37,37,0,0,0-3.57,3.15,71.29,71.29,0,0,0-11.64,15.42l-5.82.18Zm7.62,10q-1.2.36-2.31.66a7.2,7.2,0,0,1-1.77.3q-1,0-1-.9a1,1,0,0,1,.54-.84,3.37,3.37,0,0,1,1.8-.36q.66,0,1.62.06a5.45,5.45,0,0,1,2,.54,4.62,4.62,0,0,1,2,1.5,4,4,0,0,1,.63,2.34,7.4,7.4,0,0,1-.21,1.8q-.21.84-.45,1.56t-.45,1.38a4.33,4.33,0,0,0-.21,1.32,1.3,1.3,0,0,0,.3,1,1.21,1.21,0,0,0,.84.27,4.58,4.58,0,0,0,2.16-.66,18.31,18.31,0,0,0,2.43-1.62,28.2,28.2,0,0,0,2.31-2l1.92-1.89q1.68-1.74,3.57-3.93t4-5l.54.3a95.94,95.94,0,0,1-7.68,9.12,32.37,32.37,0,0,1-6.48,5.43,10.25,10.25,0,0,1-5,1.65,5.16,5.16,0,0,1-3.12-.84,3.42,3.42,0,0,1-1.14-2.94,6.38,6.38,0,0,1,.51-2.31q.51-1.29,1-2.25.36-.78.66-1.5t.6-1.23Z"/><path class="cls-1" d="M860.61,1792.53q-1.86,2.52-4,5a65.48,65.48,0,0,1-5.07,5.16,25.46,25.46,0,0,1-7.95,5.13,20.75,20.75,0,0,1-7.17,1.41,7.18,7.18,0,0,1-5.4-2,7.26,7.26,0,0,1-2-5.28,10.67,10.67,0,0,1,1.74-5.7,20.91,20.91,0,0,1,4.38-5,23.78,23.78,0,0,1,5.79-3.6,14.86,14.86,0,0,1,6-1.38,7,7,0,0,1,4,1,3.19,3.19,0,0,1,1.44,2.79,4.06,4.06,0,0,1-1,2.64,10.18,10.18,0,0,1-2.55,2.16,20.39,20.39,0,0,1-3.51,1.68q-2,.72-3.87,1.26t-3.6.9l-2.76.6a9,9,0,0,0-.3,2.16,6.09,6.09,0,0,0,1.44,4.2,5.08,5.08,0,0,0,4,1.62,12.69,12.69,0,0,0,5.55-1.5,25.77,25.77,0,0,0,6.09-4.38q2.34-2.22,4.5-4.65t3.78-4.53Zm-13-4.08a1.45,1.45,0,0,0-.45-1.2,1.82,1.82,0,0,0-1.17-.36,5.64,5.64,0,0,0-3.24,1.26,18.18,18.18,0,0,0-3.27,3.09,27.73,27.73,0,0,0-2.7,3.84,13.53,13.53,0,0,0-1.53,3.51,18.22,18.22,0,0,0,4.68-1.59,21,21,0,0,0,3.93-2.52,13.32,13.32,0,0,0,2.73-3A5.65,5.65,0,0,0,847.59,1788.45Z"/><path class="cls-1" d="M875.91,1797.09q1.14-1.44,2.7-3.33a35.64,35.64,0,0,1,3.39-3.57,21.81,21.81,0,0,1,3.84-2.85,7.88,7.88,0,0,1,4-1.17,4.12,4.12,0,0,1,3.09,1.2,3.84,3.84,0,0,1,1.17,2.76,8,8,0,0,1-1.32,4.17,50.38,50.38,0,0,1-2.94,4.23c-1.08,1.4-2.07,2.76-2.94,4.08a6.58,6.58,0,0,0-1.32,3.6,2,2,0,0,0,.3,1.11,1.06,1.06,0,0,0,1,.45c1.63,0,4.32-1.86,8-5.58q2.28-2.28,4.47-4.83c1.45-1.7,2.73-3.25,3.81-4.65l.48.24-1.65,2q-.93,1.14-2,2.43c-.72.86-1.5,1.75-2.31,2.67s-1.65,1.8-2.49,2.64c-1.13,1.12-2.14,2.07-3.06,2.85a22.06,22.06,0,0,1-2.55,1.89,10,10,0,0,1-2.22,1,7.07,7.07,0,0,1-2.13.33,4.4,4.4,0,0,1-3.27-1.17,4,4,0,0,1-1.17-3,8.19,8.19,0,0,1,1.32-4.14,41.67,41.67,0,0,1,2.94-4.32c1.08-1.4,2.05-2.71,2.94-3.93a5.73,5.73,0,0,0,1.32-3,1.72,1.72,0,0,0-.48-1.29,1.61,1.61,0,0,0-1.14-.45,5.27,5.27,0,0,0-2.91,1.17,25.09,25.09,0,0,0-3.45,3,50.31,50.31,0,0,0-3.57,4.14c-1.18,1.52-2.31,3-3.36,4.56s-2,2.94-2.82,4.26-1.47,2.4-1.95,3.24l-6.36.24q2-3.24,4-6.15t3.48-5.34c1-1.62,1.83-3,2.46-4.29a7.34,7.34,0,0,0,.93-2.94,2.32,2.32,0,0,0-.42-1.32,1.5,1.5,0,0,0-1.32-.6,5.27,5.27,0,0,0-2.91,1.17,25.09,25.09,0,0,0-3.45,3q-1.8,1.86-3.63,4.14t-3.45,4.56q-1.62,2.28-2.88,4.26t-2,3.24l-6.06.24q3.3-5.28,6.54-10.53t6.36-10.71l7-.36-8,10.92.12.12q1.26-1.44,2.85-3.42a38.23,38.23,0,0,1,3.45-3.78,21.4,21.4,0,0,1,4-3.06,8.75,8.75,0,0,1,4.53-1.26,4.56,4.56,0,0,1,2.85.9,3.19,3.19,0,0,1,1.17,2.7,6.05,6.05,0,0,1-.3,1.8,13.76,13.76,0,0,1-.75,1.89c-.3.62-.65,1.24-1,1.86s-.73,1.17-1.05,1.65Z"/><path class="cls-1" d="M933.33,1792.41q-2.12,2.7-4,4.89t-3.48,3.93a34.73,34.73,0,0,1-6.71,5.94,9.88,9.88,0,0,1-5,1.68,5.1,5.1,0,0,1-2.82-.81,3.19,3.19,0,0,1-1.26-2.91,7.78,7.78,0,0,1,.33-2.16,14.1,14.1,0,0,1,.87-2.25q.54-1.11,1.14-2.19.42-.66.78-1.26H904.1l-.06.12q-1.08,1.8-2.13,3.69t-1.89,3.45q-1,1.86-1.8,3.54l-6.42.36,12.66-21.3,6.36-.24-2.82,4.26-2.28,3.48q-.66,1.14-1.2,1.92h9.19a9.59,9.59,0,0,1,.59-1c.28-.48.58-1,.91-1.44l1.08-1.74c.75-1.16,1.35-2.12,1.79-2.88s.86-1.46,1.26-2.1l6.18-.48-4.08,6.48q-1.26,2-2.31,3.66T917.3,1800c-.59,1-1.07,1.78-1.41,2.46a16.77,16.77,0,0,0-.78,1.77,7.94,7.94,0,0,0-.36,1.26,5,5,0,0,0-.08.87,2.11,2.11,0,0,0,.21,1.05c.13.26.46.39,1,.39a7.76,7.76,0,0,0,3.57-1.65,40.44,40.44,0,0,0,6-5.43q1.62-1.74,3.58-4t3.8-4.65Z"/><path class="cls-1" d="M969.92,1792.41q-1.8,2.34-3.39,4.32t-3.09,3.54a42.32,42.32,0,0,1-7.38,6.69,9.94,9.94,0,0,1-5.16,1.89,4.14,4.14,0,0,1-3-1,3.66,3.66,0,0,1-1.11-2.79,8.51,8.51,0,0,1,1-4q.84-1.62,1.86-3.36l-.54.54a7.49,7.49,0,0,1-2.1,1.44,9.46,9.46,0,0,1-1.74.69q-.78.21-1.8.45a23.28,23.28,0,0,1-1.23,2.46,10.31,10.31,0,0,1-2.61,2.88,11.28,11.28,0,0,1-4.41,2.19,15.18,15.18,0,0,1-4,.51,17.83,17.83,0,0,1-2.16-.24,5.53,5.53,0,0,1-2-.78,4.49,4.49,0,0,1-1.53-1.62,4.84,4.84,0,0,1-.57-2.4,10.17,10.17,0,0,1,.3-2.16,11.42,11.42,0,0,1,1.14-2.82q.48-.9,1.29-2.16l1.53-2.4,4.5-6.9,6.54-.48-6.72,9.84a36.33,36.33,0,0,0-3.06,5.19,8.82,8.82,0,0,0-.9,3.51,3.29,3.29,0,0,0,.57,1.83,2,2,0,0,0,1.77.87,5.57,5.57,0,0,0,2.85-.75,6.74,6.74,0,0,0,2.19-2.07,10.54,10.54,0,0,0,1.53-3.15,18.39,18.39,0,0,0,.51-2.49q-.18-.24-.51-.78a3,3,0,0,1-.33-1.56,2.82,2.82,0,0,1,1-2.37,3.18,3.18,0,0,1,2-.75,2.7,2.7,0,0,1,2,.87,3.73,3.73,0,0,1,.87,2.73,12.43,12.43,0,0,1-.06,1.29,5.88,5.88,0,0,1-.18,1q.48-.12,1.29-.27a6.56,6.56,0,0,0,1.83-.69,9.69,9.69,0,0,0,2.19-1.53,15.36,15.36,0,0,0,1.71-1.89q.48-.6.9-1.2l.78-1.32c.72-1.2,1.39-2.31,2-3.33s1.12-1.85,1.52-2.49l6.18-.48-5,8q-.6,1-1.2,1.86l-1,1.59-.81,1.29a27.05,27.05,0,0,0-2.13,3.93,7.87,7.87,0,0,0-.75,2.91q0,.9.39,1.11a1.61,1.61,0,0,0,.75.21q1.32,0,4.11-2a46.66,46.66,0,0,0,6.45-6q1.44-1.56,3.09-3.48t3.39-4.2Z"/><path class="cls-1" d="M976.28,1801.53q-1.62,1.74-2.94,3a21.85,21.85,0,0,1-2.52,2.1,11.79,11.79,0,0,1-3.24,1.74,9.44,9.44,0,0,1-2.88.48,3.7,3.7,0,0,1-2.91-1.11,4.21,4.21,0,0,1-1-2.91,8.68,8.68,0,0,1,.87-3.36,37.27,37.27,0,0,1,2.25-4.26l6-10.08,6.36-.24-6.78,10.44q-3.9,5.94-3.9,8.28a2.18,2.18,0,0,0,.36,1.29,1.23,1.23,0,0,0,1.08.51,5.58,5.58,0,0,0,2.76-1,21,21,0,0,0,3.3-2.55q.84-.78,1.74-1.74t1.68-1.92q.78-1,1.41-1.83t1-1.47l5.88-9.54,6.18-.48q-2.46,4-4.47,7.14t-3.42,5.46a43.74,43.74,0,0,0-2.19,4,7.09,7.09,0,0,0-.78,2.88q0,1.38,1.14,1.38t3.84-1.83a38,38,0,0,0,5.52-5q1.68-1.8,3.6-4t4.08-5l.48.36q-2.1,2.76-4,5t-3.66,4.08q-2,2-3.57,3.45a21.14,21.14,0,0,1-3,2.25,12.42,12.42,0,0,1-2.58,1.23,7.38,7.38,0,0,1-2.28.39,4,4,0,0,1-2.94-1,3.71,3.71,0,0,1-1.08-2.79,9,9,0,0,1,.15-1.8,6.5,6.5,0,0,1,.57-1.56Zm15.9-26.52a19.15,19.15,0,0,1-1.95,2.52,13.76,13.76,0,0,1-2.61,2.16,12.41,12.41,0,0,1-2.64,1.23,10.81,10.81,0,0,1-3.48.51q-1,0-2.31-.09a9.57,9.57,0,0,1-2.61-.57,5.26,5.26,0,0,1-1.74-1.14,2.59,2.59,0,0,1-.72-1.92,2.65,2.65,0,0,1,.66-1.86,4.07,4.07,0,0,1,1.68-1.08,8.46,8.46,0,0,1,1.86-.42,16,16,0,0,1,1.86-.12q.42,0,1.32.09t1.5.21l-.12.54a2.58,2.58,0,0,0-.48-.06H982a3.77,3.77,0,0,0-2.22.72,2.35,2.35,0,0,0-1,2,2.44,2.44,0,0,0,1.2,2.16,4.78,4.78,0,0,0,2.64.66,8,8,0,0,0,2.55-.39,9.6,9.6,0,0,0,2.19-1,11.15,11.15,0,0,0,2.49-2.07,13.07,13.07,0,0,0,1.77-2.43Z"/><path class="cls-1" d="M1030.58,1786.53h1.26a15,15,0,0,0,5.28-1,15.38,15.38,0,0,0,4.68-2.76,10.59,10.59,0,0,0,3.78-8.34,9.07,9.07,0,0,0-.75-3.84,8.47,8.47,0,0,0-2-2.76,7,7,0,0,0-2.76-1.53,11.85,11.85,0,0,0-3.3-.45,13.57,13.57,0,0,0-5.07,1,13.17,13.17,0,0,0-4.47,2.94,14.52,14.52,0,0,0-2.64,3.66,9.11,9.11,0,0,0-1.08,4.2,5.78,5.78,0,0,0,1.44,4.26,4.78,4.78,0,0,0,1.5,1,5.25,5.25,0,0,0,2.1.39,9.21,9.21,0,0,0,3.15-.6,8.28,8.28,0,0,0,3-2,11.35,11.35,0,0,0,1.65-2.13,12,12,0,0,0,1.23-2.85l.72.06a12,12,0,0,1-3.06,5.46,10.22,10.22,0,0,1-3.57,2.43,10.47,10.47,0,0,1-3.93.81,13.81,13.81,0,0,1-2.82-.3,6.12,6.12,0,0,1-2.58-1.2,6.81,6.81,0,0,1-1.83-2.22,6.38,6.38,0,0,1-.69-3,8.92,8.92,0,0,1,1.56-4.92,14.47,14.47,0,0,1,4.32-4.2,21.73,21.73,0,0,1,6.15-2.91,23.91,23.91,0,0,1,6.51-.87,29.37,29.37,0,0,1,4.65.39,11.1,11.1,0,0,1,4.23,1.53,10.47,10.47,0,0,1,2.82,2.61,6.67,6.67,0,0,1,1.26,4.17,9.46,9.46,0,0,1-1.41,5.13,14.72,14.72,0,0,1-3.75,4,20.78,20.78,0,0,1-4.26,2.34,24.74,24.74,0,0,1-5,1.44v.12a15.3,15.3,0,0,1,3,.6,8.85,8.85,0,0,1,2.76,1.32,6.6,6.6,0,0,1,2.64,5.4,11.91,11.91,0,0,1-1.74,6.09,16.8,16.8,0,0,1-5.76,5.49,16.56,16.56,0,0,1-3.21,1.59,32.47,32.47,0,0,1-3.81,1.17,33.82,33.82,0,0,1-4,.72,33.42,33.42,0,0,1-3.9.24q-1.2,0-2.49-.06a19.7,19.7,0,0,1-2.61-.3,18.76,18.76,0,0,1-2.58-.66,11.36,11.36,0,0,1-2.34-1.08,8,8,0,0,1-3.15-3.3,8.23,8.23,0,0,1-.81-3.36,5.55,5.55,0,0,1,.58-2.46,5.72,5.72,0,0,1,1.42-1.92,6.7,6.7,0,0,1,2.37-1.23,9.6,9.6,0,0,1,2.71-.39,6.07,6.07,0,0,1,2.64.6,8.67,8.67,0,0,1,2.22,1.5l-.18.48a6.78,6.78,0,0,0-1.14-.27,7.05,7.05,0,0,0-1-.09,4.42,4.42,0,0,0-2.85,1.11,4.21,4.21,0,0,0-1.35,3.45,5.73,5.73,0,0,0,.81,3.06,8.05,8.05,0,0,0,2.12,2.28,9.55,9.55,0,0,0,2.91,1.38,11.35,11.35,0,0,0,3.2.48,16.2,16.2,0,0,0,6.1-1.23,16,16,0,0,0,5.51-3.75,14.94,14.94,0,0,0,2.84-4.32,12.66,12.66,0,0,0,1.17-5.28,9.88,9.88,0,0,0-.42-3,4.87,4.87,0,0,0-1.44-2.22,6,6,0,0,0-4.26-1.44,11.82,11.82,0,0,0-1.32.09,9.71,9.71,0,0,0-1.44.27Z"/><path class="cls-1" d="M1073.78,1787.49l6.24-.36a25.27,25.27,0,0,1-1.56,2.61l-2.22,3.3q-1.2,1.77-2.43,3.66t-2.25,3.66a28.14,28.14,0,0,0-1.65,3.3,7.09,7.09,0,0,0-.63,2.61,1.33,1.33,0,0,0,1.5,1.5,7.78,7.78,0,0,0,3.9-1.68,34.93,34.93,0,0,0,5.16-4.44q1.14-1.14,2.31-2.46t2.25-2.61q1.08-1.29,2-2.4t1.44-1.83l.42.24q-1.56,2.1-3.6,4.65a66.81,66.81,0,0,1-4.92,5.43,36.22,36.22,0,0,1-5.67,4.71,10.07,10.07,0,0,1-5.55,1.83,4.16,4.16,0,0,1-3-1,3.21,3.21,0,0,1-1-2.43,6.37,6.37,0,0,1,.06-.9,2.21,2.21,0,0,1,.18-.66h-.12a18.63,18.63,0,0,1-4.2,3.54,9.45,9.45,0,0,1-5,1.44,5.2,5.2,0,0,1-2.46-.54,4.5,4.5,0,0,1-1.65-1.47,6.66,6.66,0,0,1-.93-2.1,9.75,9.75,0,0,1-.3-2.43,12.09,12.09,0,0,1,1.62-5.88,22.25,22.25,0,0,1,4.08-5.31,21.22,21.22,0,0,1,5.49-3.84,13.27,13.27,0,0,1,5.79-1.47,5.39,5.39,0,0,1,3.3.9,6.45,6.45,0,0,1,2,2.82Zm-18,15.36a7.45,7.45,0,0,0,.57,3,2.37,2.37,0,0,0,2.43,1.29,5,5,0,0,0,2.64-1.05,15.37,15.37,0,0,0,2.67-2.49,29.31,29.31,0,0,0,2.46-3.33,32.11,32.11,0,0,0,2-3.69,27.53,27.53,0,0,0,1.38-3.51,9.76,9.76,0,0,0,.51-2.79,4.51,4.51,0,0,0-.6-2.52,2.62,2.62,0,0,0-2.34-.9,5.42,5.42,0,0,0-2.79.84,12.43,12.43,0,0,0-2.7,2.22,26.07,26.07,0,0,0-2.46,3.09,24.74,24.74,0,0,0-2,3.51,24.14,24.14,0,0,0-1.32,3.45A10.44,10.44,0,0,0,1055.78,1802.85Z"/><path class="cls-1" d="M1080.2,1805.19a3.11,3.11,0,0,0,.6,2,2.24,2.24,0,0,0,2,1,6,6,0,0,0,2.67-.75,12.58,12.58,0,0,0,2.73-1.89,48.08,48.08,0,0,0,4.17-4.41,76.39,76.39,0,0,0,5.91-8.19q.84-1.26,1.65-2.64t1.71-2.88l6.18-.48q-1.86,3.06-3.51,5.64l-3,4.74q-2,3.24-3.21,5.49a7.68,7.68,0,0,0-1.11,3.57,2,2,0,0,0,.24,1,1,1,0,0,0,.9.42,7.42,7.42,0,0,0,3.63-1.65,40.81,40.81,0,0,0,5.67-5.07q1.74-1.74,3.63-4t4.11-5l.48.36q-2.1,2.76-4,5t-3.69,4.14a35.46,35.46,0,0,1-6.45,5.61,9.41,9.41,0,0,1-4.83,1.65,3.67,3.67,0,0,1-3-1.17,4.35,4.35,0,0,1-1-2.91,6.9,6.9,0,0,1,.42-2.28,12.38,12.38,0,0,1,.9-2l-.12-.12q-1.62,2-2.79,3.3t-2.49,2.46a9.29,9.29,0,0,1-6.36,2.76,6.44,6.44,0,0,1-4-1.29,4.41,4.41,0,0,1-1.71-3.75,4.54,4.54,0,0,1,.9-2.85,3.33,3.33,0,0,1,2.82-1.17,2.61,2.61,0,0,1,2.64,2.7,3,3,0,0,1-.69,1.8A2.31,2.31,0,0,1,1080.2,1805.19Z"/><path class="cls-1" d="M203.44,1710.37V1710a8.67,8.67,0,0,0,2-.42,2.71,2.71,0,0,0,1.54-2,18.83,18.83,0,0,0,.35-4.2v-32.49a25,25,0,0,0-.21-3.85,1.69,1.69,0,0,0-1-1.33,8.3,8.3,0,0,0-2.8-.56v-.35c1-.07,3-.28,5.11-.56,1.19-.14,2.66-.42,3.29-.42.35,0,.49.14.49.49,0,1-.14,2.59-.14,4.41v34.66a19.56,19.56,0,0,0,.21,4.2,2.5,2.5,0,0,0,1.33,1.89,5.65,5.65,0,0,0,2.38.56v.35Z"/><path class="cls-1" d="M248.1,1663c-2.17,6.09-5.74,8.33-12.25,8.33a17.27,17.27,0,0,1-6.79-1.47l-3.36,15.75.21.07c2-2.94,5.11-4.76,9.66-4.76,7.28,0,12.18,4.9,12.18,12.47,0,8.75-6.09,18-17.5,18-8.12,0-11.76-4.76-11.76-8.68,0-2.17,1.4-3.08,2.66-3.08,1.61,0,2.31,1.26,2.31,3.29a10.41,10.41,0,0,0,.84,4.69c.77,1.54,2.17,2.8,5.67,2.8,7.28,0,12.39-7.63,12.46-16.17.07-6.87-2-11.84-8.68-11.84-4.9,0-7.14,3.08-8.26,6l-1.26-.21,5-23.66h.49c2.31,1.89,4.06,2.87,8.61,2.87,5.32,0,8-1.89,9.24-4.48Z"/><path class="cls-1" d="M257.06,1680.54a3.33,3.33,0,0,1-.07,6.65,3.29,3.29,0,0,1-3.29-3.29A3.41,3.41,0,0,1,257.06,1680.54Zm0,24.23a3.33,3.33,0,0,1-.07,6.65,3.29,3.29,0,0,1-3.29-3.29A3.41,3.41,0,0,1,257.06,1704.77Z"/><path class="cls-1" d="M283,1711.35c-10.71,0-17.22-11.2-17.22-24.37,0-12.81,6.65-23.52,17.22-23.52s17.22,10.15,17.22,23.52C300.25,1699.73,293.74,1711.35,283,1711.35Zm0-46.91c-7.49,0-11.76,6.79-11.76,22.54,0,15.55,4.41,23.39,11.76,23.39s11.76-7.63,11.76-23.39S290.45,1664.44,283,1664.44Z"/><path class="cls-1" d="M321.67,1711.35c-10.71,0-17.22-11.2-17.22-24.37,0-12.81,6.65-23.52,17.22-23.52s17.22,10.15,17.22,23.52C338.89,1699.73,332.38,1711.35,321.67,1711.35Zm0-46.91c-7.49,0-11.76,6.79-11.76,22.54,0,15.55,4.41,23.39,11.76,23.39s11.76-7.63,11.76-23.39S329.09,1664.44,321.67,1664.44Z"/><path class="cls-1" d="M205.85,1807.22v-.34a9.22,9.22,0,0,0,2-.42,2.71,2.71,0,0,0,1.54-2,18.2,18.2,0,0,0,.35-4.2v-32.48a25,25,0,0,0-.21-3.85,1.69,1.69,0,0,0-1-1.33,8.3,8.3,0,0,0-2.8-.56v-.35c1-.07,3-.28,5.12-.56,1.19-.14,2.66-.42,3.29-.42.35,0,.49.14.49.49,0,1-.14,2.59-.14,4.41v34.65a19.53,19.53,0,0,0,.21,4.2,2.5,2.5,0,0,0,1.33,1.89,5.82,5.82,0,0,0,2.38.57v.34Z"/><path class="cls-1" d="M232.87,1802.81c-.7,3.79-1.54,5.4-3.57,5.4-1.82,0-2.66-1.19-2.66-3,0-4.63,3.78-11.07,5.88-15.13,3.64-6.72,10.44-17.85,14.92-24.5v-.14H231.05c-2,0-3.92-.07-5.32.91-1,.7-1.61,1.61-2.66,4.2h-.56l2-11.48H225c.56,1.12,1.4,2.24,4.06,2.24h21.92v1.12C240.86,1776.84,236.44,1784.47,232.87,1802.81Z"/><path class="cls-1" d="M254.64,1777.4a3.33,3.33,0,1,1-.07,6.65,3.29,3.29,0,0,1-3.29-3.29A3.41,3.41,0,0,1,254.64,1777.4Zm0,24.22a3.33,3.33,0,1,1-.07,6.66,3.29,3.29,0,0,1-3.29-3.3A3.41,3.41,0,0,1,254.64,1801.62Z"/><path class="cls-1" d="M280.62,1808.21c-10.72,0-17.23-11.21-17.23-24.37,0-12.81,6.65-23.52,17.23-23.52s17.22,10.15,17.22,23.52C297.84,1796.58,291.33,1808.21,280.62,1808.21Zm0-46.91c-7.5,0-11.77,6.79-11.77,22.54,0,15.54,4.42,23.38,11.77,23.38s11.76-7.63,11.76-23.38S288,1761.3,280.62,1761.3Z"/><path class="cls-1" d="M319.25,1808.21c-10.71,0-17.22-11.21-17.22-24.37,0-12.81,6.65-23.52,17.22-23.52s17.23,10.15,17.23,23.52C336.48,1796.58,330,1808.21,319.25,1808.21Zm0-46.91c-7.49,0-11.76,6.79-11.76,22.54,0,15.54,4.41,23.38,11.76,23.38s11.77-7.63,11.77-23.38S326.68,1761.3,319.25,1761.3Z"/><path class="cls-1" d="M405,547.82h7.56l-11.88,18h18l12.24-18h8.28L424.1,568.46q-3.24,4.56-4.92,7.44a28.13,28.13,0,0,0-3.06,6.24,13.46,13.46,0,0,0-.54,2.76,3.67,3.67,0,0,0,1,2.88,3.2,3.2,0,0,0,2.16.84,10.25,10.25,0,0,0,2.94-.54,18.65,18.65,0,0,0,4.08-2,43,43,0,0,0,5.28-4q2.94-2.52,6.78-6.48a172.89,172.89,0,0,0,15-18.24l1.2.36a159.88,159.88,0,0,1-15.48,19q-13,13.32-20.52,13.32a8.35,8.35,0,0,1-5.82-1.92,6.37,6.37,0,0,1-2.1-4.92,13.45,13.45,0,0,1,.3-2.58,16.18,16.18,0,0,1,1-3.18q.6-1.2,1.56-3a26.62,26.62,0,0,1,1.92-3.12l2.76-4.08H399.86L385.94,589.1H378.5Z"/><path class="cls-1" d="M485.18,547.82H493q-4.44,6.24-8.52,12.12T477.2,570.8q-3.18,5-5.1,8.76a14.41,14.41,0,0,0-1.92,5.94q0,3.12,3.24,3.12,2.52,0,6.42-2.46a56.37,56.37,0,0,0,8.46-6.78,117.54,117.54,0,0,0,9.36-10.08,143,143,0,0,0,9.12-12.24l.72.24q-3.24,4.92-7.62,10.62a119.11,119.11,0,0,1-9.18,10.62,64.94,64.94,0,0,1-9.6,8.22q-4.8,3.3-9,3.3c-2.32,0-4-.59-5.1-1.74a5.87,5.87,0,0,1-1.62-4.14,10.37,10.37,0,0,1,.54-3.3q.54-1.62,1.14-3.3l-.24-.12q-1.56,1.68-3.9,3.9a46.26,46.26,0,0,1-5,4.14,34.24,34.24,0,0,1-5.58,3.24,13.24,13.24,0,0,1-5.52,1.32c-3,0-5-.93-6.24-2.76a11.17,11.17,0,0,1-1.8-6.24,23.68,23.68,0,0,1,3.12-10.86A52.62,52.62,0,0,1,449.78,559a49.48,49.48,0,0,1,10.44-8.7,20.49,20.49,0,0,1,10.68-3.48,12.18,12.18,0,0,1,4.2.66,8.57,8.57,0,0,1,3,1.8A8.32,8.32,0,0,1,480,551.9a15.6,15.6,0,0,1,1,3h.24Zm-39.24,33.6a6.92,6.92,0,0,0,1.14,4.26,3.77,3.77,0,0,0,3.18,1.5,10.41,10.41,0,0,0,4.8-1.5,35.27,35.27,0,0,0,5.76-4,57.74,57.74,0,0,0,5.94-5.82,49.14,49.14,0,0,0,5.22-7,44.09,44.09,0,0,0,3.72-7.56,20.85,20.85,0,0,0,1.44-7.32,5.17,5.17,0,0,0-5.4-5.64q-3.6,0-8,3.12a42.3,42.3,0,0,0-8.4,8,49.85,49.85,0,0,0-6.66,10.74A27,27,0,0,0,445.94,581.42Z"/><path class="cls-1" d="M576.62,559a73.66,73.66,0,0,1-7.26,9.54,91.89,91.89,0,0,1-9.78,9.54,70,70,0,0,1-13,8.7,27.93,27.93,0,0,1-12.72,3.3,11.73,11.73,0,0,1-7.44-2.34,8.22,8.22,0,0,1-3-6.9,24.2,24.2,0,0,1,3.3-11.76,48.6,48.6,0,0,1,8.28-11A44.8,44.8,0,0,1,546,550a24.2,24.2,0,0,1,11.22-3.12,13.69,13.69,0,0,1,6.06,1.26,4.47,4.47,0,0,1,2.58,4.38,3.68,3.68,0,0,1-.78,2.4,6.22,6.22,0,0,1-1.92,1.56,10.18,10.18,0,0,1-2.52.9,24.44,24.44,0,0,1-2.46.42,25.43,25.43,0,0,0,.84-2.46,9.35,9.35,0,0,0,.36-2.58q0-4.44-4.2-4.44-3.14,0-7.38,3.06a41.65,41.65,0,0,0-8,7.74,49.83,49.83,0,0,0-6.42,10.32,25.7,25.7,0,0,0-2.64,10.92,9.74,9.74,0,0,0,1.5,5.52,5.13,5.13,0,0,0,4.62,2.28,22,22,0,0,0,9.66-2.76,62.85,62.85,0,0,0,10.62-6.84,83.31,83.31,0,0,0,10.38-9.66,84.61,84.61,0,0,0,8.34-10.62Z"/><path class="cls-1" d="M575.06,563.54q-4.57,7.2-6.9,11.76c-1.56,3-2.35,5.56-2.35,7.56a6,6,0,0,0,1.39,4.26,5.32,5.32,0,0,0,4.13,1.5q3.36,0,8.83-3.54a43.55,43.55,0,0,0,10.74-10.62q1.67-2.28,3.24-4.74a51.38,51.38,0,0,0,2.69-4.8,32.3,32.3,0,0,0,1.81-4.5,14,14,0,0,0,.65-4,6,6,0,0,0-.59-2.94,5.76,5.76,0,0,1-.6-2.94,3.51,3.51,0,0,1,1-2.88,3.38,3.38,0,0,1,2.21-.84,3.66,3.66,0,0,1,3.25,2,11.85,11.85,0,0,1,1.19,5.88c0,1,0,1.94-.11,2.7s-.21,1.58-.37,2.46a13.35,13.35,0,0,0,3.06,2.52,11,11,0,0,0,6.19,1.56,11.59,11.59,0,0,0,6.66-1.92,22,22,0,0,0,4.74-4.32l.84.84a31.68,31.68,0,0,1-5,4.44,12.19,12.19,0,0,1-7.31,2.16,13.1,13.1,0,0,1-5.34-1.08,16.76,16.76,0,0,1-4.27-2.64,37.57,37.57,0,0,1-4.5,9.06,46.86,46.86,0,0,1-6.65,7.74q-7.21,6.72-13.08,9.24a27.52,27.52,0,0,1-10.68,2.52,10.14,10.14,0,0,1-7.09-2.64,9,9,0,0,1-2.75-7,15,15,0,0,1,1.19-5.22,56.77,56.77,0,0,1,3-6.3q1.72-3.24,3.59-6.36c1.24-2.08,2.35-3.84,3.31-5.28l18.12-28a76.08,76.08,0,0,1,6.72-8.7,60.4,60.4,0,0,1,8.87-8,36.89,36.89,0,0,1,9.25-5.34,23.64,23.64,0,0,1,8.4-1.74q4.06,0,5.46,1.2a4.54,4.54,0,0,1,1.37,3.6,13.2,13.2,0,0,1-2.69,7.2,46.68,46.68,0,0,1-7.75,8.4q-3.84,3.48-8.45,7T601,539.66l-18.73,12.72Zm24.71-24.48a98.19,98.19,0,0,0,8.58-6.66,60.82,60.82,0,0,0,7.5-7.62,43.82,43.82,0,0,0,5-7.62,15.58,15.58,0,0,0,1.92-6.9,3.37,3.37,0,0,0-.78-2.52,3.2,3.2,0,0,0-2.23-.72,9.65,9.65,0,0,0-5,1.74,32.07,32.07,0,0,0-5.46,4.44,54.62,54.62,0,0,0-5.15,6,73.86,73.86,0,0,0-4.26,6.3L583.81,550Z"/><path class="cls-1" d="M658.33,547.82h7.8q-4.44,6.24-8.52,12.12t-7.26,10.86q-3.18,5-5.1,8.76a14.41,14.41,0,0,0-1.92,5.94q0,3.12,3.24,3.12,2.52,0,6.42-2.46a56.37,56.37,0,0,0,8.46-6.78,117.54,117.54,0,0,0,9.36-10.08,143,143,0,0,0,9.12-12.24l.72.24q-3.24,4.92-7.62,10.62a119.11,119.11,0,0,1-9.18,10.62,64.94,64.94,0,0,1-9.6,8.22q-4.8,3.3-9,3.3c-2.32,0-4-.59-5.1-1.74a5.87,5.87,0,0,1-1.62-4.14,10.37,10.37,0,0,1,.54-3.3q.54-1.62,1.14-3.3l-.24-.12q-1.56,1.68-3.9,3.9a46.26,46.26,0,0,1-5,4.14,34.24,34.24,0,0,1-5.58,3.24,13.24,13.24,0,0,1-5.52,1.32c-3,0-5-.93-6.24-2.76a11.17,11.17,0,0,1-1.8-6.24A23.68,23.68,0,0,1,615,570.2,52.62,52.62,0,0,1,622.93,559a49.48,49.48,0,0,1,10.44-8.7,20.49,20.49,0,0,1,10.68-3.48,12.18,12.18,0,0,1,4.2.66,8.57,8.57,0,0,1,3,1.8,8.32,8.32,0,0,1,1.86,2.58,15.6,15.6,0,0,1,1,3h.24Zm-39.24,33.6a6.92,6.92,0,0,0,1.14,4.26,3.77,3.77,0,0,0,3.18,1.5,10.41,10.41,0,0,0,4.8-1.5,35.27,35.27,0,0,0,5.76-4,57.74,57.74,0,0,0,5.94-5.82,49.14,49.14,0,0,0,5.22-7,44.09,44.09,0,0,0,3.72-7.56,20.85,20.85,0,0,0,1.44-7.32,5.17,5.17,0,0,0-5.4-5.64q-3.6,0-8,3.12a42.3,42.3,0,0,0-8.4,8,49.85,49.85,0,0,0-6.66,10.74A27,27,0,0,0,619.09,581.42Z"/><path class="cls-1" d="M731.53,558.5q-4.2,4.56-8.4,8.46a86.5,86.5,0,0,1-8.76,7.14,80,80,0,0,1-22.32,10.68,27.44,27.44,0,0,1-7.92,4,25.74,25.74,0,0,1-7.56,1.26,9.62,9.62,0,0,1-7.26-2.82q-2.7-2.82-2.7-8a17.8,17.8,0,0,1,1.44-6.84,37.4,37.4,0,0,1,3.54-6.6,50,50,0,0,1,4.38-5.64q2.28-2.52,4-4.08A37.2,37.2,0,0,1,690.55,549a23.81,23.81,0,0,1,8.7-2.16,11.12,11.12,0,0,1,2.16.24,5.82,5.82,0,0,1,2.28,1,7.79,7.79,0,0,1,3.12,5.7h.36q3.24-7.92,5.88-16.56a60.44,60.44,0,0,0,2.64-17.76q0-7-2.76-9.6a8.57,8.57,0,0,0-6.12-2,12.61,12.61,0,0,0-4,.72,22,22,0,0,0-4.2,1.92q-2.4,1.56-4.44,3l-.6-1.08a40.7,40.7,0,0,1,6.12-4.08,29.3,29.3,0,0,1,5.22-2,21.17,21.17,0,0,1,5.7-.72,10.35,10.35,0,0,1,7,2.16q4.08,3.36,4.08,12.6a47.71,47.71,0,0,1-.42,6.12q-.42,3.24-1.14,6.6t-1.68,6.6q-1,3.24-1.92,6.12t-2.52,6.6q-1.44,3.6-3.12,7.26t-3.48,7.08a51.61,51.61,0,0,1-3.6,5.94,47.83,47.83,0,0,1-4,5.1,55.39,55.39,0,0,1-5.34,5.1,68,68,0,0,0,10.26-4.26,80.25,80.25,0,0,0,9.18-5.58,102.14,102.14,0,0,0,8.46-6.84q4.14-3.72,8.34-8.28Zm-32.88-10.2q-2.88,0-7,2.88a40.53,40.53,0,0,0-7.86,7.32,56,56,0,0,0-7.62,11.7,26.78,26.78,0,0,0-3.06,11.58q0,3.72,1.32,5.28a4.34,4.34,0,0,0,3.48,1.56,15.1,15.1,0,0,0,7.56-2.4,32.12,32.12,0,0,0,8.28-7.56,61.07,61.07,0,0,0,4.68-6.84,50.69,50.69,0,0,0,3.3-6.6,42.81,42.81,0,0,0,1.92-5.82,19.63,19.63,0,0,0,.66-4.5Q704.29,548.3,698.65,548.3Z"/><path class="cls-1" d="M773.77,557.18a30.68,30.68,0,0,1-5.64,6.18,62.21,62.21,0,0,1-6.24,4.62,35.94,35.94,0,0,1-6.9,3.48,46.17,46.17,0,0,1-5.94,1.68,31.54,31.54,0,0,1-2,5.46,20.38,20.38,0,0,1-5.76,6.9,20.59,20.59,0,0,1-13.56,4.56,9.77,9.77,0,0,1-7.2-2.64,9.41,9.41,0,0,1-2.64-7A20.32,20.32,0,0,1,719,574.4a25.39,25.39,0,0,1,3.9-7.26l13.8-19.32h7.92l-11.28,15.24A81.5,81.5,0,0,0,726,574.58a18.72,18.72,0,0,0-2.1,8.16,6.53,6.53,0,0,0,1.38,4.08,4.5,4.5,0,0,0,3.78,1.8,14.57,14.57,0,0,0,4.56-.84,12.25,12.25,0,0,0,5.16-4,16.16,16.16,0,0,0,3-5.28,31.37,31.37,0,0,0,1.2-5.28,4,4,0,0,1-1.86-2.1,8.41,8.41,0,0,1-.66-3.42q0-3.36,1.5-4.74a4.53,4.53,0,0,1,3.06-1.38,4,4,0,0,1,3.24,1.62,7.14,7.14,0,0,1,1.32,4.62q0,1.56-.06,2.16t-.18,1.92a24,24,0,0,0,5.64-1.56,42,42,0,0,0,6-3,49,49,0,0,0,6.54-4.92,36.4,36.4,0,0,0,5.58-6Z"/><path class="cls-1" d="M793.21,577.7a41.16,41.16,0,0,1-11.58,9.24,26.16,26.16,0,0,1-12.06,3.12,9.12,9.12,0,0,1-7.38-3.06,11.42,11.42,0,0,1-2.58-7.62,18.83,18.83,0,0,1,1.56-7.32,37.59,37.59,0,0,1,4.08-7.26,50.25,50.25,0,0,1,5.76-6.72,65.84,65.84,0,0,1,6.6-5.7,27.05,27.05,0,0,1,8.34-4.26,26.61,26.61,0,0,1,7.38-1.26,9.85,9.85,0,0,1,2.76.42,9.71,9.71,0,0,1,2.76,1.32,8.2,8.2,0,0,1,2.28,2.4,9.67,9.67,0,0,1,1.32,3.66h.24l4.32-33a31,31,0,0,1,1.2-5.4,12.66,12.66,0,0,1,2.52-4.56,8.66,8.66,0,0,1,4-2.7,15.32,15.32,0,0,1,4.38-.66,17.4,17.4,0,0,1,4.62.72,48.5,48.5,0,0,1,5,1.68q2.76,1,5.22,1.68a17.64,17.64,0,0,0,5,.72,9.55,9.55,0,0,0,3.36-.54,8.28,8.28,0,0,0,2.88-2,19.53,19.53,0,0,0,1.92-2.22,29.39,29.39,0,0,0,1.8-2.82l1,.6q-1.56,2.64-2.94,4.68a25.25,25.25,0,0,1-3.06,3.72,11.6,11.6,0,0,1-4.2,2.82,12.65,12.65,0,0,1-4.32.78,20.07,20.07,0,0,1-5-.66q-2.58-.66-5.82-1.74-3.6-1.2-5.88-1.86a14.55,14.55,0,0,0-4-.66,4.67,4.67,0,0,0-4.2,2.28,16.15,16.15,0,0,0-2,6.12l-4.32,33.12q-.12.6-.54,3.18a32.06,32.06,0,0,1-1.74,6.06,41,41,0,0,1-3.24,6.66,36.85,36.85,0,0,1-4.2,5.7q14.76-3.12,28.68-18.48l.72.6Q810.13,574.34,793.21,577.7Zm4.08-23.16q0-3.24-1.44-4.74a5.23,5.23,0,0,0-4-1.5,12.47,12.47,0,0,0-6.06,2.1,34.06,34.06,0,0,0-7.26,6.06,48.58,48.58,0,0,0-9.66,14.1q-2.82,6.78-2.82,11.22a9,9,0,0,0,1.2,5,4,4,0,0,0,3.6,1.8q3.24,0,8-2.7a29.69,29.69,0,0,0,9.06-8.7,54.29,54.29,0,0,0,7.14-13A30.53,30.53,0,0,0,797.29,554.54Z"/><path class="cls-1" d="M836.41,547.82q-4.32,6.24-8.64,12T820,570.38q-3.42,4.8-5.58,8.46t-2.16,5.82q0,3.48,3.36,3.48t8.1-3.36a68.7,68.7,0,0,0,9.78-8.94A148.69,148.69,0,0,0,844,563q5.34-7.26,10.26-15.18h7.44q-7.08,9.72-13.2,20t-12.84,20.34a50,50,0,0,0,21.78-10,84.49,84.49,0,0,0,18.42-19.86l.84.36a79.71,79.71,0,0,1-19.62,21.18q-11,8-22.26,9.78-4.68,6.36-9.54,12.9a79.65,79.65,0,0,1-10.68,11.76,53.47,53.47,0,0,1-12.78,8.52,36.25,36.25,0,0,1-15.72,3.3,27.34,27.34,0,0,1-7.5-1,21.41,21.41,0,0,1-6.18-2.82,14.38,14.38,0,0,1-4.2-4.32,10.08,10.08,0,0,1-1.56-5.4c0-4.17,1.38-7.2,4.14-9.12a17.11,17.11,0,0,1,10-2.88v.36a10,10,0,0,0-6.36,3.9,12.6,12.6,0,0,0-2,7.38,11.57,11.57,0,0,0,1.2,5.34,12.12,12.12,0,0,0,3.12,3.9,14.53,14.53,0,0,0,4.38,2.4,16,16,0,0,0,5.1.84A24.27,24.27,0,0,0,797.17,622a47.14,47.14,0,0,0,10.14-7,83.66,83.66,0,0,0,9.3-9.78q4.44-5.47,8.4-11.28t7.38-11.4q3.42-5.58,6.3-10l-.24-.24q-1.92,2.28-4.68,5.34a59.85,59.85,0,0,1-6.06,5.82,38.31,38.31,0,0,1-7,4.68,16.67,16.67,0,0,1-7.68,1.92c-2.56,0-4.4-.53-5.52-1.56a5.45,5.45,0,0,1-1.68-4.2,12.09,12.09,0,0,1,1.26-5.1,52.23,52.23,0,0,1,4-6.78q2.76-4.08,7-10t10.26-14.64Z"/><path class="cls-1" d="M380.2,437.83c.7,0,1.61.07,2.75.1s2.25.05,3.35.05c1.46,0,2.87,0,4.22-.05l2.83-.05q5,0,7.52,1.93a5.94,5.94,0,0,1,2.53,4.92,6.61,6.61,0,0,1-1.58,4.18q-1.57,2-5.52,3v.1a15.35,15.35,0,0,1,5.87,1.7A7,7,0,0,1,406,460a7.09,7.09,0,0,1-3.05,5.9c-2,1.53-4.85,2.3-8.45,2.3-.7,0-1.75,0-3.13-.07s-3-.08-5-.08q-1.75,0-3.45,0c-1.14,0-2.05.05-2.75.12v-1a10.39,10.39,0,0,0,2.57-.4,1.82,1.82,0,0,0,1.18-1.2,9.1,9.1,0,0,0,.3-2.7v-19.8a9.34,9.34,0,0,0-.3-2.75,1.82,1.82,0,0,0-1.18-1.2,9.08,9.08,0,0,0-2.57-.35Zm11.9,1c-1.34,0-2.2.28-2.6.85a6.65,6.65,0,0,0-.6,3.45v19.8c0,1.73.2,2.86.62,3.38a3.36,3.36,0,0,0,2.63.77q4.65,0,6.75-1.87a8,8,0,0,0,.15-10.6q-1.95-1.83-6.45-1.83H388v-.85h3.8a8.38,8.38,0,0,0,4.22-.87,4.69,4.69,0,0,0,2-2.4,9.63,9.63,0,0,0,.58-3.38,6.9,6.9,0,0,0-1.5-4.8Q395.6,438.83,392.1,438.83Z"/><path class="cls-1" d="M427.7,437.83v1a8.27,8.27,0,0,0-2.58.38,1.84,1.84,0,0,0-1.17,1.2,9,9,0,0,0-.3,2.72v19.8a6.65,6.65,0,0,0,.6,3.45c.4.57,1.26.85,2.6.85q4.29,0,6-1.9a7.73,7.73,0,0,0,1.75-5.4,10.76,10.76,0,0,0-.6-3.7,5,5,0,0,0-2.25-2.62,9.56,9.56,0,0,0-4.8-1h-4.3v-1l4.8.05a19.08,19.08,0,0,1,7.52,1.25,7.48,7.48,0,0,1,3.63,3,7.9,7.9,0,0,1,1,3.82,7.37,7.37,0,0,1-2.95,6.1q-3,2.3-8.6,2.3l-2.83-.05c-1.35,0-2.76-.05-4.22-.05l-3.35,0c-1.14,0-2.05.05-2.75.12v-1a11.76,11.76,0,0,0,2.57-.37,1.77,1.77,0,0,0,1.18-1.18,9.34,9.34,0,0,0,.3-2.75v-19.8a9,9,0,0,0-.3-2.72,1.86,1.86,0,0,0-1.18-1.2,8.25,8.25,0,0,0-2.57-.38v-1c.7,0,1.61.07,2.75.1s2.35.05,3.65.05,2.32,0,3.47-.05Zm25.3,0v1a8.27,8.27,0,0,0-2.58.38,1.84,1.84,0,0,0-1.17,1.2,9,9,0,0,0-.3,2.72v19.8a9.1,9.1,0,0,0,.3,2.7,1.8,1.8,0,0,0,1.17,1.2,10.4,10.4,0,0,0,2.58.4v1q-1.15-.11-2.88-.12c-1.15,0-2.31,0-3.47,0s-2.52,0-3.65,0-2.05.05-2.75.12v-1a10.39,10.39,0,0,0,2.57-.4,1.82,1.82,0,0,0,1.18-1.2,9.1,9.1,0,0,0,.3-2.7v-19.8a9,9,0,0,0-.3-2.72,1.86,1.86,0,0,0-1.18-1.2,8.25,8.25,0,0,0-2.57-.38v-1c.7,0,1.61.07,2.75.1s2.35.05,3.65.05,2.32,0,3.47-.05Z"/><path class="cls-1" d="M512.29,437.83v1a8.25,8.25,0,0,0-2.57.38,1.86,1.86,0,0,0-1.18,1.2,9,9,0,0,0-.3,2.72v19.8a9.1,9.1,0,0,0,.3,2.7,1.82,1.82,0,0,0,1.18,1.2,10.39,10.39,0,0,0,2.57.4v1c-.7-.07-1.61-.11-2.75-.12s-2.35,0-3.65,0l-3.45,0c-1.16,0-2.13.05-2.9.12v-1a10.4,10.4,0,0,0,2.58-.4,1.8,1.8,0,0,0,1.17-1.2,9.1,9.1,0,0,0,.3-2.7v-19.8c0-1.83-.25-3-.75-3.52s-1.6-.78-3.3-.78h-7.15q-2.55,0-3.3.78c-.5.51-.75,1.69-.75,3.52v19.8a9.1,9.1,0,0,0,.3,2.7,1.82,1.82,0,0,0,1.18,1.2,10.39,10.39,0,0,0,2.57.4v1c-.76-.07-1.72-.11-2.87-.12s-2.31,0-3.48,0-2.51,0-3.65,0-2.05.05-2.75.12v-1a10.4,10.4,0,0,0,2.58-.4,1.8,1.8,0,0,0,1.17-1.2,9.1,9.1,0,0,0,.3-2.7v-19.8a9,9,0,0,0-.3-2.72,1.84,1.84,0,0,0-1.17-1.2,8.27,8.27,0,0,0-2.58-.38v-1c.7,0,1.62.07,2.75.1s2.35.05,3.65.05c1.87,0,3.72,0,5.55-.07s3.32-.08,4.45-.08,2.6,0,4.4.08,3.62.07,5.45.07c1.3,0,2.52,0,3.65-.05S511.59,437.86,512.29,437.83Z"/><path class="cls-1" d="M521.49,437.83c.7,0,1.62.07,2.75.1s2.25.05,3.35.05c1.57,0,3.07,0,4.5-.05l3-.05q5.5,0,8.28,2.33a7.47,7.47,0,0,1,2.77,6,9.86,9.86,0,0,1-.6,3.3,8.66,8.66,0,0,1-2,3.15,10,10,0,0,1-3.85,2.35,18.18,18.18,0,0,1-6.2.9h-4.3v-1H533a9.46,9.46,0,0,0,5.1-1.12,5.69,5.69,0,0,0,2.4-3,12.08,12.08,0,0,0,.65-4c0-2.63-.55-4.62-1.65-5.95s-3-2-5.65-2c-1.53,0-2.53.28-3,.85a5.9,5.9,0,0,0-.7,3.45v19.8a9.1,9.1,0,0,0,.3,2.7,1.82,1.82,0,0,0,1.18,1.2,10.39,10.39,0,0,0,2.57.4v1c-.76-.07-1.72-.11-2.87-.12s-2.31,0-3.48,0-2.51,0-3.65,0-2,.05-2.75.12v-1a10.4,10.4,0,0,0,2.58-.4,1.8,1.8,0,0,0,1.17-1.2,9.1,9.1,0,0,0,.3-2.7v-19.8a9,9,0,0,0-.3-2.72,1.84,1.84,0,0,0-1.17-1.2,8.27,8.27,0,0,0-2.58-.38Z"/><path class="cls-1" d="M567.34,437.83v1a8.25,8.25,0,0,0-2.57.38,1.86,1.86,0,0,0-1.18,1.2,9,9,0,0,0-.3,2.72v19.8a9.1,9.1,0,0,0,.3,2.7,1.82,1.82,0,0,0,1.18,1.2,10.39,10.39,0,0,0,2.57.4v1c-.76-.07-1.72-.11-2.87-.12s-2.31,0-3.48,0-2.51,0-3.65,0-2.05.05-2.75.12v-1a10.4,10.4,0,0,0,2.58-.4,1.8,1.8,0,0,0,1.17-1.2,9.1,9.1,0,0,0,.3-2.7v-19.8a9,9,0,0,0-.3-2.72,1.84,1.84,0,0,0-1.17-1.2,8.27,8.27,0,0,0-2.58-.38v-1c.7,0,1.62.07,2.75.1s2.35.05,3.65.05,2.33,0,3.48-.05S566.58,437.86,567.34,437.83Zm14.3,2.15c-.1.73-.21,1.47-.35,2.2l-19.85,23.95c.14-.73.25-1.45.35-2.15Zm6.6-2.15v1a8.25,8.25,0,0,0-2.57.38,1.86,1.86,0,0,0-1.18,1.2,9,9,0,0,0-.3,2.72v19.8a9.1,9.1,0,0,0,.3,2.7,1.82,1.82,0,0,0,1.18,1.2,10.39,10.39,0,0,0,2.57.4v1c-.7-.07-1.61-.11-2.75-.12s-2.35,0-3.65,0l-3.45,0c-1.16,0-2.13.05-2.9.12v-1a10.4,10.4,0,0,0,2.58-.4,1.8,1.8,0,0,0,1.17-1.2,9.1,9.1,0,0,0,.3-2.7v-19.8a9,9,0,0,0-.3-2.72,1.84,1.84,0,0,0-1.17-1.2,8.27,8.27,0,0,0-2.58-.38v-1l2.9.1c1.17,0,2.32.05,3.45.05,1.3,0,2.52,0,3.65-.05S587.54,437.86,588.24,437.83Z"/><path class="cls-1" d="M620.39,437.83c-.13,1.27-.22,2.49-.27,3.68s-.08,2.09-.08,2.72c0,1.67.05,3,.15,4.1H619a30.9,30.9,0,0,0-.95-5.52,4.85,4.85,0,0,0-2.1-2.93,9.31,9.31,0,0,0-4.65-.9h-1.15a8.81,8.81,0,0,0-2.57.28,1.72,1.72,0,0,0-1.18,1.15,9,9,0,0,0-.3,2.72v19.8a7.37,7.37,0,0,0,.38,2.7,2.07,2.07,0,0,0,1.47,1.2,16.12,16.12,0,0,0,3.2.4v1q-1.29-.11-3.3-.12t-4,0c-1.3,0-2.51,0-3.65,0s-2.05.05-2.75.12v-1a10.4,10.4,0,0,0,2.58-.4,1.8,1.8,0,0,0,1.17-1.2,9.1,9.1,0,0,0,.3-2.7v-19.8a9,9,0,0,0-.3-2.72,1.84,1.84,0,0,0-1.17-1.2,8.27,8.27,0,0,0-2.58-.38v-1l3.1.1c1.1,0,2.19.05,3.25.05,1.64,0,3.18,0,4.63,0l3.52,0,4.23,0C617.75,437.94,619.16,437.9,620.39,437.83Z"/><path class="cls-1" d="M654.09,437.83v1a8.25,8.25,0,0,0-2.57.38,1.86,1.86,0,0,0-1.18,1.2,9,9,0,0,0-.3,2.72v19.8a9.1,9.1,0,0,0,.3,2.7,1.82,1.82,0,0,0,1.18,1.2,10.39,10.39,0,0,0,2.57.4v1c-.7-.07-1.61-.11-2.75-.12s-2.31,0-3.55,0-2.42,0-3.57,0-2.11.05-2.88.12v-1a10.48,10.48,0,0,0,2.58-.4,1.8,1.8,0,0,0,1.17-1.2,9.1,9.1,0,0,0,.3-2.7v-19.8c0-1.87-.21-3.05-.65-3.55s-1.4-.75-2.9-.75h-.65a5.65,5.65,0,0,0-2.25.33,1.71,1.71,0,0,0-.92,1.25,18.72,18.72,0,0,0-.38,2.72q-.3,3.4-.55,7t-.72,6.95a34.37,34.37,0,0,1-1.38,6,10.85,10.85,0,0,1-2.45,4.25,5.35,5.35,0,0,1-4,1.57,6.27,6.27,0,0,1-2.95-.77,2.76,2.76,0,0,1-1.45-2.63,2.67,2.67,0,0,1,.85-2.07,3,3,0,0,1,2.1-.78,2.81,2.81,0,0,1,1.83.58,2.06,2.06,0,0,1,.72,1.72,2.67,2.67,0,0,1-.57,1.68,5.16,5.16,0,0,1-1.58,1.27,5.45,5.45,0,0,0,.68.05h.52a4.15,4.15,0,0,0,3.25-1.47,11.33,11.33,0,0,0,2.13-4,33.65,33.65,0,0,0,1.27-5.75c.3-2.15.54-4.4.7-6.73s.32-4.63.45-6.9a8.48,8.48,0,0,0-.15-2.65,1.78,1.78,0,0,0-1.12-1.25,8.71,8.71,0,0,0-2.78-.4v-1l2.5.1c1,0,1.75.05,2.35.05l1.65,0,1.23-.08c.41,0,.94-.05,1.57-.05s1.28,0,1.93.05l2.1.08,2.57,0,1.93,0,2.1,0C653.05,437.89,653.63,437.86,654.09,437.83Z"/><path class="cls-1" d="M677,437.58,688.69,464a6.36,6.36,0,0,0,1.75,2.5,3.32,3.32,0,0,0,1.7.7v1c-.66-.07-1.48-.11-2.45-.12s-1.93,0-2.9,0c-1.3,0-2.51,0-3.65,0s-2,.05-2.75.12v-1q2.55-.11,3.3-.9c.5-.53.37-1.63-.4-3.3l-8.8-19.85.45-.1-8.05,18a8.22,8.22,0,0,0-.82,3.13,2.44,2.44,0,0,0,.9,2.07,5.58,5.58,0,0,0,3,1v1a16.14,16.14,0,0,0-2-.12q-1.23,0-2.58,0l-2.27,0a15.69,15.69,0,0,0-2.08.12v-1a4.38,4.38,0,0,0,2.4-1.67,15.1,15.1,0,0,0,1.7-3l11.05-25h.8Zm5,18.75v1h-13.9l.5-1Z"/><path class="cls-1" d="M743.74,437.83v1a8.25,8.25,0,0,0-2.57.38,1.84,1.84,0,0,0-1.18,1.2,9,9,0,0,0-.3,2.72v19.8a9.1,9.1,0,0,0,.3,2.7,1.8,1.8,0,0,0,1.18,1.2,10.39,10.39,0,0,0,2.57.4v1c-.7-.07-1.61-.11-2.75-.12s-2.35,0-3.65,0-2.59,0-4,.08-2.78.07-4.18.07c-1,0-2,0-3-.05s-1.82-.06-2.6-.07l-2.13,0c-.93,0-2.08,0-3.45.08s-2.85.07-4.45.07c-1.43,0-2.82,0-4.17-.07s-2.66-.08-3.93-.08-2.51,0-3.65,0-2.05.05-2.75.12v-1a10.48,10.48,0,0,0,2.58-.4,1.8,1.8,0,0,0,1.17-1.2,9.1,9.1,0,0,0,.3-2.7v-19.8a9,9,0,0,0-.3-2.72,1.84,1.84,0,0,0-1.17-1.2,8.32,8.32,0,0,0-2.58-.38v-1c.7,0,1.62.07,2.75.1s2.35.05,3.65.05c1.07,0,2.13,0,3.18-.05l2.67-.1v1a6.32,6.32,0,0,0-2.25.38,1.78,1.78,0,0,0-1,1.2,9.51,9.51,0,0,0-.28,2.72v19.8c0,1.83.25,3,.75,3.53s1.6.77,3.3.77H715c1.7,0,2.8-.26,3.3-.77s.75-1.7.75-3.53v-19.8a10.59,10.59,0,0,0-.25-2.72,1.71,1.71,0,0,0-1-1.2,6.46,6.46,0,0,0-2.3-.38v-1l2.7.1c1.07,0,2.12.05,3.15.05,1.2,0,2.33,0,3.38-.05s1.89-.07,2.52-.1v1a6.49,6.49,0,0,0-2.27.38,1.72,1.72,0,0,0-1,1.2,11.07,11.07,0,0,0-.25,2.72v19.8c0,1.83.25,3,.75,3.53s1.6.77,3.3.77H731c1.7,0,2.8-.26,3.3-.77s.75-1.7.75-3.53v-19.8a10.59,10.59,0,0,0-.25-2.72,1.71,1.71,0,0,0-1-1.2,6.46,6.46,0,0,0-2.3-.38v-1l2.7.1c1.07,0,2.12.05,3.15.05,1.3,0,2.52,0,3.65-.05S743,437.86,743.74,437.83Z"/><path class="cls-1" d="M776.89,437.83c-.13,1.07-.22,2.1-.27,3.1s-.08,1.77-.08,2.3a25.2,25.2,0,0,0,.15,3.1h-1.15c-.23-2.77-.81-4.68-1.72-5.75s-2.41-1.6-4.48-1.6h-3.65a8.81,8.81,0,0,0-2.57.28,1.71,1.71,0,0,0-1.18,1.15,9,9,0,0,0-.3,2.72v19.8a9.1,9.1,0,0,0,.3,2.7,1.75,1.75,0,0,0,1.18,1.18,9.24,9.24,0,0,0,2.57.27h3.65q3.7,0,5.25-1.82t1.95-6.53h1.15a34.14,34.14,0,0,0-.15,3.6c0,.57,0,1.4.08,2.5s.14,2.23.27,3.4c-1.63-.07-3.46-.11-5.5-.12l-5.45,0h-3.85l-5.07,0c-1.79,0-3.48.05-5.08.12v-1a10.48,10.48,0,0,0,2.58-.4,1.8,1.8,0,0,0,1.17-1.2,9.1,9.1,0,0,0,.3-2.7v-19.8a9,9,0,0,0-.3-2.72,1.84,1.84,0,0,0-1.17-1.2,8.32,8.32,0,0,0-2.58-.38v-1l5.08.1c1.78,0,3.47.05,5.07.05h3.85l5,0C773.77,437.94,775.43,437.9,776.89,437.83Zm-7.25,14.6v1h-9.5v-1Zm1.45-5.1a34.42,34.42,0,0,0-.17,3.45c0,.77,0,1.48,0,2.15s0,1.38,0,2.15.12,1.92.25,3.45h-1.15a13.45,13.45,0,0,0-.5-2.4,4.09,4.09,0,0,0-1.2-1.92,3.72,3.72,0,0,0-2.6-.78v-1a3.34,3.34,0,0,0,2.58-.9,4.76,4.76,0,0,0,1.12-2.1q.3-1.2.45-2.1Z"/><path class="cls-1" d="M820.34,437.83v1a8.25,8.25,0,0,0-2.57.38,1.84,1.84,0,0,0-1.18,1.2,9,9,0,0,0-.3,2.72v19.8a9.1,9.1,0,0,0,.3,2.7,1.8,1.8,0,0,0,1.18,1.2,10.39,10.39,0,0,0,2.57.4v1c-.7-.07-1.62-.11-2.75-.12s-2.35,0-3.65,0l-3.45,0c-1.17,0-2.13.05-2.9.12v-1a10.57,10.57,0,0,0,2.58-.4,1.8,1.8,0,0,0,1.17-1.2,9.1,9.1,0,0,0,.3-2.7V453H796.39v9.95a9.1,9.1,0,0,0,.3,2.7,1.8,1.8,0,0,0,1.18,1.2,10.39,10.39,0,0,0,2.57.4v1c-.77-.07-1.72-.11-2.87-.12s-2.31,0-3.48,0-2.52,0-3.65,0-2.05.05-2.75.12v-1a10.57,10.57,0,0,0,2.58-.4,1.8,1.8,0,0,0,1.17-1.2,9.1,9.1,0,0,0,.3-2.7v-19.8a9,9,0,0,0-.3-2.72,1.84,1.84,0,0,0-1.17-1.2,8.37,8.37,0,0,0-2.58-.38v-1c.7,0,1.62.07,2.75.1s2.35.05,3.65.05,2.33,0,3.48-.05,2.1-.07,2.87-.1v1a8.25,8.25,0,0,0-2.57.38,1.84,1.84,0,0,0-1.18,1.2,9,9,0,0,0-.3,2.72V452h15.25v-8.85a9,9,0,0,0-.3-2.72,1.84,1.84,0,0,0-1.17-1.2,8.37,8.37,0,0,0-2.58-.38v-1c.77,0,1.73.07,2.9.1s2.32.05,3.45.05c1.3,0,2.52,0,3.65-.05S819.64,437.86,820.34,437.83Z"/><path class="cls-1" d="M842.29,437.83v1a8.25,8.25,0,0,0-2.57.38,1.84,1.84,0,0,0-1.18,1.2,9,9,0,0,0-.3,2.72v19.8a6.65,6.65,0,0,0,.6,3.45c.4.57,1.27.85,2.6.85,2.87,0,4.88-.63,6-1.9a7.68,7.68,0,0,0,1.75-5.4,10.76,10.76,0,0,0-.6-3.7,5,5,0,0,0-2.25-2.62,9.56,9.56,0,0,0-4.8-1h-4.3v-1l4.8.05a19.1,19.1,0,0,1,7.53,1.25,7.45,7.45,0,0,1,3.62,3,7.79,7.79,0,0,1,1,3.82,7.34,7.34,0,0,1-3,6.1c-2,1.53-4.83,2.3-8.6,2.3l-2.82-.05c-1.35,0-2.76-.05-4.23-.05l-3.35,0c-1.13,0-2,.05-2.75.12v-1a12,12,0,0,0,2.58-.37,1.75,1.75,0,0,0,1.17-1.18,9.34,9.34,0,0,0,.3-2.75v-19.8a9,9,0,0,0-.3-2.72,1.84,1.84,0,0,0-1.17-1.2,8.37,8.37,0,0,0-2.58-.38v-1c.7,0,1.62.07,2.75.1s2.35.05,3.65.05,2.33,0,3.48-.05S841.52,437.86,842.29,437.83Zm25.3,0v1a8.25,8.25,0,0,0-2.57.38,1.84,1.84,0,0,0-1.18,1.2,9,9,0,0,0-.3,2.72v19.8a9.1,9.1,0,0,0,.3,2.7,1.8,1.8,0,0,0,1.18,1.2,10.39,10.39,0,0,0,2.57.4v1c-.77-.07-1.72-.11-2.87-.12s-2.31,0-3.48,0-2.52,0-3.65,0-2.05.05-2.75.12v-1a10.57,10.57,0,0,0,2.58-.4,1.8,1.8,0,0,0,1.17-1.2,9.1,9.1,0,0,0,.3-2.7v-19.8a9,9,0,0,0-.3-2.72,1.84,1.84,0,0,0-1.17-1.2,8.37,8.37,0,0,0-2.58-.38v-1c.7,0,1.62.07,2.75.1s2.35.05,3.65.05,2.33,0,3.48-.05S866.82,437.86,867.59,437.83Z"/><rect class="cls-2" x="1" width="1242" height="2208"/></svg>