{
	"asset": {
		"version": "2.0",
		"generator": "Created using the official Cinema 4D glTF Exporter 1.000x284978"
	},
	"scenes": [
		{
			"nodes": [0]
		}
	],
	"nodes": [
		{
			"name": "Puck",
			"translation": [0.0, 0.0, 0.0],
			"rotation": [0.0, -0.015501035377383232, 0.0, 0.9998798370361328],
			"scale": [1.0, 1.0, 1.0],
			"children": [1, 2, 3]
		},
		{
			"name": "Puck-Lidar Lens",
			"mesh": 0
		},
		{
			"name": "Puck-Lidar Case",
			"mesh": 1
		},
		{
			"name": "Velodyne_Logo_Decal",
			"translation": [5.421010862427522e-20, 0.0, -0.009999999776482582],
			"rotation": [0.0, 0.0, 1.0, -6.123234262925839e-17],
			"scale": [1.0, -1.0, 1.0],
			"mesh": 2
		}
	],
	"meshes": [
		{
			"name": "Puck-Lidar Lens",
			"primitives": [
				{
					"attributes": {
						"POSITION": 1,
						"NORMAL": 2,
						"TEXCOORD_0": 3
					},
					"indices": 0,
					"material": 0
				}
			]
		},
		{
			"name": "Puck-Lidar Case",
			"primitives": [
				{
					"attributes": {
						"POSITION": 5,
						"NORMAL": 6,
						"TEXCOORD_0": 7
					},
					"indices": 4,
					"material": 1
				}
			]
		},
		{
			"name": "Velodyne_Logo_Decal",
			"primitives": [
				{
					"attributes": {
						"POSITION": 9,
						"NORMAL": 10,
						"TEXCOORD_0": 11
					},
					"indices": 8,
					"material": 0
				}
			]
		}
	],
	"accessors": [
		{
			"bufferView": 0,
			"type": "SCALAR",
			"componentType": 5123,
			"count": 216,
			"byteOffset": 0,
			"min": [0],
			"max": [73]
		},
		{
			"bufferView": 1,
			"type": "VEC3",
			"componentType": 5126,
			"count": 74,
			"byteOffset": 0,
			"min": [-5.015484809875488, 1.924002766609192, -5.015484809875488],
			"max": [5.015484809875488, 5.738307476043701, 5.015484809875488]
		},
		{
			"bufferView": 1,
			"type": "VEC3",
			"componentType": 5126,
			"count": 74,
			"byteOffset": 12,
			"min": [-1.0, -0.29621875286102297, -1.0],
			"max": [1.0, 0.0, 1.0]
		},
		{
			"bufferView": 1,
			"type": "VEC2",
			"componentType": 5126,
			"count": 74,
			"byteOffset": 24,
			"min": [0.0, 0.37776583433151247],
			"max": [1.0, 0.5959204435348511]
		},
		{
			"bufferView": 2,
			"type": "SCALAR",
			"componentType": 5123,
			"count": 2376,
			"byteOffset": 0,
			"min": [0],
			"max": [552]
		},
		{
			"bufferView": 3,
			"type": "VEC3",
			"componentType": 5126,
			"count": 553,
			"byteOffset": 0,
			"min": [-5.055978298187256, -2.042810365310288e-14, -5.055978298187256],
			"max": [5.055978298187256, 7.20439338684082, 5.055978298187256]
		},
		{
			"bufferView": 3,
			"type": "VEC3",
			"componentType": 5126,
			"count": 553,
			"byteOffset": 12,
			"min": [-1.0, -1.0, -1.0],
			"max": [1.0, 1.0, 1.0]
		},
		{
			"bufferView": 3,
			"type": "VEC2",
			"componentType": 5126,
			"count": 553,
			"byteOffset": 24,
			"min": [0.0, 0.0],
			"max": [1.0, 1.0]
		},
		{
			"bufferView": 4,
			"type": "SCALAR",
			"componentType": 5123,
			"count": 42,
			"byteOffset": 0,
			"min": [0],
			"max": [15]
		},
		{
			"bufferView": 5,
			"type": "VEC3",
			"componentType": 5126,
			"count": 16,
			"byteOffset": 0,
			"min": [-3.249920129776001, 0.2251535952091217, -5.055978298187256],
			"max": [2.527989149093628, 1.7587907314300538, -3.8731040954589845]
		},
		{
			"bufferView": 5,
			"type": "VEC3",
			"componentType": 5126,
			"count": 16,
			"byteOffset": 12,
			"min": [-0.5735765695571899, 0.0, -0.9995750784873962],
			"max": [0.42261791229248049, 0.0, -0.8191519379615784]
		},
		{
			"bufferView": 5,
			"type": "VEC2",
			"componentType": 5126,
			"count": 16,
			"byteOffset": 24,
			"min": [0.0, -8.881784197001253e-15],
			"max": [1.0, 1.0]
		}
	],
	"bufferViews": [
		{
			"buffer": 0,
			"byteOffset": 0,
			"byteLength": 432,
			"target": 34963
		},
		{
			"buffer": 0,
			"byteOffset": 432,
			"byteLength": 2368,
			"target": 34962,
			"byteStride": 32
		},
		{
			"buffer": 1,
			"byteOffset": 0,
			"byteLength": 4752,
			"target": 34963
		},
		{
			"buffer": 1,
			"byteOffset": 4752,
			"byteLength": 17696,
			"target": 34962,
			"byteStride": 32
		},
		{
			"buffer": 2,
			"byteOffset": 0,
			"byteLength": 84,
			"target": 34963
		},
		{
			"buffer": 2,
			"byteOffset": 84,
			"byteLength": 512,
			"target": 34962,
			"byteStride": 32
		}
	],
	"buffers": [
		{
			"uri": "data:application/octet-stream;base64,",
			"byteLength": 2800
		},
		{
			"uri": "data:application/octet-stream;base64,",
			"byteLength": 22448
		},
		{
			"uri": "data:application/octet-stream;base64,",
			"byteLength": 596
		}
	],
	"materials": [
		{
			"pbrMetallicRoughness": {
				"baseColorFactor": [0.22419999999999999, 0.3748066666666667, 0.38, 1.0],
				"metallicFactor": 1.0,
				"roughnessFactor": 0.0
			},
			"doubleSided": false,
			"emissiveFactor": [0.0, 0.0, 0.0],
			"alphaMode": "OPAQUE",
			"name": "Lidar Lens"
		},
		{
			"pbrMetallicRoughness": {
				"baseColorFactor": [0.8, 0.8, 0.8, 1.0],
				"metallicFactor": 0.0,
				"roughnessFactor": 0.5
			},
			"doubleSided": false,
			"emissiveFactor": [0.0, 0.0, 0.0],
			"alphaMode": "OPAQUE",
			"name": "Lidar Case"
		}
	]
}
