{
	"asset":{
		"version":"2.0",
		"generator":"Created using the official Cinema 4D glTF Exporter 1.000x290161"
	},
	"scenes":[{
		"nodes":[0]
	}],
	"nodes":[{
		"name":"left.1",
		"translation":[-14080.9111328125,
		1160.19189453125,
		62996.44140625],
		"rotation":[0.0,
		0.0,
		0.0,
		-1.0],
		"mesh":0,
		"scale":[1.0,
		1.0,
		1.0]
	}],
	"meshes":[{
		"primitives":[{
			"attributes":{
				"POSITION":1,
				"TEXCOORD_0":2
			},
			"indices":0,
			"material":0
		}]
	}],
	"accessors":[{
		"bufferView":0,
		"type":"SCALAR",
		"componentType":5123,
		"count":20697,
		"byteOffset":0,
		"min":[0],
		"max":[3654]
	},
	{
		"bufferView":1,
		"type":"VEC3",
		"componentType":5126,
		"count":3655,
		"byteOffset":0,
		"min":[-5772.26513671875,
		-1161.4041748046875,
		-6283.1826171875],
		"max":[5772.26513671875,
		1161.4041748046875,
		6283.1826171875]
	},
	{
		"bufferView":1,
		"type":"VEC2",
		"componentType":5126,
		"count":3655,
		"byteOffset":12,
		"min":[0.0,
		0.32687699794769289],
		"max":[1.040292501449585,
		0.9707622528076172]
	}],
	"bufferViews":[{
		"buffer":0,
		"byteOffset":0,
		"byteLength":41394,
		"target":34963
	},
	{
		"buffer":0,
		"byteOffset":41396,
		"byteLength":73100,
		"target":34962,
		"byteStride":20
	}],
	"buffers":[{
		"uri":"data:application/octet-stream;base64,",
		"byteLength":114496
	}],
	"images":[{
		"uri":"data:image/jpeg;base64,"
	}],
	"samplers":[{
		"magFilter":9729,
		"minFilter":9729,
		"wrapS":10497,
		"wrapT":10497
	}],
	"textures":[{
		"sampler":0,
		"source":0
	}],
	"materials":[{
		"pbrMetallicRoughness":{
			"baseColorTexture":{
				"index":0
			},
			"baseColorFactor":[1.0,
			1.0,
			1.0,
			1.0],
			"metallicFactor":0.0,
			"roughnessFactor":0.5
		},
		"emissiveFactor":[0.0,
		0.0,
		0.0],
		"alphaMode":"OPAQUE",
		"doubleSided":false,
		"name":"Mat.4"
	}]
}